<svg xmlns="http://www.w3.org/2000/svg" viewBox="0 0 200.58 80.46"><defs><style>.cls-1{isolation:isolate;}.cls-2{fill:#212121;}.cls-3{fill:#fb8c00;}.cls-4{fill:#f5f5f5;mix-blend-mode:overlay;opacity:0.6;}</style></defs><g class="cls-1"><g id="Слой_2" data-name="Слой 2"><g id="OBJECTS"><path class="cls-2" d="M89,26.2S55.35-10.33,0,12.46A27.62,27.62,0,0,1,15.55,35.61s18.09-2.13,23.52,14.31c0,0,17.9-2.74,22.42,11.91,0,0,26.85-6.87,32.2,18.63h10.49"/><path class="cls-2" d="M111.59,26.2s33.65-36.53,89-13.74A27.62,27.62,0,0,0,185,35.61s-18.09-2.13-23.52,14.31c0,0-17.9-2.74-22.42,11.91,0,0-26.85-6.87-32.2,18.63H96.4"/><circle class="cls-2" cx="100.29" cy="28.01" r="16.28"/><path class="cls-2" d="M89,20.48S82.94,12.62,88.48,0c0,0,4.32,13.18,11,15.89,4.24,1.72-3.55-1-3.55-1Z"/><path class="cls-2" d="M111.57,20.48s6.07-7.86.53-20.48c0,0-4.32,13.18-11,15.89-4.25,1.72,3.54-1,3.54-1Z"/><path class="cls-2" d="M86.31,39.34C87,40,98,71.24,98,71.24l16.28-31.9Z"/><path class="cls-3" d="M97.52,22.4a2.9,2.9,0,1,1-2.9-2.89A2.9,2.9,0,0,1,97.52,22.4Z"/><path class="cls-3" d="M108.85,22.4A2.9,2.9,0,1,1,106,19.51,2.9,2.9,0,0,1,108.85,22.4Z"/><path class="cls-4" d="M115.6,22.53a16.24,16.24,0,0,0-2.6-4.68c1.37-3.3,2.75-9.54-.9-17.85,0,0-2.53,7.71-6.72,12.55a16.45,16.45,0,0,0-5.09-.82V80.46h6.6c5.35-25.5,32.2-18.63,32.2-18.63,4.52-14.65,22.42-11.91,22.42-11.91C166.94,33.48,185,35.61,185,35.61a27.62,27.62,0,0,1,15.55-23.15C156.4-5.74,126.05,13.88,115.6,22.53Z"/></g></g></g></svg>