<svg xmlns="http://www.w3.org/2000/svg" viewBox="0 0 91.58 84.15"><defs><style>.cls-1{fill:#f5f5f5;}</style></defs><g id="Слой_2" data-name="Слой 2"><g id="Objects"><path class="cls-1" d="M91.49,60.68c-.68-5-5.11-8.36-10-8.68-4.24-.28-7.36,3.17-8.78,6.88-6.6-5.75-13.5-11.13-20.3-16.58,7.71-3,12.86-10.54,18.47-16.37A9.91,9.91,0,0,0,81,32.07c4.46-.32,9.35-4.88,9.68-9.42.63-9-9.1-13-16.6-10.9,1.07-8.12-7.59-13.82-15.76-11-10.23,3.48-7,18.52,2.48,18.9-1.92,1.9-3.53,4.55-5,6.35a144.37,144.37,0,0,1-9.66,11.22,191,191,0,0,1-17.36-16C36.29,17.9,37.83,5,29,1.81c-10.15-3.65-17.07,6-14.74,15C9.49,16,3.6,15.67.91,20-1.42,23.77,1.2,29,3.36,32.11c2.29,3.32,5.92,7,10.19,7.36,5.41.39,5.31-6.91,4.85-10.39a1.11,1.11,0,0,0-.14-.41C26.1,32.64,32.69,38,39,44c-6.14,5.47-11.2,12-17.65,17.15.21-2.65-.18-5.65-2.48-6.89-2.63-1.42-5.59.53-7.57,2.18C7.9,59.24,1.34,67.74,6.73,71.55c1.83,1.29,4.36,1.15,6.75.61C12.1,74.24,11.22,76.61,12,79c.93,2.93,4.06,4.4,6.87,4.91,5.32,1,14.79-1.09,13-8.42-.66-2.68-2.78-5-4.79-6.82,4-2.26,7.57-5.6,10.81-8.73,2.67-2.57,6.2-5.51,8.22-8.85q3.23,3.31,6.46,6.61c3.13,3.16,6.63,7.6,10.73,9.46h0c-4.79,6-4.56,15.08,4.62,16,7.48.77,10.55-4.74,8.86-10.66C83.75,73.33,92.57,68.55,91.49,60.68Z"/></g></g></svg>