<svg xmlns="http://www.w3.org/2000/svg" viewBox="0 0 452.92 512"><defs><style>.cls-1{fill:#fff;}.cls-2{stroke:#000;stroke-linecap:round;stroke-linejoin:round;stroke-width:1.15px;}</style></defs><g id="Слой_2" data-name="Слой 2"><g id="_03" data-name="03"><path class="cls-1" d="M210.74,224s0-17.5-17.5-20.83S38.18,240.54,24,263.05c28.34-9.17,25,30,25,30C50.68,273.89,210.74,224,210.74,224Z"/><path class="cls-1" d="M444.18,367.27s-296-20-395.17-74.2c0,0-10.83,24.18,0,70,.52,2.19,1,4.33,1.51,6.44,9.67,42,13.18,67,23.51,69.42,10.84,2.51,370.15,49.19,370.15,49.19,9.17-7.5,0-48.35,0-48.35C453.35,431.46,451,372.89,444.18,367.27Z"/><path d="M447.2,443.33c.11.47.08.37,0,0Z"/><path d="M447.2,443.33Z"/><path d="M447.14,443c0-.14-.06-.29-.1-.45Z"/><path d="M447,442.46l0-.16Z"/><path d="M447.2,443.3c0-.08,0-.17-.06-.28C447.16,443.12,447.18,443.22,447.2,443.3Z"/><path d="M447,442.3c0-.11-.05-.23-.08-.36A3.21,3.21,0,0,0,447,442.3Z"/><path d="M447.2,443.33v0Z"/><path d="M447,442.57a.43.43,0,0,0,0-.11A.43.43,0,0,1,447,442.57Z"/><path d="M443.4,485.81l-.18,0Z"/><path d="M446.61,440.57a.59.59,0,0,0,0-.14Z"/><path d="M446.91,441.94l-.06-.24Z"/><path d="M446.85,441.7a.13.13,0,0,0,0-.06S446.85,441.68,446.85,441.7Z"/><path d="M446.64,440.69l0-.12Z"/><path d="M446.84,441.64c-.08-.38-.16-.72-.2-.95C446.71,441,446.78,441.36,446.84,441.64Z"/><path d="M452,418.18a178.15,178.15,0,0,0,.28-19.33,146.75,146.75,0,0,0-2.07-21.24,33.68,33.68,0,0,0-2.85-9.64,10.55,10.55,0,0,0-3.3-3.6c-6.06-4.68-12.51-8.89-18.92-13.09-9.86-6.46-19.83-12.75-29.83-19Q377,320.88,358.6,309.67q-19.77-12-39.62-24-19.22-11.55-38.49-23-16.67-9.93-33.36-19.8-12.09-7.16-24.21-14.28l-10-5.91a25.66,25.66,0,0,0-6.53-15,22.66,22.66,0,0,0-10.88-6.25,24.37,24.37,0,0,0-8.12-.48c-10.5.84-20.93,3.43-31.12,5.95-14.66,3.63-29.18,7.87-43.56,12.47-15,4.83-30,10.08-44.64,16-11.74,4.78-23.58,9.87-34.35,16.62a46.53,46.53,0,0,0-9.77,7.6c-3.58,3.91-5.72,9.41-7.15,14.43-4.18,14.72-2.12,30.7.67,45.59Q20.18,374.82,23.77,430h0c-.08-2.61-.53-5.56-2.61-7.25s-4.58-2.16-6.8-.75c-.85.54.09,1.79.94,1.25,1.92-1.21,4.65-.1,5.72,1.78a11.49,11.49,0,0,1,1.21,5.64,7,7,0,0,0-.68.43c-3.7-7.41-15.26-10.7-20.86-3.36a.79.79,0,0,0,1.24,1c5-6.6,15.37-3.16,18.4,3.51a7.42,7.42,0,0,0-1.27,2,10.55,10.55,0,0,0-4.48-3.47,13.68,13.68,0,0,0-5.68-.67c-3.12.3-7.19,1.06-8.79,4.1-.47.88,1,1.49,1.45.6,1.31-2.49,5.56-3.12,8.11-3.18a10.65,10.65,0,0,1,4.84.82,12.46,12.46,0,0,1,4,3.55,10.26,10.26,0,0,0-.21,1.7A11.47,11.47,0,0,0,11,436c-3.71.35-7.84,1.63-9.84,5-.5.85.72,1.83,1.24,1,1.66-2.81,5.06-4.07,8.19-4.36,2.37-.23,6.59-.07,7.9,2.42h0c1.59,6.29,10.79,8.85,15.61,6.47a8.12,8.12,0,0,0,1.5-1c6.07.25,8.15,7.4,6.78,12.61-.26,1,1.29,1.19,1.54.22,1.54-5.82-1-13.13-7.06-14.25a7.09,7.09,0,0,0,.64-1.22c5.78-1.79,11.67,3.29,11.13,9.27-.09,1,1.46,1.24,1.55.23.62-6.78-5.67-12.64-12.24-11.24a7.72,7.72,0,0,0-.19-2.73,13.37,13.37,0,0,1,7.41-.33A25,25,0,0,0,46.7,442a8.43,8.43,0,0,0,4.52,4.16l1.11.41a11.76,11.76,0,0,1,.05,1.58c0,1,1.52,1.23,1.55.23,0-.44,0-.86,0-1.29.84.26,1.69.5,2.53.74,6.06,1.69,12.23,3,18.39,4.32,9.11,1.91,18.25,3.67,27.4,5.38q17.22,3.21,34.48,6.18,19.78,3.45,39.62,6.73,21.4,3.56,42.82,7,22,3.56,44.1,7,21.71,3.4,43.44,6.78,20.42,3.17,40.85,6.28,18.15,2.78,36.32,5.52l29.85,4.49,21.47,3.19,7,1,1.32.19c2.11.31,3.1-1.44,4-3.11,2.24-4.27,2.24-9.33,1.27-14a35.83,35.83,0,0,0-1.94-6.3c7.51-9.57,1.35-40.9-.21-48.15,2.09-2.66,3-6.2,3.75-9.45A89.19,89.19,0,0,0,452,418.18Zm-261.37-213a18,18,0,0,1,14.07,7.38,21.08,21.08,0,0,1,3.7,9.85q-32.91,10.38-65.41,22c-23.08,8.27-46.23,16.81-68.36,27.43C70.3,274,66,276.17,61.81,278.57a64.46,64.46,0,0,0-10.56,7.19c-.33-6-1.43-12.4-4.53-17.63a18,18,0,0,0-6.56-6.66,17.64,17.64,0,0,0-9.78-2C56.53,238.28,166.67,205.21,190.65,205.21Zm-156,228.17a14.57,14.57,0,0,0-1.76-1.47,11.46,11.46,0,0,0-7.15-2.28q-3.19-48.53-5.68-97.09c4.41,20.21,10.09,40.14,14.91,60.25q3.1,13,5.87,26c.74,3.49,1.47,7,2.23,10.46C40,429.07,36.74,431.05,34.64,433.38ZM37.25,437a10.39,10.39,0,0,0-1.52-2.41c1.88-2.1,5.14-4.33,7.67-3.72l.21.93c.34,1.55.68,3.15,1.09,4.72A15.71,15.71,0,0,0,37.25,437Zm397.68,47.75.88.12Zm8.47,1.1-.69-.09.51.07-12.51-1.62-24.79-3.23-34.24-4.47-41-5.36-45.18-5.92-46.66-6.13-45.49-6q-20.84-2.76-41.67-5.54-17.58-2.34-35.18-4.73-13-1.77-26-3.58c-5-.71-10.11-1.39-15.15-2.25a7.92,7.92,0,0,1-5.19-3.74A36.62,36.62,0,0,1,66,424.34a216.53,216.53,0,0,1-6.05-22.82c-2.19-9.62-4.24-19.27-6.44-28.88,24,6.43,48.12,12.21,72.45,17.05,22.76,4.51,45.75,7.47,68.67,11q27,4.21,54,8.64,31.18,5.07,62.36,10.28,30.09,5,60.18,10.06,29,4.88,58.08,9.8l13.13,2.23C445.52,456.57,448.29,479.89,443.4,485.81ZM446.88,425a56,56,0,0,1-1.46,7.47,15.57,15.57,0,0,1-2.05,4.86C417.31,430,391.29,422.54,365,415.94c-26-6.52-52.19-11.8-78.63-16-26.21-4.2-52.55-7.52-78.91-10.6-13.19-1.54-26.39-3-39.59-4.55-11.81-1.35-23.63-2.48-35.46-3.65-19-1.9-38.71-4.36-56.26-12.41-11.8-5.42-23.45-14.22-28.67-26.48a140.24,140.24,0,0,1-.89-24.41,86.68,86.68,0,0,1,3.59-21.57c10.43,5.68,21.69,10,32.86,14,11.6,4.12,23.4,7.71,35.27,10.94,24.56,6.68,49.46,12.12,74.47,16.84,25.39,4.78,50.9,8.91,76.48,12.58q37.45,5.37,75.08,9.54,36.62,4.08,73.31,7.26c8.48.73,17,1.42,25.47,2,1.26,1.83,1.73,4.35,2.2,6.46a103.87,103.87,0,0,1,1.92,13.23A160,160,0,0,1,446.88,425Z"/><path class="cls-1" d="M30.68,445.72a3.77,3.77,0,0,1-3.52-1.54,1.84,1.84,0,0,1,1.3-2.7c1.49-.42,6.12.2,4.73,2.7A3.61,3.61,0,0,1,30.68,445.72Z"/><path class="cls-1" d="M21,441.82A3.79,3.79,0,0,0,24.67,443a1.84,1.84,0,0,0,.8-2.89c-.83-1.3-4.72-3.89-5.33-1.09A3.63,3.63,0,0,0,21,441.82Z"/><path d="M416.64,408.05a3.41,3.41,0,1,1,3.41-3.41A3.44,3.44,0,0,1,416.64,408.05Z"/><path d="M394.65,388.23a7.5,7.5,0,1,1-7.49,7.49A7.57,7.57,0,0,1,394.65,388.23Z"/><path d="M402.14,410.42a2.86,2.86,0,1,1-2.86,2.86A2.89,2.89,0,0,1,402.14,410.42Z"/><path d="M418.17,387.6a3.06,3.06,0,1,1-1.53-5.7,3.12,3.12,0,0,1,2.94,2.25A3.06,3.06,0,0,1,418.17,387.6Z"/><path d="M348.54,388.31a6.39,6.39,0,1,1-6.38,6.39A6.45,6.45,0,0,1,348.54,388.31Z"/><path d="M306.08,381.31c.15.25.09.18-.17-.2a2.69,2.69,0,0,1-.53,4.12c-.13.08-.25.16-.39.23a3.14,3.14,0,0,1-3.06,0,3,3,0,1,1,4.15-4.15Z"/><path d="M319.12,382.51a7.93,7.93,0,0,1,1.27-.18,3.22,3.22,0,1,1-3.22,3.22,6.94,6.94,0,0,1,.18-1.27A2.46,2.46,0,0,1,319.12,382.51Z"/><path d="M324.41,394.19c2.54,0,2.54,3.94,0,3.94S321.87,394.19,324.41,394.19Z"/><path d="M93.94,405.35a8.54,8.54,0,0,1,8.32,2.2l.14.16a8.47,8.47,0,0,1-6,14.45h-.19a8.81,8.81,0,0,1-6-2.51,8.56,8.56,0,0,1,3.77-14.3Z"/><path d="M75.36,397a4,4,0,1,1,4,4A4,4,0,0,1,75.36,397Z"/><path d="M78,411.9a3.88,3.88,0,1,1-3.87,3.87A3.91,3.91,0,0,1,78,411.9Z"/><path d="M91.87,397.5a2,2,0,0,1-2-2.55,2.63,2.63,0,0,1,.69-1,1.58,1.58,0,0,1,2.51,0,2.44,2.44,0,0,1,.69,1A2,2,0,0,1,91.87,397.5Z"/><path d="M130.79,424.66a2.36,2.36,0,0,1,2.8,1.43l0,.06a2.69,2.69,0,0,1,.35,1.3,2.19,2.19,0,0,1-1.56,2.14,2.68,2.68,0,0,1-3.26-2.06A2.37,2.37,0,0,1,130.79,424.66Z"/><path d="M120.2,427a2.8,2.8,0,1,1-2.8,2.79A2.82,2.82,0,0,1,120.2,427Z"/><path d="M239.5,434.15a6.8,6.8,0,1,1-6.81,6.8A6.86,6.86,0,0,1,239.5,434.15Z"/><path d="M286.84,444.75a4.19,4.19,0,1,1-4.18,4.19A4.23,4.23,0,0,1,286.84,444.75Z"/><path d="M309.91,457l.39.22.11.06a1.51,1.51,0,0,1,.91.69,1.11,1.11,0,0,1-.12,1.73,1.5,1.5,0,0,1-2,.37,3.91,3.91,0,0,1-1.09-1.3A1.3,1.3,0,0,1,309.91,457Z"/><path d="M273,445.21a2.27,2.27,0,0,1,3.43.27h0a2.48,2.48,0,0,1,.63,2.37,2.43,2.43,0,0,1-1.7,1.7,2.4,2.4,0,0,1-2.36-.63,2.82,2.82,0,0,1-.73-2.49A2.3,2.3,0,0,1,273,445.21Z"/><path d="M294.79,452.39a1.25,1.25,0,1,1,0,2.15l-.5-.27a.94.94,0,0,1,0-1.6Z"/><path d="M419.43,452.16a7.72,7.72,0,1,1-7.72,7.72A7.79,7.79,0,0,1,419.43,452.16Z"/><path d="M433.76,465a3,3,0,1,1-2.95,2.95A3,3,0,0,1,433.76,465Z"/><path d="M433.76,454.45c-3.81,0-3.81-5.91,0-5.91S437.57,454.45,433.76,454.45Z"/><path d="M420.27,476.75a2.8,2.8,0,0,1,2.87-.16c1.58.93,1.77,3.58,0,4.45a2.73,2.73,0,0,1-3.32-.41,2.62,2.62,0,0,1-.32-3.15A2,2,0,0,1,420.27,476.75Z"/><path d="M373.69,453.54c.35-.19.21-.09,0,0Z"/><path d="M372.61,454a2.61,2.61,0,0,1,.93-.42l.15,0-.19.1a3.36,3.36,0,1,1,2.59,6.13,4.44,4.44,0,0,1-3.48-.27,3.13,3.13,0,0,1-1.58-2.75A3.27,3.27,0,0,1,372.61,454Z"/><path d="M436.6,405.13a1.18,1.18,0,0,1,.19-.11l.64-.28h0a2.75,2.75,0,0,1,2.18.22,2.62,2.62,0,0,1,1.2,3,2.87,2.87,0,0,1-4.25,1.67A2.59,2.59,0,0,1,436.6,405.13Z"/><path d="M367.07,393.55a2.93,2.93,0,0,0,0,2.87,2.48,2.48,0,0,0,3.85.54,2.52,2.52,0,0,0,.71-.74,2.7,2.7,0,0,0,0-2.67A2.66,2.66,0,0,0,367.07,393.55Zm3.53,3.62h0Z"/><path d="M385.44,407.81a4.21,4.21,0,0,1,1.62-.51,1.72,1.72,0,0,1,1.44.67,1.62,1.62,0,0,1,0,2.72,1.69,1.69,0,0,1-1.44.67,4,4,0,0,1-1.62-.51A1.77,1.77,0,0,1,385.44,407.81Z"/><path d="M210.44,358.32a4.29,4.29,0,0,1,4.08,3.11,5,5,0,0,1-.06,2.8,3.85,3.85,0,0,1-.86,1.59s0,0,0,0a3.63,3.63,0,0,1-.49.47,4.14,4.14,0,0,1-.55.38l0,0a3.86,3.86,0,0,1-.72.32h0l-.2.08c-.15,0-.3.05-.46.08l-.19,0a3.46,3.46,0,0,1-.46,0,3.39,3.39,0,0,1-.45,0l-.2,0c-.15,0-.3,0-.45-.08l-.21-.08h0a3.35,3.35,0,0,1-.72-.32l-.05,0a3.58,3.58,0,0,1-.55-.38,3.63,3.63,0,0,1-.49-.47s0,0,0,0a3.73,3.73,0,0,1-.86-1.59,4.94,4.94,0,0,1-.06-2.8A4.29,4.29,0,0,1,210.44,358.32Z"/><path d="M192.22,352.68a3.73,3.73,0,1,1,3.73,3.73A3.77,3.77,0,0,1,192.22,352.68Z"/><path d="M192.85,370.48a4,4,0,0,1,.37,4.73,4.11,4.11,0,0,1-3.63,2.08A4.82,4.82,0,0,1,186.4,376a4.31,4.31,0,0,1,0-6C188.1,368.25,191.52,368.3,192.85,370.48Z"/><path class="cls-1" d="M202.58,74.4c-.79,4.92-13.05,181.83-9.62,187.2s15.08,7,17.81,2.51S240.14,75.5,238,71,204.22,64.23,202.58,74.4Z"/><path class="cls-1" d="M216.28,51.5c10.46,2.58,17.79-3.83,18-11.81.18-8.67-11.37-34,1.56-37.85,0,0-13.49-3-21.83,11.49C205.85,27.53,206.09,49,216.28,51.5Z"/><path d="M78.7,95.14c0,1.74,12.72,193.8,18,200,2.77,3.23,7.77,4.38,11.53,4.38,5,0,8.85-1.82,10.11-4.77s1.82-51.77,2-87.62c10.85,5.53,21.57,11.3,31.83,17.89,5.78,3.71,11.21,7.9,16.82,11.85l.09.07,2.13,1.51c6.54,4.47,13.31,8.56,19.67,13.28,0,6,.26,9.8.8,10.64,2.55,4,8.34,5.81,12.64,5.81,3.6,0,6.39-1.21,7.67-3.33,2.3-3.78,15.09-93.3,15.64-97.1,2-13.7,4.39-31.08,6.54-47.37a6.74,6.74,0,0,0,5.64,3.09c5.64.07,4.89-8.95,5-12.43.11-5.65-.1-11.29.36-16.93.31-3.82,1-7.59,1.32-11.4.51-6.38.32-13.2-5.26-17.3-4.9-3.59-11.08-5.48-16.95-6.71-1.11-.24-2.22-.45-3.35-.65-.05-1.54,0-3.08,0-4.62a14.94,14.94,0,0,0,11.91-5.54c3.19-4,3.17-8.94,2.19-13.7-1.21-5.88-3-11.68-3.66-17.66-.5-4.83-.75-11.39,4.82-13.28,1.29-.45,1.51-2.52,0-2.85C224.45-2.1,214.82,7.13,210.5,17.13c-3.94,9.14-8.17,31.43,5,35.67a1.8,1.8,0,0,0,.35.12,21.9,21.9,0,0,0,2.36.39c-.07,1.44-.09,2.88-.06,4.31A55.08,55.08,0,0,0,205.84,57c-2.65.2-7.67.47-8.41,3.8a2.11,2.11,0,0,0-.05.35.43.43,0,0,0,0,.05,55,55,0,0,0-.39,8.51c.23,6.15,1.1,12.3,1,18.47-.12,5.21-1.41,10.17-2.65,15.2-1.74,7-4.59,18,.12,24.63a7,7,0,0,0,1.73,1.74c-.13,2-.27,4-.4,6-11.65,8.79-24.84,14.85-38.12,20.75-12.43,5.52-24.85,11.7-38.17,14.63,0-36.94-.45-83-2.19-85.6-1.53-2.29-6.91-2.77-11.16-2.77C96.22,82.73,78.88,86.09,78.7,95.14Zm98.6,133.79c-5.23-12-8.48-24.62-7-38.23,0-.07,0-.1,0-.16,3.56-.26,7.12-.48,10.69-.64A91.73,91.73,0,0,0,177.3,228.93Zm12-40.29c-2.81.06-5.63.14-8.44.27h0c-2.64-5.49-.72-13.5.68-19.12a77.47,77.47,0,0,1,4.93-14c-.45,2.67-.8,5.34-1,8C184.69,172,185,181.41,189.32,188.64ZM166,181.09c1-6.74,5.64-12.42,9.79-17.59,3.7-4.62,7.33-10,12-13.7-.21.78-.41,1.56-.58,2.35,0,0,0,0-.05,0a82,82,0,0,0-7.24,20.17c-1.15,5.09-2.22,11.65-.07,16.61-3.22.16-6.43.35-9.64.59A60.89,60.89,0,0,1,166,181.09Zm-2.37-3.41a.46.46,0,0,0,.14.33c.38,1.11.81,2.2,1.25,3.28a.55.55,0,0,0,.1.27,60.85,60.85,0,0,0,4,8.08c-1.93.15-3.86.28-5.78.45-3.31-4.09-4.87-9.23-6.49-14.15-.51-1.55-1-3.12-1.46-4.68,2-1.09,3.93-2.24,5.79-3.44a65.39,65.39,0,0,0,2.42,9.74Zm-30.9,10.7c2.41-.39,4.83-.61,7.25-.77a25.44,25.44,0,0,0-.33,4.93c-6.4.72-12.8,1.47-19.2,2.17,0-1.4,0-2.76,0-4.07C124.52,189.82,128.6,189.05,132.71,188.38Zm-12.26-3.09,2-.77c3.81-1.49,7.68-2.84,11.54-4.19,2,2,4.48,3.76,6,6.26-1.9.13-3.8.3-5.69.57-4.63.66-9.22,1.53-13.81,2.46C120.45,188.21,120.45,186.77,120.45,185.29ZM135,180l2.37-.82.71-.26c2.67,2.47,5.65,4.72,8.21,7.34-1.76.1-3.52.19-5.28.3,0,0,0-.05,0-.07C139.6,183.81,137.13,182,135,180Zm9.73,12-4.12.46a22.21,22.21,0,0,1,.36-4.89l5.85-.35A23.34,23.34,0,0,0,144.74,192Zm3.24-4.86c2-.15,4-.34,5.92-.65a52.55,52.55,0,0,0,3.46,4.21q-5.78.56-11.54,1.18A28.89,28.89,0,0,1,148,187.11Zm-8.89-8.58c1.3-.47,2.6-1,3.91-1.49a30.87,30.87,0,0,0,3.54,8C144.21,182.77,141.53,180.74,139.09,178.53Zm4.82-1.85c1.39-.57,2.76-1.17,4.13-1.79a36.5,36.5,0,0,0,5.23,10.67c-1.63.24-3.26.4-4.9.53A31.12,31.12,0,0,1,143.91,176.68Zm5-2.19c1.89-.87,3.75-1.8,5.58-2.77.44,1.5.91,3,1.39,4.48,1.56,4.86,3.19,9.89,6.3,14-1.22.1-2.44.23-3.65.35,0,0,0,0,0-.06A39.73,39.73,0,0,1,148.94,174.49Zm20.43,16.12s0,0,0,.09,0,.09,0,.14-.05,0-.07.06c-3.44,6.87-4.23,14.36-4.28,21.91-1.4-.55-2.81-1.06-4.23-1.55-3.43-5.35-5.44-13.52-3-19.52a.27.27,0,0,0,0-.13Q163.56,191.06,169.37,190.61Zm-10.12,20.14c-8-2.69-16.15-4.78-24.22-7.17l-.16-.05a44.93,44.93,0,0,1,4-9.91q8.92-1,17.87-1.91C154.44,197.56,156.11,205.29,159.25,210.75Zm-25.15-8.11a24.65,24.65,0,0,1-1.74-8.27s0,0,0,0l5.32-.6A45.51,45.51,0,0,0,134.1,202.64Zm-.89.41-3.35-1a12.85,12.85,0,0,0-.4-3,24.86,24.86,0,0,0-1.21-4.31c1-.12,2.09-.23,3.13-.36A25.74,25.74,0,0,0,133.21,203.05Zm-4.36-1.23c-1-.26-1.95-.51-2.93-.75a43.64,43.64,0,0,1-2-5.77l3.33-.37C128,196.76,129.17,199.79,128.85,201.82Zm-4.11-1-.69-.17s0,0,0-.06a54.63,54.63,0,0,1-3.6-4.7v-.14l2.52-.28A39.06,39.06,0,0,0,124.74,200.77Zm-2.19-.5-2.13-.45v-2.2C121.1,198.53,121.84,199.39,122.55,200.27Zm4.36-29.87a.5.5,0,0,0-.06.49c1.45,3.36,4,6,6.29,8.75q-4.75,1.73-9.52,3.38c-1.07.38-2.12.78-3.17,1.19,0-3.87,0-7.94,0-12.13Q123.72,171.35,126.91,170.4Zm4.51-1.42a.4.4,0,0,0,0,.27,21,21,0,0,0,5.9,8.88l-.18.07c-1,.36-1.94.7-2.91,1.06a.39.39,0,0,0-.25-.06c0-.06,0-.13,0-.18-2.29-2.74-4.77-5.31-6.2-8.63,0-.1-.12-.12-.19-.16C128.82,169.83,130.12,169.42,131.42,169Zm11.28,7c-1.49.6-3,1.18-4.44,1.75a20.54,20.54,0,0,1-5.92-8.78.41.41,0,0,0-.21-.25q5.15-1.78,10.18-3.94A28.2,28.2,0,0,0,142.7,176Zm5.05-2.16c-1.37.61-2.74,1.21-4.12,1.78a26.93,26.93,0,0,1-.27-11.28c1.27-.55,2.55-1.09,3.82-1.65A28.61,28.61,0,0,0,147.75,173.85Zm4.54-13.44a53.16,53.16,0,0,0,1.94,10.3q-2.73,1.44-5.57,2.73a27.64,27.64,0,0,1-.43-11.21Zm8.72,6.35c-1.89,1.24-3.87,2.4-5.9,3.49A51.17,51.17,0,0,1,153.23,160l2.77-1.25,4.15-1.88A71.12,71.12,0,0,0,161,166.76Zm13-16.36c-5.85,6.21-9.58,15.71-10.27,24.23a68.61,68.61,0,0,1-2.6-17.91.44.44,0,0,0-.11-.26C165.38,154.49,169.72,152.49,174,150.4Zm17.07-9.54a46.87,46.87,0,0,0-2.86,7.39s-.05,0-.07,0c-5.22,3.78-9,9.55-13.07,14.52s-8.31,10.31-9.75,16.59c-.25-.65-.5-1.3-.72-2,0-9.82,4.6-21.8,12.1-28.26,0,0,0-.08.06-.12A155.79,155.79,0,0,0,191.07,140.86Zm5.59-3.86c-1.1,16.52-2.23,34.49-3.2,51.54l-3,.07c-4.6-7.22-4.63-16.55-4-24.81.61-8.05,2.34-16.78,6.22-24h0Q194.69,138.48,196.66,137Zm16.62-97.94c-.08,4.28,1.55,8.06,5.43,9.18-.09.7-.18,1.41-.25,2.12a15.83,15.83,0,0,1-1.79-.28c-5.56-1.61-6.86-8.75-6.95-13.74a43.28,43.28,0,0,1,4.16-19.58C217.2,10,223.56,3.47,231.33,3c-5.05,5.29-2.83,15.57-1.35,22.14,1,4.57,3.11,9.83,2.83,14.57-.42,6.87-5.62,10.46-11.61,10.76.07-.64.15-1.26.23-1.9,3.65-.25,8.12-1.81,7.84-6.22-.18-2.73-1.44-5.51-2.26-8.08a53.08,53.08,0,0,1-2.72-12.11,1.5,1.5,0,0,0-2.52-1.05C217,25.5,213.4,32.48,213.28,39.06ZM231.34,90.7c0,2.72-.2,5.44-.34,8.16,0,.45,0,.92-.05,1.38a165.47,165.47,0,0,1-22.25,13.51c.21-1.88.38-3.77.56-5.65.49-5.22,1-10.59,2.43-15.64.16-.54,1.27-4.64,2.24-4.24,2.19.9,1.9,4,2.07,5.86.27,3,2.42,11.31,7.15,7.38,4.17-3.47,1.62-10.62,3.19-15.1,1-3,3.78-.58,4.34,1.22A10.87,10.87,0,0,1,231.34,90.7Zm-1.05,36.67a165.43,165.43,0,0,1-31.38,18.89c.33-5.39.67-10.66,1-15.77,2.34-.19,4.61-2.22,6-4.68a186.44,186.44,0,0,0,25.48-14.13c.15,1,.34,2.11.59,3.21C231.43,118.84,230.88,123,230.29,127.37Zm-4.09,29.7a162.65,162.65,0,0,1-29,17.77c.34-5.89.69-11.82,1-17.69a192.29,192.29,0,0,0,30.25-16.57Q227.41,148.51,226.2,157.07Zm-4.28,29.85a159.86,159.86,0,0,1-26.25,16.4c.29-5.67.6-11.56.93-17.55a187.79,187.79,0,0,0,27.72-15.42C223.51,176,222.7,181.55,221.92,186.92Zm-4.49,30a158.12,158.12,0,0,1-23.06,14.67c.21-5.3.47-11.11.76-17.3A185.09,185.09,0,0,0,220,200.25C219.08,206.09,218.24,211.67,217.43,216.93ZM203,265.18c2.41-1.44,4.79-2.93,7.13-4.49a18.13,18.13,0,0,1-.69,2.71c-.69,1.14-2.62,1.85-5.12,1.85C203.92,265.25,203.48,265.22,203,265.18Zm-9-22.59a183.71,183.71,0,0,0,21.36-12.31c-1,6.45-1.94,12.13-2.74,16.91A154.12,154.12,0,0,1,194,259.33C193.73,256.61,193.77,250.69,194,242.59Zm-6.43,5.56a.42.42,0,0,0,0-.35c-3.3-9.05-3.31-18.76-2.92-28.27a115.58,115.58,0,0,1,5.27-29.92l3.46-.08c-1.4,24.9-2.45,47.73-2.48,61C189.81,249.73,188.69,248.93,187.57,248.15ZM186,246.1c-2.55-4.53-5-9.12-7.18-13.79-2.61-13.56-1.05-29.49,3.18-42.47,2.3-.1,4.59-.15,6.9-.21a121.37,121.37,0,0,0-5.22,29.9C183.21,228.39,183.35,237.57,186,246.1Zm-20-27.86c-.25-8.32-.11-16.79,3.06-24.54-.83,13.83,3.06,26.65,8.79,38.91,0,.12,0,.24.06.36a.37.37,0,0,0,.25.31c2.1,4.44,4.43,8.8,6.86,13.11-2.94-2-5.92-3.91-8.89-5.85-2.22-1.44-4.39-3-6.55-4.49C166,231.13,166.21,224.08,166,218.24Zm-7.55,9.86a.41.41,0,0,0,.2-.37,81.89,81.89,0,0,1,2.13-15.33s0-.05,0-.08c1.4.49,2.79,1,4.17,1.54,0,.93,0,1.87,0,2.8.12,5.64-.14,12.61,2.54,17.9C164.52,232.39,161.52,230.23,158.48,228.1Zm-13.34-8.64a60.94,60.94,0,0,0,7.79-9.47.36.36,0,0,0,.08-.18q3.48,1,6.92,2.22c0,.05-.07.06-.08.11a84.45,84.45,0,0,0-2.15,15.42l-2-1.42C152.23,223.81,148.71,221.6,145.14,219.46ZM143,218.23s0,0,0,0c2.15-2.9,3.35-6.34,5.44-9.27a.4.4,0,0,0,0-.43c1.18.33,2.35.68,3.53,1a60.55,60.55,0,0,1-7.68,9.3s0,.1-.06.15Zm-11.55-6.45c.54-2.55,1.8-4.83,2.81-7.22,0-.06,0-.11,0-.18l.48.15c4.33,1.31,8.69,2.52,13,3.75a.49.49,0,0,0-.16.16c-2.09,2.92-3.29,6.36-5.44,9.26l0,0C138.65,215.69,135.07,213.71,131.47,211.78Zm-5.07-2.67a45.64,45.64,0,0,1,3.14-6.1c1.29.36,2.58.73,3.86,1.11a44,44,0,0,0-2.82,7.18Zm-6-3.08c0-1.78,0-3.53,0-5.24,1.63.34,3.24.7,4.85,1.1a.55.55,0,0,0,.46.11c.94.24,1.89.48,2.83.74,0,0,0,0,0,0a47.14,47.14,0,0,0-3,5.88C123.82,207.77,122.11,206.9,120.39,206Z"/><path class="cls-1" d="M102.66,73.42c-11,3.4-19.17-3-19.9-11.43C82,52.78,92.71,25.14,78.7,21.82c0,0,14.17-4.06,24,10.84C112.24,47.25,113.35,70.1,102.66,73.42Z"/><path class="cls-1" d="M82.66,112a186.65,186.65,0,0,0,32.76-25.08,1.4,1.4,0,0,1,.34.22c.12.44.41,2.18.72,8.79a205,205,0,0,1-33.26,24.3C83,117.22,82.83,114.47,82.66,112Z"/><path class="cls-1" d="M84.82,142.68a181.41,181.41,0,0,0,32.25-25.4c.05,3.16.1,6.5.15,10a201.26,201.26,0,0,1-31.79,23.64C85.22,148.11,85,145.35,84.82,142.68Z"/><path class="cls-1" d="M87.12,173.26A178.58,178.58,0,0,0,117.42,149c0,3.31,0,6.69,0,10.13a198.28,198.28,0,0,1-29.71,22.4C87.54,178.75,87.33,176,87.12,173.26Z"/><path class="cls-1" d="M89.53,203.73a175.33,175.33,0,0,0,28-22.77c0,3.38,0,6.79,0,10.19A195.71,195.71,0,0,1,90.21,212C90,209.27,89.76,206.5,89.53,203.73Z"/><path class="cls-1" d="M92.11,234.05a176.19,176.19,0,0,0,25.3-20.94c0,3.45,0,6.86-.07,10.22a195.3,195.3,0,0,1-24.48,19C92.61,239.65,92.36,236.87,92.11,234.05Z"/><path class="cls-1" d="M95.85,272.39c-.29-2.59-.59-5.36-.89-8.29a173.94,173.94,0,0,0,22.16-18.65c0,3.55-.09,7-.14,10.26A191.92,191.92,0,0,1,95.85,272.39Z"/><path class="cls-1" d="M106.67,296.5c-3.33-.3-6.17-1.51-7.67-3.26h0v-.05a168.94,168.94,0,0,0,17.52-15.08c-.13,4.33-.26,7.82-.4,10.42C113.08,291.28,109.91,294,106.67,296.5Z"/><path class="cls-1" d="M121.83,82.64c1.9,9.48.36,19.16,1.1,28.74.74,11.8,7.74,22.12,7,34.65-.36,5.16-2.21,12.16-8.47,7.37-3.32-3-4.8-11.79-5.53-16.22-.74-3.68-4.42-36.12-11.43-23.59-1.1,2.21,1.11,12.54-4,12.54-4.42-.37-3.32-13.64-5.16-16.22-4.79-5.53-7.74,1.47-7.74,6.27C87.92,122.07,89,127.6,89,133.5c0,4.05,0,14.37-5.53,16.22C77.6,151.56,78,142,77.6,137.92a187.3,187.3,0,0,0-1.85-20.27c-1.1-6.27-4.44-18.54,0-24.33C84.23,82.27,120.61,76.6,121.83,82.64Z"/><path d="M73,111.22a231.47,231.47,0,0,1,3.22,28.53c.25,4.2.5,12.12,6.52,11.61,6.23-.52,7.42-9.08,7.65-13.88a82.12,82.12,0,0,0-.59-13.3c-.47-4.15-2-9.91.65-13.67,2-2.85,3.94.63,4.24,2.56.23,1.53.37,3.08.57,4.63.31,2.45.49,5.32,1.79,7.49,2.7,4.55,7.58,1.67,8.18-2.72.35-2.48-.34-5.84.55-8.17.53-1.38,1.71-2.87,2.76-1.22,2.63,4.13,3.43,9.65,4.3,14.39.74,4.11,1.28,8.25,2,12.36,1.08,5.93,2.38,15,9.43,16.56,6.32,1.42,7.28-8.9,7.14-12.84-.37-9.77-4.85-18.42-6.51-27.91-1.91-10.92.28-22.09-1.65-33a1.63,1.63,0,0,0,0-.36,1.47,1.47,0,0,0-.24-.58c-1.94-4.13-10.54-3-13.88-2.7-2.71.28-5.42.68-8.11,1.2-.06-1.59-.18-3.18-.35-4.77a22.7,22.7,0,0,0,2.38-.55,2.06,2.06,0,0,0,.33-.13c13.57-5.2,8.1-28,3.52-37.45-5.1-10.56-16-20.35-28.59-16.87a1.49,1.49,0,0,0,0,2.85c6.15,1.67,6.45,8.78,6.11,14.09C84,43.67,82.54,49.82,81.69,56.1,81,61.3,81.12,66.63,85,70.74a16,16,0,0,0,12.82,5c.19,1.69.31,3.39.36,5.07A75,75,0,0,0,90,83.14c-5.11,1.82-11,4.12-14.62,8.3C70.71,96.8,71.85,104.74,73,111.22Zm27.26-38.8c-.24-1.59-.54-3.15-.87-4.71,4-2,5.08-6.69,4.24-11.44-1.09-6.14-6.06-11.49-10.93-15.06a1.48,1.48,0,0,0-2.22,1.27,52.26,52.26,0,0,1-1.27,12.34c-.52,2.62-1.5,5.59-1.36,8.29.24,4.56,4.88,5.71,8.72,5.44.29,1.35.55,2.73.77,4.1-6.54,0-13-3.51-13.16-11.1-.11-5.3,1.39-10.64,2.19-15.85,1.07-6.94,2.76-17.93-3-23.05,8.64,0,16.25,6.8,20.07,14.26a45.66,45.66,0,0,1,5.34,21.27c-.1,5-1.05,11.89-6.52,13.82A19,19,0,0,1,100.28,72.42ZM75.07,99.85c.77-7.26,7.28-10.65,13.49-13a97.33,97.33,0,0,1,9.56-3A92.34,92.34,0,0,1,108.41,82c1.73-.18,11.27-1.54,12,1,2,10.67-.36,21.59,1.5,32.24,1.59,9.11,6.22,17.74,6.56,27.06.08,2.1.44,10.6-2.87,11.15-4.24.69-6-6-6.7-9-1.06-4.29-1.68-8.65-2.37-13a95.37,95.37,0,0,0-3.23-15c-.84-2.51-2.17-7-5.39-7.26s-5.15,3.9-5.23,6.58c-.06,2.14.63,6.93-1.25,8.45-2.28,1.84-3.07-5.54-3.19-6.61-.43-3.65-.76-12.52-6.87-11.24-7.57,1.6-4.86,14.15-4.34,19a68.35,68.35,0,0,1,.39,12.79c-.24,2.83-.73,9.15-4.31,10-3.95,1-3.76-6.06-3.91-8.54-.27-4.67-.49-9.35-.94-14C77.42,117.31,74.17,108.33,75.07,99.85Z"/><path class="cls-1" d="M366.55,176.66c15.7,20,12.5,48.72-7.15,64.13s-48.29,11.69-64-8.32-12.5-48.71,7.15-64.13S350.85,156.65,366.55,176.66Z"/><path d="M358.05,173.57a27.46,27.46,0,1,1-38.55-4.65A27.47,27.47,0,0,1,358.05,173.57Z"/><path d="M301.15,166.54c-20.59,16.17-24,46.36-7.51,67.33s46.58,24.88,67.17,8.72,24-46.36,7.51-67.32S321.74,150.39,301.15,166.54ZM367.49,231c-.07-.44-.13-.87-.17-1.31a11.4,11.4,0,0,0,2.12-3.51c.32-.63-.7-1-1-.41s-.69,1.62-1.16,2.34a15.15,15.15,0,0,1,.11-2.21,8.5,8.5,0,0,0-1.61-6.77.55.55,0,0,0-.86.67,6.88,6.88,0,0,1,1.51,3.5,23.52,23.52,0,0,1-.31,4.1v0a15,15,0,0,1-2.08-4.82c-.16-.69-1.25-.54-1.09.15a17.15,17.15,0,0,0,3.18,6.6,19.74,19.74,0,0,0,.43,3l-.24.29a10.64,10.64,0,0,0-1.88-1.21c-2.42-1.22-5.45-1.86-6.87-4.41-.34-.61-1.36-.2-1,.42,1.13,2,3,3.06,5.07,4,.66.29,1.33.57,2,.89a13.29,13.29,0,0,1-4.32.78c-.71,0-.55,1.11.15,1.09a12.72,12.72,0,0,0,5.39-1.22,9.73,9.73,0,0,1,.81.57,43.48,43.48,0,0,1-33.36,15.91,28.33,28.33,0,0,1,2.94-6.41,14,14,0,0,0,1.66-6.85c0-1.47-.16-3-.3-4.47a.3.3,0,0,0,0-.1c.43-1.42,1.52-2.45,2.33-3.66a8.36,8.36,0,0,0,1.41-3.9.55.55,0,0,0-1.09-.13,8.12,8.12,0,0,1-1.7,4.08c-.38.53-.79,1-1.14,1.55-.14-2.77.09-5.49,1.73-7.94.4-.59-.49-1.25-.88-.66-2.81,4.18-1.87,9-1.55,13.68a14.58,14.58,0,0,1-1.53,8c-.32.62-.64,1.22-1,1.83a20.93,20.93,0,0,0,.69-4,7.62,7.62,0,0,0-.1-1.51,17.67,17.67,0,0,0,1.54-2.66c.31-.65-.71-1-1-.42a17.22,17.22,0,0,1-.85,1.59,38.83,38.83,0,0,1-1.36-4.72.55.55,0,0,0-1.09.15c.4,2.67,1.88,5.11,1.77,7.86a17.59,17.59,0,0,1-.59,3.43,16.61,16.61,0,0,0-2.76-8.05c-3.81-5.35-13.39-8.51-11.09-16.55.19-.68-.83-1.09-1-.41-1.86,6.55,3.13,10.12,7.51,13.88a16.14,16.14,0,0,1-3.09-.55,10.42,10.42,0,0,1-4.33-3.45c-.45-.55-1.32.13-.86.68a14.16,14.16,0,0,0,4,3.43c1.75,1,3.86.79,5.76,1.24l.1,0q.72.66,1.35,1.35c3.11,3.41,3.72,8.45,3.4,12.88l-.06.77a45.27,45.27,0,0,1-25.14-8.16c1.35-2.45,3.2-4.76,3-7.73-.05-.71-1.15-.55-1.09.16.2,2.59-1.41,4.65-2.68,6.75l-.09.16a45.88,45.88,0,0,1-15.49-20.14,18.2,18.2,0,0,0,4-4.87,34.88,34.88,0,0,0,5.06,1.79s0,0,0,0a12.28,12.28,0,0,0,3.66,3.41c.61.35,1.27-.53.65-.89a10.55,10.55,0,0,1-2.8-2.39,6,6,0,0,0,3.53-1.17c.58-.4-.1-1.27-.68-.86-2.75,1.94-5.5.51-8.22-.63.44-.3.86-.65,1.3-1a6.45,6.45,0,0,1,3.16-1.18.55.55,0,0,0-.15-1.09,8,8,0,0,0-2.93.92,14.76,14.76,0,0,0-1.65,1.2c.92-2.06,1.53-4.25,2.44-6.33,1.18-2.71,3.35-4.32,5.78-5.85.59-.38-.09-1.24-.68-.86a16.15,16.15,0,0,0-5.21,4.58,29.81,29.81,0,0,0-2.52,6,23.7,23.7,0,0,1-3.39,6.33,13.21,13.21,0,0,1-1.75,1.83c-6.51-17.76-1.45-38.28,14-50.37,19.22-15.08,47.37-11.41,62.73,8.17A45.56,45.56,0,0,1,374.39,195c-1.07-.8-2.18-1.56-3.31-2.29-.58-.39-1.25.5-.65.89,1.49,1,2.94,2,4.31,3.07A44.69,44.69,0,0,1,367.49,231Z"/><path class="cls-1" d="M345.88,198.47c.82,1.12,1.67,2.22,2.54,3.3,1.8,2.24,3.79,4.34,5.72,6.47l.72.82c.4-.39.78-.8,1.15-1.21-.23-.19-.43-.39-.63-.59-2.06-2-4.12-4.06-6.08-6.19-.95-1-1.82-2.1-2.65-3.2l-.35.29C346.17,198.27,346,198.37,345.88,198.47Z"/><path class="cls-1" d="M326.89,178.78c-3.24-1.59-6.34-3.47-9.6-5.05l-.6-.3c-.32.35-.62.73-.91,1.1,2.75,1.34,5.41,2.86,8.12,4.35,1.18.64,2.47,1.21,3.79,1.78a9.6,9.6,0,0,1,.84-1.09Z"/><path class="cls-1" d="M335.34,200.56c-.94,1.86-1.84,3.73-2.64,5.67a65.54,65.54,0,0,0-3.22,9.48,28,28,0,0,0,3.25.67c.92-3,1.57-6.2,2.57-9.13.74-2.13,1.52-4.25,2.29-6.36A13.13,13.13,0,0,1,335.34,200.56Z"/><path class="cls-1" d="M323.86,180.51c-3-1.49-6-3-9.07-4.34l-.14-.06c-.38.58-.75,1.17-1.08,1.78,3.23,1.34,6.39,2.82,9.6,4.37,1,.48,2,.9,3,1.31a13.55,13.55,0,0,1,.73-1.65Q325.38,181.25,323.86,180.51Z"/><path class="cls-1" d="M333.71,175.15c-1.29-2.78-2.6-5.58-3.73-8.42-.18-.45-.31-.93-.46-1.41-.68.19-1.35.41-2,.65.82,2.16,1.58,4.29,2.58,6.43.66,1.42,1.37,2.84,2.08,4.24a12.29,12.29,0,0,1,1.85-.83C333.91,175.59,333.81,175.37,333.71,175.15Z"/><path class="cls-1" d="M361.26,182.3c-.08-.24-.17-.49-.26-.73-1.16.5-2.31,1-3.48,1.48-2.15.89-4.32,1.73-6.5,2.55,0,.15.06.29.08.43C354.49,184.81,357.88,183.58,361.26,182.3Z"/><path class="cls-1" d="M328,195.69c-4.41,3.16-8.7,6.46-12.78,10,.11.16.24.33.37.5,4.07-3.22,8.3-6.21,12.56-9.18l.59-.41c-.18-.21-.37-.42-.53-.64S328,195.78,328,195.69Z"/><path class="cls-1" d="M341.08,175.37c.06-.38.11-.75.17-1.13.46-3,.87-6.07,1.62-9-.5-.13-1-.24-1.49-.33-.07.26-.13.52-.19.8-.68,3.09-1.14,6.2-1.58,9.33a.68.68,0,0,1,0,.14A12.16,12.16,0,0,1,341.08,175.37Z"/><path class="cls-1" d="M349.38,175.83c1.42-1.67,2.87-3.3,4.33-4.92-.41-.36-.82-.71-1.25-1-2.16,2.56-4.26,5.19-6.29,7.85.32.24.63.52.94.79Z"/><path class="cls-1" d="M357,178.19l1.82-1.21a26.57,26.57,0,0,0-1.74-2.54l-2.34,1.66q-3,2.09-5.93,4.31a12.59,12.59,0,0,1,1.36,2.34C352.42,181.22,354.69,179.69,357,178.19Z"/><path class="cls-1" d="M321,204.28l-4.09,3.6a25.3,25.3,0,0,0,2,2c1.21-1.22,2.41-2.45,3.63-3.65,2.65-2.62,5.21-5.37,7.81-8.08a12,12,0,0,1-1.25-1.12C326.39,199.45,323.72,201.9,321,204.28Z"/><path class="cls-1" d="M335.92,209.36c-.63,2.4-1.26,4.78-1.85,7.18a26.31,26.31,0,0,0,3.44.09c.44-2.18.92-4.35,1.3-6.53a70.41,70.41,0,0,0,1-9.27,13.22,13.22,0,0,1-1.89.07C337.32,203.72,336.68,206.52,335.92,209.36Z"/><path class="cls-1" d="M322.24,188.48c-3.92,0-7.88-.26-11.81-.35-.05.64-.1,1.27-.11,1.9,2.38,0,4.78-.07,7.14-.09,2.7,0,5.38-.11,8.07-.21a11.59,11.59,0,0,1-.11-1.3Z"/><path class="cls-1" d="M355.62,199.19c1.56.66,3.16,1.26,4.76,1.83.25-.55.46-1.12.67-1.69-1.95-.7-3.86-1.44-5.72-2.1-2-.73-4.05-1.54-6-2.4a12.29,12.29,0,0,1-.78,1.11C350.84,197.1,353.21,198.19,355.62,199.19Z"/><path class="cls-1" d="M340.59,202.55c.59,4.48,1.07,9,1.79,13.42q.44-.09.87-.21c-.35-4.17-.51-8.36-.86-12.53-.08-.95-.15-1.93-.21-2.91a12,12,0,0,1-1.86.44C340.42,201.36,340.51,202,340.59,202.55Z"/><path class="cls-1" d="M351,190.52c2.05.12,4.11.25,6.16.39,1.8.12,3.6.22,5.41.35,0-.68,0-1.37,0-2-2.05,0-4.11,0-6.15-.07-1.73,0-3.46,0-5.2,0A11.36,11.36,0,0,1,351,190.52Z"/><path class="cls-1" d="M320.79,192.74q-5,1.39-10,3c.12.57.25,1.14.41,1.71,3.05-1,6.13-2,9.22-2.94a59.46,59.46,0,0,0,5.71-2.13,11.61,11.61,0,0,1-.39-1.27C324.13,191.7,322.47,192.27,320.79,192.74Z"/><path class="cls-1" d="M330.68,193.22l0,0a3.56,3.56,0,0,0,5.4-4.24,3.72,3.72,0,0,0-2.86-2.16h0a3.55,3.55,0,0,0-2.53,6.38Z"/><path class="cls-1" d="M342.08,190l0,0a2.08,2.08,0,1,0-2.57-3.26l0,0a2.08,2.08,0,1,0,2.57,3.27Z"/><path class="cls-1" d="M296,332.39c-12.83,0-25.09-3.89-36.49-11.56a69.73,69.73,0,0,1-32.82,8.36c-1.24,0-2.5,0-3.74-.11-17.5-1-24.36-8-26.47-10.81a93.05,93.05,0,0,1-20.23,2.3c-16.34,0-36.71-4.93-41.84-28.21-3-.61-9.87-3.18-12.51-14-1.51-6.21-.43-12.19,3.07-16.84,3.6-4.81,9.35-7.78,16.32-8.5-.37-5.55,1-21.16,27-27.71,11.59-2.93,20.76-3.51,28.86-4,12.9-.82,22.23-1.42,32.68-11.5a199.9,199.9,0,0,1,19.52-16.4c7.25-5.5,13-9.85,19-17.79a19.52,19.52,0,0,0,2-20.82,1.73,1.73,0,0,1,1.51-2.58,1.88,1.88,0,0,1,.52.08c12.22,3.89,9.81,18.52,8.22,28.21-.39,2.38-.76,4.64-.88,6.4-.54,9.2,4.5,16.11,14.18,19.44a74.48,74.48,0,0,0,8.28,1.78c6.31,1.12,12.84,2.26,18.71,7.46s9.24,14.66,6,22.28c1.49-.1,3-.15,4.55-.15,24.43,0,49.74,11.8,50.83,34.34a44.17,44.17,0,0,1-12,32.32,36.88,36.88,0,0,1-26.76,11.61h0c-.45,0-.89,0-1.34,0-3.39,2.71-21.81,16.48-46.13,16.48Z"/><path d="M271.89,153.9c13.51,4.3,6.76,23.64,6.15,32.85-.62,10.44,5.52,17.81,15.34,21.18,9.22,2.77,18.42,1.84,26.41,8.9,6.14,5.53,9.21,16,4,23a61.25,61.25,0,0,1,7.69-.46c21.42,0,48,10,49.11,32.7.89,21.49-14.76,42.11-37.07,42.11-.64,0-1.28,0-1.92,0,0,0-19.48,16.5-45.55,16.5-11.26,0-23.74-3.07-36.42-11.88a67.68,67.68,0,0,1-32.9,8.68c-1.19,0-2.41,0-3.64-.11-20.88-1.22-25.79-11.05-25.79-11.05a90.27,90.27,0,0,1-21,2.54c-16,0-35.94-4.86-40.39-28,0,0-9.21-.3-12.28-12.89s5.52-22.72,19.65-23.33c0,0-4.91-20,25.48-27.64s44.82.92,62.32-16,27.81-20,38.68-34.38a21.39,21.39,0,0,0,2.15-22.72m0-3.46a3.47,3.47,0,0,0-2.68,1.28,3.43,3.43,0,0,0-.33,3.87A17.85,17.85,0,0,1,267,174.53c-5.87,7.75-11.51,12-18.66,17.45a202.39,202.39,0,0,0-19.67,16.53c-10,9.65-18.59,10.2-31.59,11-8.17.52-17.43,1.11-29.18,4.08-17.06,4.31-23.81,12.54-26.46,18.68a23.15,23.15,0,0,0-1.91,9.2c-6.73,1-12.29,4.16-15.91,9a21.45,21.45,0,0,0-3.36,18.29c2.58,10.56,9,13.94,12.74,15,2.53,10.31,8.28,18,17.12,22.78,7,3.82,15.81,5.75,26.17,5.75a95.81,95.81,0,0,0,19.58-2.11c3,3.47,10.55,9.65,27,10.62,1.27.07,2.56.11,3.84.11a72.14,72.14,0,0,0,32.73-8.07A66,66,0,0,0,296,334.12c23.83,0,42.14-12.92,46.71-16.46h.76a38.54,38.54,0,0,0,28-12.14A45.89,45.89,0,0,0,384,272c-1.14-23.65-27.31-36-52.56-36-.71,0-1.42,0-2.11,0,1.94-7.79-1.59-16.6-7.26-21.71-6.26-5.54-13-6.73-19.58-7.88a70.15,70.15,0,0,1-8.08-1.74c-5.15-1.79-13.62-6.45-12.95-17.69.11-1.65.47-3.87.86-6.21.85-5.21,1.82-11.11,1.15-16.52-.89-7.09-4.44-11.67-10.56-13.62a3.43,3.43,0,0,0-1.05-.16Z"/><path class="cls-2" d="M276.22,178.78s-8.45,10.34-6,23.79c3,16.29,23.56,14.39,33,28.62,5.77,8.64-9,36.84-9,36.84,21.19-6.25,25.66-22.31,25.66-22.31s24.28,15,3.57,44c-17.41,24.32-59.13,27.22-59.13,27.22,14.5,10.27,38.82,13.77,66.71-.66,25.83-13.38,29-41.5,21.66-55.34-10-18.88-30.58-19.64-30.58-19.64s3.34-17.52-9.83-24.66-25.49-5.22-32.65-13.06C270.1,193,276.22,178.78,276.22,178.78Z"/><path class="cls-2" d="M273.59,176.91s-12.9,16.1-11.29,27.88c2.08,15.2,17.81,21.58,22.35,31,6.92,14.39.89,35.38-30,40s-43.42-12.75-43.42-12.75,26-5.14,28.15-27.75c1.8-19.39,2.16-22.33,10.7-33.9S273.59,176.91,273.59,176.91Z"/><path class="cls-2" d="M237.73,208.38s-3.52,17.12-23,23.38-34.14,1.51-42.77,13.33c-2.7,3.69-1.85,15.74-1.85,15.74s-21.17-.47-23.77-7.69,5.17-21.18,27.76-24.84c22.18-3.58,29.74-.26,42.8-5.06C232.64,217.46,237.73,208.38,237.73,208.38Z"/><path class="cls-2" d="M291.12,270s-8.37,10.75-31.35,13.81-37,21.25-60.81,30.81c0,0-23,4.94-36.12,1.32s-21.24-11.41-25.23-24.83c0,0,8-9.16,33.07-8.76s57,0,81.12-1.46C276.89,279.39,291.12,270,291.12,270Z"/><path class="cls-1" d="M450.23,299.18c0,30.3-24.11,54.86-53.87,54.86s-53.86-24.56-53.86-54.86,24.12-54.86,53.86-54.86S450.23,268.88,450.23,299.18Z"/><path d="M444.53,290a32.71,32.71,0,1,1-32.71-32.72A32.71,32.71,0,0,1,444.53,290Z"/><path d="M396.36,241.6c-31.19,0-56.56,25.83-56.56,57.58s25.37,57.58,56.56,57.58,56.56-25.83,56.56-57.58S427.55,241.6,396.36,241.6Zm14.78,109.21c.25-.45.52-.9.81-1.34,1.66-.1,3.08-1.07,4.56-1.74.77-.34.1-1.48-.67-1.13a29.94,29.94,0,0,1-2.8,1.33,18.6,18.6,0,0,1,1.72-2,10.17,10.17,0,0,0,3.48-7.54.66.66,0,0,0-1.31,0,8,8,0,0,1-1.16,4.39,26.23,26.23,0,0,1-3.3,3.61v0a17.74,17.74,0,0,1,1.6-6.05c.36-.75-.78-1.42-1.14-.66a20.78,20.78,0,0,0-1.88,8.53,25.46,25.46,0,0,0-1.77,3.09l-.43.1a12.21,12.21,0,0,0-.88-2.52c-1.36-2.93-3.74-5.75-3.19-9.19.13-.82-1.13-1.18-1.27-.34-.42,2.72.59,5.08,1.86,7.42.4.76.83,1.52,1.21,2.29a15.57,15.57,0,0,1-4.63-2.44c-.69-.5-1.34.63-.67,1.13a15.15,15.15,0,0,0,6,2.83,7.58,7.58,0,0,1,.34,1.12,51.84,51.84,0,0,1-43-9.62c2.2-1.75,4.9-2.69,7.47-3.84a16.69,16.69,0,0,0,6.59-5.2c1.07-1.39,2-2.91,3-4.42l.11-.06c1.45-1,3.22-1.19,4.87-1.72a10,10,0,0,0,4.19-2.61c.59-.61-.34-1.55-.92-.93a9.7,9.7,0,0,1-4.6,2.57c-.75.22-1.49.38-2.21.61,1.91-2.7,4.12-5.08,7.47-6.17.8-.26.46-1.53-.35-1.26-5.71,1.86-8.35,7-11.51,11.69a17.31,17.31,0,0,1-7.32,6.37c-.74.34-1.5.67-2.25,1a25.54,25.54,0,0,0,3.57-3.24,9.9,9.9,0,0,0,1-1.49,22.7,22.7,0,0,0,3.41-1.37c.75-.38.08-1.51-.67-1.14a18.8,18.8,0,0,1-2,.86,46,46,0,0,1,2.19-5.43.65.65,0,0,0-1.12-.65c-1.59,2.8-2,6.17-4.13,8.67a20.72,20.72,0,0,1-3.07,2.77,19.79,19.79,0,0,0,3.32-9.57c.37-7.82-6.28-17.82,1.79-23.67.67-.49,0-1.63-.66-1.14-6.57,4.76-4.51,11.79-3.17,18.53a18.4,18.4,0,0,1-2.5-2.79c-1.23-1.85-1.44-4.25-1.51-6.41a.66.66,0,0,0-1.32,0,16.92,16.92,0,0,0,1.19,6.13c.93,2.2,3,3.58,4.49,5.41l.09.09c.11.75.21,1.51.26,2.24.42,5.49-2.72,10.67-6.28,14.58l-.63.69a54,54,0,0,1-17.55-26.15c3.06-1.3,6.49-2.11,8.45-5.05.48-.71-.66-1.37-1.13-.67-1.72,2.58-4.74,3.34-7.49,4.37l-.19.08a54.53,54.53,0,0,1,.29-30.27,21.79,21.79,0,0,0,7.35-1.61,42.21,42.21,0,0,0,3.43,5.4s0,0,0,0a14.42,14.42,0,0,0,.91,5.89c.31.78,1.59.44,1.26-.35a12.52,12.52,0,0,1-.85-4.31,7.1,7.1,0,0,0,4.16,1.51c.84,0,.84-1.27,0-1.31-4-.2-5.54-3.57-7.25-6.64.64.06,1.29,0,1.94,0a7.81,7.81,0,0,1,3.84,1.22.65.65,0,0,0,.66-1.13,9.48,9.48,0,0,0-3.42-1.3,22,22,0,0,0-2.44-.09c2.39-1.25,4.58-2.85,6.95-4.14,3.1-1.66,6.32-1.57,9.72-1.23.84.09.83-1.23,0-1.31a19.13,19.13,0,0,0-8.25.47c-2.47.83-4.6,2.44-6.79,3.78a27.82,27.82,0,0,1-7.85,3.45,15.07,15.07,0,0,1-3,.42c7-21.43,26.8-36.94,50.13-36.94,29.12,0,52.8,24.14,52.8,53.8a54.29,54.29,0,0,1-5,22.92c-.42-1.53-.9-3.06-1.42-4.58-.27-.79-1.54-.45-1.26.35.68,2,1.3,4,1.78,6.05A53.22,53.22,0,0,1,411.14,350.81Z"/><path class="cls-1" d="M414.81,304.42c-.05,1.66-.06,3.31,0,5,0,3.42.36,6.86.59,10.27l.09,1.3c.66-.07,1.31-.17,1.95-.29-.06-.34-.11-.68-.15-1-.44-3.41-.87-6.84-1.14-10.27-.13-1.67-.17-3.32-.14-4.95h-.53Z"/><path class="cls-1" d="M411.5,272c-1.87-3.89-3.39-7.93-5.29-11.8-.11-.24-.23-.48-.35-.73q-.84.16-1.65.36c1.58,3.28,3,6.67,4.41,10.05.63,1.47,1.42,2.95,2.24,4.45.52-.16,1.05-.29,1.59-.4C412.12,273.29,411.8,272.65,411.5,272Z"/><path class="cls-1" d="M403.4,298.63c-2.25,1.05-4.48,2.15-6.64,3.37a78.57,78.57,0,0,0-10,6.51,31,31,0,0,0,2.55,3c3.1-2.18,6-4.66,9.13-6.67,2.25-1.46,4.55-2.86,6.82-4.28A16.4,16.4,0,0,1,403.4,298.63Z"/><path class="cls-1" d="M407.38,271.39c-1.72-3.61-3.43-7.21-5.31-10.74l-.08-.16c-.79.26-1.57.55-2.33.87,2,3.64,3.92,7.35,5.79,11.16.58,1.18,1.21,2.31,1.87,3.45a16.42,16.42,0,0,1,1.9-1C408.59,273.78,408,272.6,407.38,271.39Z"/><path class="cls-1" d="M420.56,273.62c.83-3.56,1.66-7.15,2.69-10.65.17-.55.39-1.1.6-1.66-.76-.32-1.55-.6-2.35-.87-.82,2.63-1.68,5.19-2.32,7.92-.42,1.84-.8,3.67-1.17,5.51a14.18,14.18,0,0,1,2.35.59C420.42,274.18,420.5,273.89,420.56,273.62Z"/><path class="cls-1" d="M441.12,300.58l.3-.87c-1.46-.39-2.91-.77-4.35-1.18-2.67-.75-5.33-1.56-8-2.39-.08.15-.16.31-.25.46Q435,298.64,441.12,300.58Z"/><path class="cls-1" d="M400.06,288.63c-6.46-.27-12.9-.34-19.34,0,0,.24,0,.49,0,.73,6.18,0,12.35.29,18.52.64l.86.05q0-.5,0-1C400.05,288.9,400.06,288.77,400.06,288.63Z"/><path class="cls-1" d="M427.31,279.24l1-.94c2.66-2.49,5.29-5.05,8.17-7.28-.37-.48-.75-.95-1.15-1.4-.25.19-.51.39-.76.61-2.91,2.39-5.64,5-8.36,7.58l-.11.12A12.71,12.71,0,0,1,427.31,279.24Z"/><path class="cls-1" d="M434.75,285.77c2.55-.51,5.11-1,7.68-1.43-.12-.63-.26-1.26-.41-1.89q-5.86,1.23-11.68,2.73a13.63,13.63,0,0,1,.31,1.44Z"/><path class="cls-1" d="M440.14,293.56c.86.08,1.72.14,2.58.2a29.16,29.16,0,0,0,.23-3.64l-3.4-.18c-2.89-.15-5.81-.26-8.73-.3a15.24,15.24,0,0,1-.45,3.18C433.63,293.06,436.89,293.3,440.14,293.56Z"/><path class="cls-1" d="M387.23,291.58l-6.49.36a30.83,30.83,0,0,0,.4,3.36c2-.26,4.06-.53,6.09-.76,4.42-.5,8.84-1.19,13.26-1.82a13.22,13.22,0,0,1-.34-2C395.83,291,391.52,291.35,387.23,291.58Z"/><path class="cls-1" d="M397.47,307.31c-2.35,1.78-4.7,3.55-7,5.37a30.41,30.41,0,0,0,3.16,2.61c2-1.72,4.05-3.4,6-5.16a85.07,85.07,0,0,0,7.71-8,18.44,18.44,0,0,1-1.82-1.33C402.93,303.05,400.27,305.2,397.47,307.31Z"/><path class="cls-1" d="M400,277.67c-3.7-2.84-7.19-6-10.81-9-.52.55-1,1.11-1.5,1.7,2.21,1.78,4.53,3.44,6.76,5.17,2.53,2,5.12,3.84,7.72,5.73.26-.45.54-.88.84-1.3Z"/><path class="cls-1" d="M423.41,312.25c1,1.78,2,3.51,3.12,5.23.64-.34,1.26-.71,1.87-1.1-1.31-2.08-2.56-4.18-3.81-6.17-1.38-2.18-2.66-4.43-3.9-6.69-.51.18-1,.34-1.55.47C420.48,306.78,421.89,309.55,423.41,312.25Z"/><path class="cls-1" d="M406.85,304.36c-2.73,4.64-5.6,9.19-8.19,13.89.32.15.64.31,1,.45,2.74-4.17,5.67-8.21,8.41-12.38.63-1,1.28-1.91,1.94-2.88a16.12,16.12,0,0,1-2.06-1C407.57,303.12,407.21,303.75,406.85,304.36Z"/><path class="cls-1" d="M425.46,300.73c1.84,1.62,3.67,3.26,5.49,4.9,1.6,1.44,3.22,2.86,4.81,4.31.52-.63,1-1.28,1.49-1.95-1.9-1.54-3.83-3.05-5.72-4.58-1.61-1.3-3.22-2.59-4.85-3.85A16.85,16.85,0,0,1,425.46,300.73Z"/><path class="cls-1" d="M395.52,280.6q-5.73-2.37-11.54-4.5c-.31.62-.61,1.25-.88,1.9,3.63,1.26,7.23,2.62,10.81,4a71.22,71.22,0,0,0,6.91,2.21c.17-.51.36-1,.57-1.48C399.41,282.08,397.43,281.39,395.52,280.6Z"/><path class="cls-1" d="M404.42,288.32a.43.43,0,0,1,0,.05,4.24,4.24,0,0,0,8.18,0,4.39,4.39,0,0,0-1.09-4.13l0,0a4.22,4.22,0,0,0-5.13-.66,4.28,4.28,0,0,0-1.94,4.77Z"/><path class="cls-1" d="M417.49,293.68h.06a2.47,2.47,0,1,0,0-4.94h-.06a2.48,2.48,0,1,0,0,5Z"/><path d="M58.87,236.38a4.94,4.94,0,0,1,.19-.78,11.55,11.55,0,0,0-4.79-3.23c-2.08-.61-4.81.49-5.35,2.7-.24,1-1.78.73-1.54-.25.61-2.55,2.9-3.95,5.41-4.17,2.66-.24,5,1.57,6.92,3.39,1.35-2.43,4.09-4.34,7.91-4.94a15.36,15.36,0,0,1,2.29-.17c-.12-3.36,1-7.38,3.69-9.23,2.81-2,6.74-.51,9.25,1.21.83.58-.17,1.78-1,1.21-2.08-1.43-4.95-2.47-7.34-1.15s-3.11,5.2-3,8.05a10.51,10.51,0,0,1,2.77.68,14.78,14.78,0,0,1,8-7c4.61-1.59,8.72.16,11.89,3.64.68.75-.59,1.65-1.27.91-3.1-3.41-6.93-4.42-11.22-2.65a12.81,12.81,0,0,0-6,5.84,7.81,7.81,0,0,1,2,1.83c3.76-5.56,12.36-5.71,16.62-.41.63.79-.64,1.7-1.27.91-3.77-4.68-11.54-4.24-14.45,1.07a7.3,7.3,0,0,1,.38,1.31c5.15-3.4,12,.1,15,5.35.48.87-.78,1.79-1.28.91-2.62-4.7-9.08-8.39-13.63-4.36a7.32,7.32,0,0,1-.39,1.76c-1.81,5.05-10.21,9.6-15.72,6.18h0c-2.67-.88-5.81,1.93-7.36,3.74-2,2.39-3.62,5.66-2.86,8.83.23,1-1.33,1.13-1.56.17-.92-3.83,1.17-7.62,3.59-10.45a11.41,11.41,0,0,1,6.34-3.89,10.57,10.57,0,0,1-1-1.37,12.34,12.34,0,0,0-5.34.22,10.52,10.52,0,0,0-4,2.77c-1.8,1.81-4.41,5.22-3.63,7.92.28,1-1.18,1.53-1.46.56-1-3.29,1.44-6.66,3.48-9A13.44,13.44,0,0,1,53.62,241a10.47,10.47,0,0,1,5.62-.62,8.07,8.07,0,0,1-.48-2.32c-6.81-2.7-16.63,2-15.67,10.25a.79.79,0,0,1-1.56.17C40.46,239.28,51.06,233.61,58.87,236.38Z"/><path class="cls-1" d="M75.63,240.57A3.8,3.8,0,0,1,72,241.9a1.83,1.83,0,0,1-.93-2.84c.77-1.34,4.53-4.12,5.27-1.35A3.63,3.63,0,0,1,75.63,240.57Z"/><path class="cls-1" d="M66,244.47a3.78,3.78,0,0,0,3.45-1.71A1.83,1.83,0,0,0,68,240.14c-1.51-.36-6.11.47-4.6,2.91A3.63,3.63,0,0,0,66,244.47Z"/></g></g></svg>