<svg xmlns="http://www.w3.org/2000/svg" viewBox="0 0 88.22 77.92"><defs><style>.cls-1{fill:#00a099;}.cls-2{fill:#f29fc5;}.cls-3{fill:#f5f5f5;}</style></defs><g id="Слой_2" data-name="Слой 2"><g id="Objects"><path class="cls-1" d="M80.86,46c2.71,1.25,5.24,4.12,3.8,7.2-1.31,2.79-5.23,2.69-7.76,2.38a1.47,1.47,0,0,0-1.26,2.19c1.12,1.67,2.09,3.29,1.8,5.41-.54,4-5.89,1.34-7.56.35a1.48,1.48,0,0,0-2,2c1.9,3.12,4.82,11.2-2,9.18-5.24-1.54-7.39-7.48-8.5-12.57A31.73,31.73,0,0,0,61,59.36c.41.46.86.89,1.31,1.31a.68.68,0,0,0,.24.43c.51.41,1.63,1.69,2.4,1.13a.94.94,0,0,0,.42-1c-.19-.66-1.1-1.14-1.6-1.52l-1-.75-.6-.45-.13-.1,0,0a28.33,28.33,0,0,0,2.37-2.66.49.49,0,0,0,.17.14c1.65.93,3.69,2.24,5.67,2,.76-.11.7-1.32,0-1.48s-1.49-.19-2.22-.38a19.45,19.45,0,0,1-2.86-1.11s0,0-.08,0a25.27,25.27,0,0,0,3.66-7.11C72.51,46.44,77.51,44.45,80.86,46Z"/><path class="cls-1" d="M65.73,45.36a1.55,1.55,0,0,0-.4,2.24,23,23,0,0,1-3.82,6.3,18.27,18.27,0,0,0-3.36-10.85c-3-4.28-7.88-6.81-12.77-8.22-10.52-3-22.85-.4-30.24,7.71A19.81,19.81,0,0,1,16.3,30.88C33.45,20.37,59.68,24.56,65.73,45.36Z"/><path class="cls-1" d="M47,54.61c2,2.62,2,5.15,2.1,8.06-.31.12-.63.24-.94.34a22.14,22.14,0,0,1-5.91,1.14c.24-3.25-3-7.15-5.61-8.22-4.06-1.68-7.43.56-8.35,4.49A29.77,29.77,0,0,1,22,55.28c3.34-6.39,9.2-8.81,16.44-6.66A16.9,16.9,0,0,1,47,54.61Z"/><path class="cls-1" d="M14,22.55a9.64,9.64,0,0,0,4,.7A20.83,20.83,0,0,0,14.27,28c-4.7.35-9.84.9-11.43-4.9A4.94,4.94,0,0,1,4,18.26c2-1.94,5.64-.05,7.55,1.06l-.12,0c-.53-.07-.81.61-.58,1A6.2,6.2,0,0,0,14,22.55Z"/><path class="cls-1" d="M21.76,2.79c6,1.46,5.69,9.46,4.85,14.32a27.43,27.43,0,0,0-3.09,1.49,1.43,1.43,0,0,0-.78,1.1c-.15.08-.27.17-.42.26a.47.47,0,0,0-.42-.57,2.64,2.64,0,0,1-2.25-1.84c-.39-1-.25-2.15-.67-3.15-.31-.72-1.25-.36-1.47.19-.52,1.33.13,3.16.84,4.31a3.52,3.52,0,0,0,3,1.68,25.06,25.06,0,0,0-2.43,1.8.69.69,0,0,0-.62-.51,10,10,0,0,1-3.56-1c-.82-.41-1.55-1-2.38-1.31a1.33,1.33,0,0,0,.56-2.43c-2.55-1.68-6.29-5.32-3.67-8.53s6.58.82,8.14,2.8c.91,1.16,2.77-.34,2-1.56C17.62,7,16.54,1.54,21.76,2.79Z"/><path class="cls-2" d="M62.68,29.78a18.27,18.27,0,0,1,3.94,9.92c-8-17.49-33.35-21.57-49.14-11.15a22.89,22.89,0,0,1,6.57-7.07,1.58,1.58,0,0,0,1.07-.13C38,15.14,53.83,18.19,62.68,29.78Z"/><path class="cls-2" d="M54.87,43.41c3.94,4.12,3.05,8.47,3.71,13.51a30.88,30.88,0,0,1-6.67,4.5c.56-6.64-6.38-12.66-12-14.85-7.55-3-16.27-.13-19.06,7.42a30.47,30.47,0,0,1-2.82-4,24.72,24.72,0,0,1-2.48-5.69c7.2-6.65,17.66-9.13,27.2-7.31A22.3,22.3,0,0,1,54.87,43.41Z"/><path class="cls-2" d="M39.1,60.94a6.23,6.23,0,0,1,.46,3.19A24.63,24.63,0,0,1,29.31,61c1.07-3.11,3.69-4.76,6.89-3.13A7,7,0,0,1,39.1,60.94Z"/><path class="cls-3" d="M87.43,48.47c2.93,6-2.83,9.56-8,10,1.27,2.76,1.53,5.77-.81,8.26-1.7,1.82-4.2,1.72-6.5,1,1.61,4.74,1.67,10.56-4.95,10.14-7-.44-10.66-8.17-11.45-14.71A31.5,31.5,0,0,1,50,65.78c-14,4.75-29.38-2.44-35.65-15.71-3.18-6.74-3.59-13.63-1.31-19.47-5.72,1.68-12.61-2-13-8.36-.17-2.5.77-5.57,3.26-6.68A7.58,7.58,0,0,1,7.16,15C5.6,12.57,5,9.76,7.08,7.22c2.31-2.81,5.33-2.56,8-1.11a5,5,0,0,1,.75-3.69A5.77,5.77,0,0,1,21.71.11c7.27,1.31,8.71,9.56,7.85,16,13.16-3.9,28.94,1.09,36.53,12.87a21.63,21.63,0,0,1,3.43,15.33C76.26,42.41,83.64,40.73,87.43,48.47ZM84.66,53.2c1.44-3.08-1.09-6-3.8-7.2-3.35-1.55-8.35.44-12.15,1.68a25.27,25.27,0,0,1-3.66,7.11s0,0,.08,0A19.45,19.45,0,0,0,68,55.92c.73.19,1.48.22,2.22.38s.76,1.37,0,1.48c-2,.28-4-1-5.67-2a.49.49,0,0,1-.17-.14A28.33,28.33,0,0,1,62,58.34l0,0,.13.1.6.45,1,.75c.5.38,1.41.86,1.6,1.52a.94.94,0,0,1-.42,1c-.77.56-1.89-.72-2.4-1.13a.68.68,0,0,1-.24-.43c-.45-.42-.9-.85-1.31-1.31a31.73,31.73,0,0,1-3.58,2.79c1.11,5.09,3.26,11,8.5,12.57,6.83,2,3.91-6.06,2-9.18a1.48,1.48,0,0,1,2-2c1.67,1,7,3.67,7.56-.35.29-2.12-.68-3.74-1.8-5.41a1.47,1.47,0,0,1,1.26-2.19C79.43,55.89,83.35,56,84.66,53.2Zm-18-13.5a18.27,18.27,0,0,0-3.94-9.92C53.83,18.19,38,15.14,25.12,21.35a1.58,1.58,0,0,1-1.07.13,22.89,22.89,0,0,0-6.57,7.07C33.27,18.13,58.65,22.21,66.62,39.7Zm-1.29,7.9a1.55,1.55,0,0,1,.4-2.24c-6.05-20.8-32.28-25-49.43-14.48a19.81,19.81,0,0,0-1.16,11.66c7.39-8.11,19.72-10.75,30.24-7.71,4.89,1.41,9.78,3.94,12.77,8.22A18.27,18.27,0,0,1,61.51,53.9,23,23,0,0,0,65.33,47.6Zm-6.75,9.32c-.66-5,.23-9.39-3.71-13.51A22.3,22.3,0,0,0,42.77,37c-9.54-1.82-20,.66-27.2,7.31A24.72,24.72,0,0,0,18.05,50a30.47,30.47,0,0,0,2.82,4c2.79-7.55,11.51-10.37,19.06-7.42,5.6,2.19,12.54,8.21,12,14.85A30.88,30.88,0,0,0,58.58,56.92Zm-9.53,5.75c-.12-2.91-.13-5.44-2.1-8.06a16.9,16.9,0,0,0-8.51-6c-7.24-2.15-13.1.27-16.44,6.66a29.77,29.77,0,0,0,6.24,5.14c.92-3.93,4.29-6.17,8.35-4.49,2.6,1.07,5.85,5,5.61,8.22A22.14,22.14,0,0,0,48.11,63C48.42,62.91,48.74,62.79,49.05,62.67Zm-9.49,1.46a6.23,6.23,0,0,0-.46-3.19,7,7,0,0,0-2.9-3c-3.2-1.63-5.82,0-6.89,3.13A24.63,24.63,0,0,0,39.56,64.13Zm-13-47c.84-4.86,1.2-12.86-4.85-14.32C16.54,1.54,17.62,7,19.4,9.84c.75,1.22-1.11,2.72-2,1.56-1.56-2-5.63-5.87-8.14-2.8s1.12,6.85,3.67,8.53a1.33,1.33,0,0,1-.56,2.43c.83.33,1.56.9,2.38,1.31a10,10,0,0,0,3.56,1,.69.69,0,0,1,.62.51,25.06,25.06,0,0,1,2.43-1.8,3.52,3.52,0,0,1-3-1.68c-.71-1.15-1.36-3-.84-4.31.22-.55,1.16-.91,1.47-.19.42,1,.28,2.12.67,3.15a2.64,2.64,0,0,0,2.25,1.84.47.47,0,0,1,.42.57c.15-.09.27-.18.42-.26a1.43,1.43,0,0,1,.78-1.1A27.43,27.43,0,0,1,26.61,17.11ZM18,23.25a9.64,9.64,0,0,1-4-.7,6.2,6.2,0,0,1-3.21-2.24c-.23-.4,0-1.08.58-1l.12,0C9.6,18.21,6,16.32,4,18.26a4.94,4.94,0,0,0-1.12,4.88c1.59,5.8,6.73,5.25,11.43,4.9A20.83,20.83,0,0,1,18,23.25Z"/></g></g></svg>