<svg xmlns="http://www.w3.org/2000/svg" viewBox="0 0 231.31 512"><defs><style>.cls-1{fill:#fff;}</style></defs><g id="Слой_2" data-name="Слой 2"><g id="_04" data-name="04"><path d="M160.14,450.39a12.51,12.51,0,0,0,.7-4.06c0-12.82-19.85-22.86-45.19-22.86s-45.18,10-45.18,22.86a12.51,12.51,0,0,0,.7,4.06c-24,4.57-41.87,12.92-41.87,24.16v9.31c0,15.78,37.93,28.14,86.35,28.14S202,499.64,202,483.86v-9.31C202,463.31,184.11,455,160.14,450.39Z"/><path class="cls-1" d="M105.33,465.11C93,462.41,84.19,455,84.19,446.33s8.86-16.09,21.17-18.79c-16,2-28.52,8.34-31,16a9.79,9.79,0,0,0,0,5.54C76.84,456.77,89.39,463.15,105.33,465.11Z"/><path class="cls-1" d="M126,427.54c12.31,2.7,21.17,10.1,21.17,18.79s-8.85,16.08-21.15,18.78c15.94-2,28.48-8.33,31-16a9.9,9.9,0,0,0,0-5.57C154.45,435.87,141.9,429.5,126,427.54Z"/><path class="cls-1" d="M115.65,124.41c-25.21,0-81,0-89.38-6.11,0,0-1.54,16,9.93,33.62S40,194.7,20.15,242.83s-55.77,195.59,95.5,195.59S231,291,211.16,242.83s-27.51-73.34-16-90.91S205,118.3,205,118.3C196.64,124.41,140.87,124.41,115.65,124.41Z"/><path class="cls-1" d="M115.65,15.5A42.3,42.3,0,0,0,54.82,73.9c17.72-.92,35.63-7.93,50-17.69,7.49-5.05,17.1-12.36,23.41-20.86A42.31,42.31,0,0,0,115.65,15.5Z"/><path d="M129.9,34.87A44,44,0,0,0,45.21,59,43.45,43.45,0,0,0,53.49,75a1.73,1.73,0,0,0,1.33.63h.09c17-.89,35.1-7.28,50.9-18,10.69-7.23,18.71-14.39,23.82-21.26A1.74,1.74,0,0,0,129.9,34.87ZM62.29,19.78c4.09-3.87,9.18-6.09,14-6.09A11.08,11.08,0,0,1,84.56,17c5,5.31,3.21,15.22-4,22.08-4.09,3.87-9.17,6.09-14,6.09a11.09,11.09,0,0,1-8.31-3.28C53.23,36.54,55,26.64,62.29,19.78Zm50.56,28.44a18.53,18.53,0,0,1-1.2-3.46,123.25,123.25,0,0,1-2.37-14.28.21.21,0,0,0-.41,0,84.19,84.19,0,0,0,.43,12.91c-2.87-3.66-6.28-6.32-11.81-5.14-.4.09-.32.76.09.72,6.8-.66,9.81,5,12.7,10.25a21.08,21.08,0,0,0-9.82-3.73c-.55-.05-.66.83-.13.95a17.63,17.63,0,0,1,8.22,4.66l.23.22c-1.57,1.16-3.19,2.31-4.9,3.47A106,106,0,0,1,76.9,68c0-.63-.06-1.28,0-2,.12-5.05-1-8.71-2.41-13.54a.36.36,0,0,0-.7.19,76.76,76.76,0,0,1,1.3,8.4,36.77,36.77,0,0,1-.84,6.68,1,1,0,0,0-.07-.15c-2.58-5.05-9-6.61-10.34-12.46a.21.21,0,0,0-.4.06c.41,6.37,6.53,8.92,9.4,14a86.4,86.4,0,0,1-17.19,2.93,40.53,40.53,0,0,1,1.15-51.28c-5.81,7.82-6.46,17.59-1,23.35a14.61,14.61,0,0,0,10.81,4.36c5.65,0,11.59-2.56,16.32-7,8.62-8.17,10.5-20.25,4.17-26.94a14.6,14.6,0,0,0-10.81-4.35,22.49,22.49,0,0,0-11.11,3.17,40.5,40.5,0,0,1,45.43.3,37.31,37.31,0,0,1-4,0c-3.13-.17-7.29.29-8,3.92a.32.32,0,0,0,.62.17c1.48-4.14,9.36-1.86,12.59-1.8.55,0,1.11,0,1.67-.07l1,.83A40.59,40.59,0,0,1,126.35,35,79.12,79.12,0,0,1,112.85,48.22Z"/><path d="M77.63,19.37a7.27,7.27,0,0,0-5.38-2.18,11.49,11.49,0,0,0-7.71,3.3c-4.11,3.89-4.94,9.72-1.84,13a7.26,7.26,0,0,0,5.37,2.18,11.45,11.45,0,0,0,7.71-3.3C79.89,28.48,80.72,22.65,77.63,19.37Z"/><path class="cls-1" d="M72.78,22.87A2.75,2.75,0,1,1,70,20.12,2.75,2.75,0,0,1,72.78,22.87Z"/><path class="cls-1" d="M68.1,28.49a1.63,1.63,0,1,1-1.62-1.63A1.63,1.63,0,0,1,68.1,28.49Z"/><path class="cls-1" d="M205,118.3c-8.38,6.1-64.17,6.1-89.38,6.1s-81,0-89.38-6.1c0,0-9.85-15.09,7.66-27.06,0,0-9.64-20.09,12.93-32.66a42.07,42.07,0,0,0,8,15.32c17.72-.92,35.63-7.93,50-17.69,7.49-5.05,17.1-12.36,23.41-20.86a42.31,42.31,0,0,0-12.6-19.85s12.81-21.73,42-10.62c0,0-6.44,7.27-4.37,15.45,0,0,18.38,2.06,20.71,18.67,0,0,13.11,4.67,11.38,21,0,0,14.3-4.37,11.67,14C197,74,230.27,100.72,205,118.3Z"/><path d="M212.74,242.18c-20-48.35-27-72.72-16.19-89.32,10.17-15.6,10.41-29.89,10.26-33.74,6-4.44,9.18-9.82,9.39-16,.47-13.71-13.82-26.8-17.34-29.81a26.55,26.55,0,0,0,.21-3.89,13.92,13.92,0,0,0-1.89-7.37,9.12,9.12,0,0,0-.79-1.06,9.7,9.7,0,0,0-7.61-3.15,14.72,14.72,0,0,0-1.55.09c.39-13.13-8.66-18.65-11.69-20.12-2.58-14.3-16.52-18.13-20.81-19-1-6.75,4.15-12.75,4.2-12.81a1.51,1.51,0,0,0,.24-.34,1.71,1.71,0,0,0,.19-.8,1.44,1.44,0,0,0-.05-.41,1.62,1.62,0,0,0-.35-.69s0,0,0,0a1.77,1.77,0,0,0-.67-.47A46.46,46.46,0,0,0,141.83,0a32.62,32.62,0,0,0-27.66,14.63,1.71,1.71,0,0,0,.34,2.16,40.61,40.61,0,0,1,11.78,18.05l-.06.07c-.38.43-.76.88-1.15,1.34-.77,1-1.63,1.76-2.49,2.65s-1.78,1.78-2.78,2.69-2,1.82-3.1,2.73-2.2,1.83-3.35,2.74c-2.3,1.83-4.78,3.61-7.31,5.4l-1.94,1.32-.48.33-.19.13-.25.16-1,.63q-2,1.29-4.06,2.57l-4.05,2.27c-.68.37-1.33.77-2,1.11L90,62c-1.39.66-2.74,1.39-4.13,2l-4.13,1.72c-1.34.61-2.72,1-4,1.52s-2.64,1-3.92,1.35l-3.78,1.06a34.51,34.51,0,0,1-3.56.91l-3.3.7-1,.23q-3.22.47-6.42.68a40.82,40.82,0,0,1-7.09-14,1.71,1.71,0,0,0-2.49-1c-17.91,10-17.36,25.58-14.23,33.56-.53.39-1,.78-1.5,1.18l-.24.21c-.39.33-.77.65-1.12,1-.08.07-.14.15-.22.21l-1,1-.14.16c-.34.36-.66.72-1,1.09l-.06.06c-8.48,10.27-3.28,20.95-2,23.17-.17,3.09-.34,17.91,10.25,34.15,10.83,16.6,3.76,41-16.2,89.32-15,36.37-32.21,110.17-1.48,156.11,18.59,27.77,51.75,41.85,98.57,41.85s80-14.08,98.57-41.85C245,352.35,227.75,278.55,212.74,242.18ZM176.22,93.1a48.67,48.67,0,0,0,5.23-2.31,52.48,52.48,0,0,1,10.44-1.49c1.51,0,3.45.2,4.12,1.13a3.81,3.81,0,0,1,.3,3.13,7,7,0,0,1-1.38,2.34c-.31.19-.63.38-1,.56a26.12,26.12,0,0,1-4.65,1.94,40.61,40.61,0,0,1-5.69,1.34,57.8,57.8,0,0,1-6.37.68c-2.19.12-4.44.16-6.69.1A132.94,132.94,0,0,1,149.06,98c1.38,0,2.77-.11,4.1-.21a96.77,96.77,0,0,0,12.26-1.63A74.34,74.34,0,0,0,176.22,93.1Zm-8.85-29.82c1.71,3.33,1.53,7.6-.34,11.47-.43.21-.86.43-1.32.63a56.39,56.39,0,0,1-10.5,3.28,100.09,100.09,0,0,1-12.47,1.83c-4.39.38-9,.57-13.66.65-2.36.07-4.7,0-7.07,0s-4.75,0-7.14-.07l-14.3-.43-7-.21-6.84,0-3.34,0c-1.17,0-2.23,0-3.33,0-1.91,0-3.77.11-5.61.2l.7-.11,3.08-.5,3.09-.42c4.22-.58,8.59-1.17,13-1.69s9-1.17,13.49-1.8c2.27-.28,4.53-.79,6.79-1.17l6.64-1.22,6.53-1.17c2.17-.4,4.32-.76,6.45-1.22s4.23-.94,6.28-1.45c1-.26,2-.59,3-.88s2-.59,2.94-1L149.31,67c.92-.4,1.81-.84,2.7-1.25l1.32-.61.33-.16.4-.22.58-.33,2.3-1.34c2.06-1.22,4-2.46,5.74-3.73A7.5,7.5,0,0,1,167.37,63.28Zm-120.9-.4a43.18,43.18,0,0,0,5.35,9.91l-1,.09a1.15,1.15,0,0,0,.07,2.29h0l1.15,0c.46,0,1,0,1.73,0a1.78,1.78,0,0,0,1.15.37,86.47,86.47,0,0,0,10-1.13l2.2-.31a36.25,36.25,0,0,0,3.75-.72l4-.9c1.36-.35,2.73-.81,4.15-1.22s2.87-.83,4.28-1.42l4.37-1.68c1.46-.58,2.89-1.3,4.36-2l2.2-1c.73-.35,1.44-.78,2.17-1.16l4.33-2.39,4.06-2.57,1-.65.25-.16.31-.2.5-.35,2-1.38c2.61-1.85,5.12-3.76,7.46-5.74a82.87,82.87,0,0,0,6.52-6c1-1,1.95-2,2.83-3s1.77-2,2.45-3l1.05-1.41q.27-.34.51-.69c.24-.32.34-.51.51-.76.6-1,1.21-1.86,1.7-2.75s.9-1.75,1.31-2.53.67-1.61,1-2.29a19.68,19.68,0,0,0,1-3.18l.29-1.12a1.15,1.15,0,0,0-.69-1.35,1.14,1.14,0,0,0-1.49.64l-.43,1.07a24.35,24.35,0,0,1-1.29,2.9c-.32.58-.62,1.22-1,1.91L129,31.28c-.08.11-.17.22-.24.33a44.1,44.1,0,0,0-10.89-16.37,29.74,29.74,0,0,1,23.92-11.8,40.66,40.66,0,0,1,11.63,1.83,24.28,24.28,0,0,0-6.38,7.51c-2.43,4.6-4,11.9,1.59,21-.1.77-.24,1.55-.35,2.37-.26,1.13-.47,2.33-.86,3.5a33.41,33.41,0,0,1-1.25,3.51,33.46,33.46,0,0,1-1.7,3.32,32.25,32.25,0,0,1-2,3c-.77.9-1.43,1.83-2.22,2.58l-1.1,1.13-1.12,1a20.08,20.08,0,0,1-2,1.61l-.87.64-.79.49-1.49.92-.08.06a1.14,1.14,0,0,0-.41,1.5,1.15,1.15,0,0,0,1.55.48l1.66-.89.87-.46,1-.64a25.6,25.6,0,0,0,2.32-1.59l1.27-1,1.29-1.16A35,35,0,0,0,145,51.47a37.84,37.84,0,0,0,2.41-3.21,35.4,35.4,0,0,0,2.13-3.57,40.17,40.17,0,0,0,1.65-3.83c.52-1.27.84-2.59,1.22-3.85.17-.88.38-1.74.54-2.58a5,5,0,0,1,2.74-.81c2.7,0,5.45,1.93,6.84,4.81,1.76,3.63,1.3,8.2-1.2,13-.26.24-.51.49-.79.73a58.7,58.7,0,0,1-7.09,5.2l-2.15,1.36-.57.35-.15.09-.07,0-.24.13-1.14.58c-.77.38-1.54.8-2.34,1.18l-2.53,1c-.84.37-1.74.68-2.65,1s-1.82.64-2.77.92c-1.92.54-3.86,1.11-5.91,1.58s-4.13.94-6.25,1.42l-6.52,1.41-6.6,1.45c-2.19.46-4.35,1-6.58,1.39-4.45.77-8.87,1.58-13.32,2.26s-8.78,1.42-13,2.16l-3.17.55-3,.6-5.91,1.19c-3.85.81-7.5,1.67-10.82,2.66a70.36,70.36,0,0,0-8.28,3,8.42,8.42,0,0,0-1.56-1.18A10.91,10.91,0,0,1,46,81.08c-1.83-1.66-2.16-3.77-2.16-7.3A27.39,27.39,0,0,1,46.47,62.88ZM34,103.16a52.44,52.44,0,0,1,7.4-6.87,57.19,57.19,0,0,0,7.33-6.72,9.47,9.47,0,0,0,1.38-2.13c.89-.3,1.82-.58,2.83-.87a68.73,68.73,0,0,1,9.44-1.77c3.51-.43,7.35-.68,11.42-.78,2,0,4.14,0,6.29,0,1.06,0,2.19,0,3.23,0l3.34.12,6.84.24,7,.42,14.28.86c2.4.14,4.82.18,7.23.28s4.81.2,7.17.21c4.75,0,9.46,0,14-.26a103.83,103.83,0,0,0,13.22-1.53,62.69,62.69,0,0,0,11.72-3.3c1-.4,1.93-.82,2.85-1.27,1.41.13,2.84.51,3.44,1.46.93,1.48,0,4.35-.87,6.56a68.86,68.86,0,0,1-9.27,2.91,91.55,91.55,0,0,1-11.51,1.89c-2.05.21-4,.35-6.2.44s-4.27.15-6.44.21l-13.28.24a191.89,191.89,0,0,0-26.31,2.07c-8.37,1.35-16.09,3.68-22.17,6.91a47.53,47.53,0,0,0-7.84,5.15L68.93,109l-1.36,1.31c-.9.81-1.59,1.69-2.28,2.43a40.82,40.82,0,0,0-2.82,3.7l-.89,1.33A1.15,1.15,0,0,0,63.47,119s.32-.46.93-1.3a35.39,35.39,0,0,1,2.75-3.4,30.39,30.39,0,0,1,2.2-2.21l1.31-1.19,1.49-1.18a45,45,0,0,1,7.5-4.61,69.68,69.68,0,0,1,21.38-6,188.14,188.14,0,0,1,25.81-1.25l11,.13c1.87.6,4.33,1.36,7.23,2.16a140.66,140.66,0,0,0,25.27,4.69c2.35.21,4.72.3,7.07.31a65.58,65.58,0,0,0,6.92-.34,47.37,47.37,0,0,0,6.52-1.15c.75-.18,1.48-.4,2.19-.63,5.93,1.83,12.26,4.15,17.39,7.4a22.82,22.82,0,0,1-6.39,6.4c-1.2.87-3.54,1.61-6.73,2.23a2,2,0,0,0-.34,0A140.1,140.1,0,0,1,182.61,121c-21.29,1.72-52.26,1.72-67,1.72s-45.74,0-67.05-1.73a138.79,138.79,0,0,1-14.24-1.78,1.84,1.84,0,0,0-.33,0,24.07,24.07,0,0,1-6-1.78A33.21,33.21,0,0,1,34,103.16ZM211.36,396.37c-17.9,26.76-50.1,40.33-95.71,40.33s-77.8-13.57-95.71-40.33C-10,351.65,7,279.23,21.74,243.49,42.17,194,49.32,168.88,37.64,151A58.38,58.38,0,0,1,27.93,121l.3.11.16,0c.38.13.77.26,1.19.38l.16.05c.44.12.9.25,1.38.36l.11,0,1.12.26a64.14,64.14,0,0,0,9.33,29.89c9.89,16.3,3.44,40.22-14.78,87.65-14.19,37-30,111.45.7,156.15,17.32,25.2,46.94,38,88.05,38s70.74-12.78,88.06-38c30.72-44.7,14.89-119.19.7-156.15-18.22-47.43-24.68-71.35-14.78-87.65A64.06,64.06,0,0,0,199,122.27H199l.59-.14,1-.23.55-.15.84-.24.56-.18.68-.23.17-.06A58.16,58.16,0,0,1,193.67,151c-5.88,9-7.11,19.9-4,35.28,3.05,14.93,10.14,33.68,19.87,57.23C224.31,279.23,241.29,351.65,211.36,396.37Z"/><path class="cls-1" d="M158.68,453.44c-5.78,9.23-22.62,15.74-43,15.74s-37.24-6.51-43-15.74c-23.92,4.33-39.89,12.17-39.89,21.11,0,13.65,37.12,24.71,82.91,24.71s82.92-11.06,82.92-24.71C198.57,465.61,182.6,457.77,158.68,453.44ZM116,492.54c-11.47,0-25.76-2.33-32.95-4.58-1.29-.4-3.67-1.15-3.42-3.12s1.26-3,23.72-4.09c20.19-1,24.46-4.14,32.19-9.82a4.33,4.33,0,0,1,2.53-1,3.15,3.15,0,0,1,3,2.9c.81,4.21-2.83,14.12-12.68,18.05C125.74,492,121.56,492.54,116,492.54Zm79.18-14.64c-17.12,12.49-40,14.36-52.14,14.36-4.46,0-7.21-.26-7.32-.27a1.72,1.72,0,0,1-.52-3.29c8.31-3.6,9-11.45,9.52-17.18.32-3.64.6-6.78,3.27-7.36a60.11,60.11,0,0,1,12.69-1.38c21.46,0,34.15,12,34.68,12.5a1.72,1.72,0,0,1-.18,2.62Z"/><path class="cls-1" d="M205.17,274.92a44.4,44.4,0,1,0-41.82,46.84A44.4,44.4,0,0,0,205.17,274.92Z"/><path d="M206.77,274.83a46,46,0,1,0-43.33,48.53A46,46,0,0,0,206.77,274.83Zm-78.7,30.1c.06-.17.11-.35.17-.51a8.57,8.57,0,0,1,3.38-2.81,21.53,21.53,0,0,1,4.76-1.11,12,12,0,0,0,6.79-3.64c.14-.17-.07-.44-.25-.3-3.15,2.56-9.4,2.1-13.2,4.29a17,17,0,0,1,2.23-3.38c2.53-3,6-4.82,8.84-7.42.08-.07,0-.2-.13-.14-4.83,3.34-9.26,5.1-12.59,10.23a13.41,13.41,0,0,0-1.38,3.05l-.47-.64a13.47,13.47,0,0,1,.49-5.47c.88-3.19,2.45-5.87,2.56-9.25,0-.22-.35-.24-.38,0-.56,3.59-2.68,6.45-4,9.74a7,7,0,0,0-.52,2.2,42.69,42.69,0,0,1-6.22-19.89,43.23,43.23,0,0,1,.74-10.72c4,0,8.32-1.65,12-.4.17,0,.23-.23.06-.27a44.17,44.17,0,0,0-10.74-1.28c5.14-1.55,10.43-4.91,15.67-2.38a.29.29,0,0,0,.26-.52c-3.21-2-6.31-1.66-9.88-.88-2.14.47-4.18,1.15-6.32,1.53a42.79,42.79,0,1,1,78.27,33.35,5.38,5.38,0,0,1-.52-.47c-1.22-1.23-2.13-2.47-3.78-3.16a.19.19,0,0,0-.18.34c1.73,1.16,2.44,3.09,3.71,4.62l-.37.59c-1.51.38-3.13.47-4.65.7a.1.1,0,0,0,0,.19c1.32.06,2.63.14,3.95.18a43,43,0,0,1-14.18,13.24,4.13,4.13,0,0,1,0-.92c.28-1.76,1.21-3.23,1.37-5,.19-2.27-1.11-4.36-2.52-6-.06-.07-.22,0-.17.09,1.82,3.77.39,6.66-.3,10.23-.32-.6-.66-1.19-1-1.77a15.64,15.64,0,0,0-9.75-6.89c-.25,0-.31.3-.08.38,4.61,1.62,6.74,5,8.81,8.81-.16-.16-.31-.34-.48-.5a18.18,18.18,0,0,0-8.6-4.22c-.09,0-.17.11-.09.16,2.74,1.93,5.7,3.82,8.25,6q.76.65,1.47,1.32a42.69,42.69,0,0,1-51-11.19Z"/><path d="M192.52,264.19a26.22,26.22,0,1,0-24.7,27.66A26.25,26.25,0,0,0,192.52,264.19ZM143.36,267a23,23,0,1,1,24.28,21.67A23.05,23.05,0,0,1,143.36,267Z"/><path d="M185.23,260.49A15.67,15.67,0,1,0,170.47,277,15.69,15.69,0,0,0,185.23,260.49Z"/><path class="cls-1" d="M177.54,265.68a4.74,4.74,0,1,1,4.46-5A4.74,4.74,0,0,1,177.54,265.68Z"/><path class="cls-1" d="M172.27,256.48a2.55,2.55,0,1,1,2.4-2.7A2.56,2.56,0,0,1,172.27,256.48Z"/><path class="cls-1" d="M74.84,205.87a34.73,34.73,0,1,1,42.42,24.76A34.73,34.73,0,0,1,74.84,205.87Z"/><path d="M117.58,231.85a36,36,0,1,0-44-25.65A36,36,0,0,0,117.58,231.85Zm-.64-2.43a33.31,33.31,0,0,1-12.75.82c.24-.45.49-.9.77-1.34,1.38-2.21,3.13-4.33,4.7-6.42a.08.08,0,0,0-.1-.11,14.29,14.29,0,0,0-5.39,5.22c-.08.16-.15.33-.23.49.61-3.35,1.39-6.36,4.43-8.69.15-.11,0-.36-.15-.26a12.22,12.22,0,0,0-5.59,7.49c-.14.51-.25,1-.35,1.56-1.37-2.49-3.13-4.3-2.69-7.54,0-.1-.12-.09-.15,0a6.6,6.6,0,0,0-.42,5.06c.55,1.32,1.6,2.18,2.23,3.43a3.09,3.09,0,0,1,.26.67,33.59,33.59,0,0,1-13.75-6.43c1-.35,1.93-.72,2.89-1.08a.08.08,0,0,0,0-.15,36.43,36.43,0,0,1-3.62.6c-.14-.11-.29-.23-.42-.35.58-1.44.64-3,1.64-4.33a.15.15,0,0,0-.21-.21,9.2,9.2,0,0,0-2,3.27c-.09.17-.18.33-.27.47a33.46,33.46,0,1,1,50.18-43.71c-1.68.23-3.36.22-5.07.38-2.85.29-5.22.81-7.14,3-.18.22.11.53.32.32,3.29-3.15,8-1.92,12.24-2a34.92,34.92,0,0,0-7.69,3.54c-.11.08,0,.27.11.19,2.45-1.82,6.09-1.62,9-2.6a32.83,32.83,0,0,1,3.14,7.8,33.23,33.23,0,0,1,.18,16.3,5.33,5.33,0,0,0-.92-1.51c-1.8-2.12-4.07-3.74-5.35-6.28-.08-.14-.34,0-.28.12.9,2.49,2.71,4.11,4.14,6.26a10.77,10.77,0,0,1,1.68,4c-.06.2-.12.4-.19.59A10.87,10.87,0,0,0,138.3,206c-3.73-3-7.44-3.25-11.84-4.58-.08,0-.14.11-.06.14,2.74,1.25,5.76,1.8,8.36,3.39a13.78,13.78,0,0,1,2.48,2c-3.36-.7-7.9,1.14-10.86,0-.16-.06-.26.19-.12.28a9.28,9.28,0,0,0,5.94,1.07A17.32,17.32,0,0,1,136,208a6.72,6.72,0,0,1,3.2,1.27l.25.34A33.46,33.46,0,0,1,116.94,229.42Z"/><path d="M106.71,209.46a20.51,20.51,0,1,0-25-14.62A20.55,20.55,0,0,0,106.71,209.46Zm-.64-2.43a18,18,0,1,1,12.84-22A18,18,0,0,1,106.07,207Z"/><path d="M86.19,190.33a12.26,12.26,0,1,1,15,8.73A12.28,12.28,0,0,1,86.19,190.33Z"/><path class="cls-1" d="M93.16,192.33a3.71,3.71,0,1,0-4.53-2.65A3.72,3.72,0,0,0,93.16,192.33Z"/><path class="cls-1" d="M94.86,184.21a2,2,0,1,0-2.44-1.42A2,2,0,0,0,94.86,184.21Z"/><path class="cls-1" d="M125.57,300.72a47.52,47.52,0,1,0,47.52,47.52A47.52,47.52,0,0,0,125.57,300.72Z"/><path d="M125.57,299a49.24,49.24,0,1,0,49.24,49.24A49.29,49.29,0,0,0,125.57,299ZM153,384.91l-.53-.21a9.29,9.29,0,0,1-2.81-3.79,24.16,24.16,0,0,1-.89-5.14,12.75,12.75,0,0,0-3.48-7.48c-.17-.17-.47,0-.33.25,2.54,3.52,1.68,10.17,3.78,14.36a18.31,18.31,0,0,1-3.47-2.59c-3-2.88-4.79-6.69-7.39-9.89-.08-.09-.23,0-.17.13,3.28,5.36,4.89,10.2,10.18,14.07a13.82,13.82,0,0,0,3.17,1.66l-.72.46a14.61,14.61,0,0,1-5.81-.85c-3.35-1.14-6.12-3-9.72-3.3a.21.21,0,0,0-.06.41c3.8.81,6.73,3.25,10.16,4.91a7.67,7.67,0,0,0,2.31.68,45.76,45.76,0,0,1-33,4c.28-4.23-1.25-9,.3-12.85.07-.18-.22-.26-.29-.08-1.32,3.75-1.63,7.57-2,11.4-1.34-5.59-4.61-11.44-1.59-16.89a.31.31,0,0,0-.54-.31c-2.3,3.31-2.16,6.64-1.55,10.51.38,2.31,1,4.53,1.26,6.84a45.79,45.79,0,1,1,40.37-81.61,5.4,5.4,0,0,1-.54.52c-1.39,1.24-2.77,2.14-3.6,3.86a.2.2,0,0,0,.35.2c1.35-1.77,3.45-2.41,5.16-3.68.21.14.41.29.61.44.31,1.63.31,3.37.46,5a.11.11,0,0,0,.21,0c.14-1.4.31-2.8.43-4.2a46,46,0,0,1,13.29,15.95,5,5,0,0,1-1-.1c-1.86-.41-3.37-1.49-5.31-1.77-2.41-.35-4.72.93-6.55,2.33-.08.06,0,.23.08.18,4.15-1.71,7.15,0,10.92.94-.66.32-1.32.64-1.95,1a16.7,16.7,0,0,0-8,10c-.08.27.3.35.39.11,2-4.83,5.73-6.91,10-8.88-.19.16-.39.3-.57.48a19.35,19.35,0,0,0-5,8.94c0,.09.1.18.17.1,2.22-2.81,4.42-5.85,6.86-8.46.49-.52,1-1,1.51-1.48A45.71,45.71,0,0,1,153,384.91Z"/><path d="M113.34,313.58a28.07,28.07,0,1,0,28.06,28.07A28.1,28.1,0,0,0,113.34,313.58Zm0,52.69A24.63,24.63,0,1,1,138,341.65,24.65,24.65,0,0,1,113.34,366.27Z"/><path d="M109,321.15a16.78,16.78,0,1,0,16.77,16.77A16.79,16.79,0,0,0,109,321.15Z"/><path class="cls-1" d="M114,329.68a5.08,5.08,0,1,1-5.07-5.07A5.08,5.08,0,0,1,114,329.68Z"/><path class="cls-1" d="M103.87,334.76a2.73,2.73,0,1,1-2.73-2.74A2.72,2.72,0,0,1,103.87,334.76Z"/><path class="cls-1" d="M38.66,130.65s2.63,16.65,24.25,18.41c0,0,4.38,76.25-16.07,137.89,0,0,20.45-26.59,30.1-73a572.13,572.13,0,0,0,9.34-65.73c4.68-.3,54.05,4.08,63.11-16.07C149.39,132.11,84.24,141.47,38.66,130.65Z"/><path class="cls-1" d="M24.9,317.06s-18,70.11,36.23,97,94,2.63,112-28.63c0,0-42.52,39.73-90.43,18.11S24.9,317.06,24.9,317.06Z"/></g></g></svg>