<svg xmlns="http://www.w3.org/2000/svg" viewBox="0 0 472.74 512"><defs><style>.cls-1{fill:#fff;}</style></defs><g id="Слой_2" data-name="Слой 2"><g id="_02" data-name="02"><path d="M472.48,285.52c-.37-24.49-.73-24.75-2.48-26-1-.71-1.4-1-31.66-4.41-16.47-1.86-39.47-4.35-64.75-7-45.06-4.73-95-9.77-98.73-9.77a4.24,4.24,0,0,0-.8.07c-2.32.44-2.94.55-43.22,59.24-9.1,13.25-18.5,27-19.68,28.3a3.5,3.5,0,0,0-.85,2.26c0,.39,0,39.31.29,77.85.17,22.64.41,40.72.71,53.75.18,7.75.39,13.79.61,17.93.36,6.59.49,9.05,3,10,2.25.86,67.8,9.21,94.76,12.55,35.31,4.37,96.42,11.7,109,11.7,1.93,0,3.09-.13,4.1-.85,2.18-1.55,6.71-9,42.69-87.6,2.95-6.43,5.28-11.51,5.58-12.11.51-1,.91-1.72,1.3-25.57.21-13.57.36-31.9.39-50.3C472.77,316.24,472.68,298.47,472.48,285.52Z"/><path class="cls-1" d="M218.72,333.69c-5-.42,1.18,2.12,47.38,6.69,2.9.29,7.1.79,12.24,1.45l0-2.9C254.42,336.79,232.84,334.89,218.72,333.69Z"/><path class="cls-1" d="M420.92,352.49c-.75-.43-36.88-3.9-79.58-7.83l-.45,6.24c33.75,5.23,65.65,10.67,66.46,12,1.54,2.62,5.89,95.9,6.14,112.31s1.56,36.75,2,26.36C417.26,464.34,422.46,353.38,420.92,352.49Z"/><path class="cls-1" d="M404.93,502.36h-.17l-69-6.85a1.71,1.71,0,1,1,.34-3.41l69,6.85a1.71,1.71,0,0,1-.17,3.42Z"/><path class="cls-1" d="M404.93,493.49h-.14l-50.06-4A1.72,1.72,0,1,1,355,486l50.06,4a1.71,1.71,0,0,1-.14,3.42Z"/><path class="cls-1" d="M404.77,484.1h-.06l-38.31-3.43a1.7,1.7,0,0,1-1.55-1.86,1.73,1.73,0,0,1,1.86-1.56L405,480.68a1.71,1.71,0,0,1-.25,3.42Z"/><polygon class="cls-1" points="284.22 492.43 282.08 339.92 337.46 344.34 326.49 499.29 284.22 492.43"/><polygon class="cls-1" points="437.5 332.63 452.05 301.28 452.78 437.88 443.07 460.33 437.5 332.63"/><path class="cls-1" d="M424.54,345.91c-9.32-.67-83.05-6.47-140.11-11.28.46-2.39.29-10.51-1.12-45-.69-16.8-1.53-37.29-1.32-43,14.5,1.26,120.8,12,180.12,18.05C457,277,428.79,337.91,424.54,345.91ZM280.46,334.3c-29.58-2.5-54-4.69-61.54-5.68,7.33-11.65,45.88-67.83,55.2-79.33,1.3,8.37,2.87,34.55,4,52.66C279.41,324.05,279.89,331.54,280.46,334.3Z"/><path d="M322.08,314.53a1.72,1.72,0,0,1-1.13-3l58.54-50.89a1.72,1.72,0,0,1,2.25,2.59L323.2,314.11A1.72,1.72,0,0,1,322.08,314.53Z"/><path d="M341,309.39a1.71,1.71,0,0,1-1.13-3l51-44.55a1.71,1.71,0,0,1,2.26,2.58l-51,44.55A1.74,1.74,0,0,1,341,309.39Z"/><path d="M360.22,304a1.71,1.71,0,0,1-1.14-3L402,263a1.71,1.71,0,0,1,2.27,2.57l-42.89,38A1.68,1.68,0,0,1,360.22,304Z"/><path d="M381.94,293.3a1.72,1.72,0,0,1-1.13-3L411.17,264a1.72,1.72,0,0,1,2.25,2.59l-30.36,26.32A1.7,1.7,0,0,1,381.94,293.3Z"/><path d="M341.15,289a1.72,1.72,0,0,1-1.13-3l30.36-26.32a1.72,1.72,0,0,1,2.24,2.6l-30.35,26.31A1.68,1.68,0,0,1,341.15,289Z"/><path class="cls-1" d="M268.5,256.85c-2-1.64-4.19-3.21-6.11-4.74-6.15,8.68-16.85,24.13-31.55,45.54-9.1,13.25-18.5,27-19.68,28.3a3.5,3.5,0,0,0-.85,2.26c0,.37,0,34.45.23,70.39l10-13.1c14.71-19.24,28.53-37.52,40-52.9-20.27-1.77-35.92-3.22-41.67-4C225,319,253.94,276.91,268.5,256.85Z"/><path class="cls-1" d="M404.56,315.93c-7.22-1.19-16.38-8.72-26.49-21.78-3.53-4.55-6.42-8.84-9-12.63-4.66-6.92-8.34-12.39-11.8-13a5.09,5.09,0,0,0-3.23.7c-2.36,1.26-2.81,7.6-3.17,12.7-.43,6-.83,11.72-3.95,14.19a5.69,5.69,0,0,1-4.6,1.08h0c-2.72-.45-6-2.44-10.27-6.27-7.81-7-11.9-16-15.19-23.21-2.67-5.85-5-10.9-7.89-11.38l-.35,0c-1.11-.07-3,3.64-4.08,5.85-2.41,4.82-5.41,10.82-11.23,9.87-2.56-.42-5.25-2.23-8.22-5.54-27.73-30.88-36-83.59-38.46-112.27-3.36-39.24-.16-79.78,7.78-98.57,2.74-6.49,6-9.85,9.63-10a13.17,13.17,0,0,1,2.59.16c8.8,1.45,14.26,11.54,17.87,18.22.38.7.8,1.48,1.19,2.18,2.54-17.18,13.24-46,29.7-58.21,6.54-4.84,13.44-6.7,20.51-5.54a32.34,32.34,0,0,1,12.29,5c17.57,11.41,19.22,35.08,20.67,56,1.07,15.43,2.08,30,9.59,35.43a6.43,6.43,0,0,0,2.75,1.1c4.24.69,10.35-1.66,16.26-3.94,6.6-2.54,13.42-5.17,19-4.24,7.11,1.16,10.82,7.47,11.35,19.28.43,9.82-4.77,18.46-11.35,29.41-9.07,15.09-20.36,33.87-24.23,66.08-4,33.4,5.23,50.11,13.39,64.85,5.75,10.39,11.18,20.21,10.14,33.84-.31,4.11-1.69,7.24-4,9.05A9.07,9.07,0,0,1,404.56,315.93Z"/><path d="M335.58,4.6a30,30,0,0,1,11.47,4.69C376.93,28.68,358.4,87,377.23,100.63a8.49,8.49,0,0,0,3.65,1.47c9.7,1.59,25.28-9.82,35.31-8.18,5.28.87,9,5.35,9.54,17.26,1,21.88-28.8,38.89-35.56,95.15-7,58.24,25.91,67.47,23.53,98.78-.48,6.27-3.61,9.55-8.79,8.7-6-1-14.63-7.39-25.15-21s-15.61-25.33-22.11-26.39a7.09,7.09,0,0,0-4.59.92c-7.36,3.92-.94,29.29-10.36,27.74-2.14-.35-5.08-2.08-9.19-5.75-14.55-13-15.82-33.74-24.17-35.11a5,5,0,0,0-.57-.06c-5.56-.35-7.3,17-15.08,15.74-1.91-.31-4.19-1.75-7-4.85C232.77,205,244,48.61,264.15,47.82a10.34,10.34,0,0,1,2.17.13c11.51,1.89,17.35,22.09,20.05,22.53.6.1,1.05-.8,1.36-3.13C290.62,46,308.32.13,335.58,4.6m.7-4.23c-7.67-1.26-15.12.73-22.13,5.92-15.15,11.21-25.54,36-29.43,53.64-3.78-6.72-9.23-14.82-17.71-16.21a14.52,14.52,0,0,0-3-.19c-4.55.18-8.43,4-11.52,11.31-8.07,19.08-11.33,60-7.94,99.59,2.48,28.94,10.85,82.17,39,113.52,3.31,3.68,6.41,5.71,9.47,6.22,7.38,1.2,11.06-6.16,13.5-11a33.11,33.11,0,0,1,2.55-4.52c1.76.93,4,5.94,5.9,10,3.37,7.41,7.57,16.63,15.71,23.92,4.6,4.11,8.21,6.27,11.36,6.78a7.78,7.78,0,0,0,6.27-1.51c3.86-3.05,4.3-9.2,4.76-15.72.23-3.25.71-10,2-11a2.84,2.84,0,0,1,1.87-.47c2.54.42,6.34,6.06,10.36,12,2.57,3.81,5.48,8.13,9.05,12.74,10.46,13.5,20.08,21.31,27.84,22.58a11.08,11.08,0,0,0,8.94-2c2-1.53,4.37-4.61,4.82-10.57,1.09-14.27-4.5-24.36-10.41-35.05-8-14.46-17.07-30.84-13.14-63.55,3.82-31.76,15-50.32,23.95-65.24,6.77-11.25,12.11-20.14,11.65-30.61-.57-12.8-5-20-13.14-21.3-6.2-1-13.3,1.72-20.16,4.36-5.65,2.17-11.48,4.42-15.14,3.82a4.23,4.23,0,0,1-1.84-.72c-6.7-4.84-7.68-18.93-8.71-33.84-1.49-21.39-3.17-45.63-21.64-57.62A34.37,34.37,0,0,0,336.28.37Z"/><path d="M336.12,59.94c.94,4.63-7.34,14.19-18.32,11.25s-12.3-14.68-9.65-17.55,7,6,12.32,6S334.51,52,336.12,59.94Z"/><path d="M337.82,34.59c4.41,2.72,8.37,18.34,6.35,20.56s-10.86-3.1-13.89-8.45S329.63,29.51,337.82,34.59Z"/><path d="M311.51,33.19c-4.16,1.55-8.39,13.18-6.95,15.31s8.44-.3,11.77-4.22S319.23,30.3,311.51,33.19Z"/><path d="M279.23,80c1.88-2.93,5.19-3.72,11.18,5,10.88,15.8,38.76,29.94,61.89,28.08,2.65-.21,4.22,2,3,3.92-6.39,9.91-39.26-1.65-44.33-1.3-2.6.17-.64,4.07,4.83,10.85.91,1.13,1.86,3.38.66,4.69-1.59,1.74-5.27-.24-7.24-1.71a79.17,79.17,0,0,1-22.39-25.41c1.18,17.82,3.39,35.59,6,53.25,2.22,14.89,4.62,29.86,8.26,44.48.88,3.53,5.32,19.63,9.46,13.44,2.21-3.31,5-7,9.18-3.74,3.47,2.71,5,7.53,6.6,11.47s3.25,10.42,7.51,12.51c5.07,2.49,9.55-5.48,10.56-9.21,1.71-6.35,1.91-13.14,2.31-19.67.38-6.14.58-12.33,1.57-18.41.42-2.54,1.14-7.28,4.27-8,6.35-1.35,8.77,9.26,9.41,13.33,1.44,9.11.87,18.36,1.81,27.51a116.16,116.16,0,0,0,4.58,22.45c2.12,6.86,5.94,13,8.17,19.74.49,1.5.94,4.53-1.5,4.35-3.87-.28-7.84-6.17-10-8.73a.53.53,0,0,1-.06-.1s-.06,0-.08-.07c-2.78-3.48-4.59-8.11-8.27-10.75-4.23-3-9.06.68-12.08,3.51-4.34,4.06-9.6,1.75-13-2.63-2.39-3.1-4-7.28-7.55-9.2-4.3-2.3-8.89,2-12.12,4.33-4.47,3.19-9.7,4.09-13.93-.14-2.6-2.6-4.1-6.4-5.45-9.74a148.54,148.54,0,0,1-5.75-18.59c-8.47-32.51-10.54-82.47-12.5-78.6-6.88,13.53-6.39,49.31-10.64,44.61C256.26,173.4,262,106.82,279.23,80Z"/><path d="M86.37,93.31q8.4-2,12.51,4.82a13.69,13.69,0,0,1,.8,1.54,13.14,13.14,0,0,1,.63,7.65q-1,5.1-9.17,9.62,8.3-2,11.29-1.59,6.48,1,9.44,7.69a20.54,20.54,0,0,1,1.67,5.23,9,9,0,0,1-3.36,8.14,33.37,33.37,0,0,1-9.1,5.82,27.57,27.57,0,0,1-3.49,1.18,19,19,0,0,1-5.77.73c-3.94-.32-7.27-2.81-10-7.45a147.52,147.52,0,0,1-9-18c-.91-2.24-1.78-4.46-2.54-6.69Q67.37,103.91,73.76,99a28.68,28.68,0,0,1,6-3.56A38.6,38.6,0,0,1,86.37,93.31Zm-2.65,18a10.09,10.09,0,0,0,1.41-.75q5-3,3.08-6.42T81.43,103q-4.91,2.2-3,6.34C79.5,111.68,81.26,112.35,83.72,111.33Zm5.11,20.83c.82,1.73,2.42,2.5,4.78,2.33a12.1,12.1,0,0,0,3.79-.85c2.75-1.14,4-2.74,3.83-4.8a5.23,5.23,0,0,0-.36-1.51c-.8-2-2.82-2.75-6-2.42a9,9,0,0,0-2.4.61,8,8,0,0,0-2.62,1.81A3.94,3.94,0,0,0,88.83,132.16Z"/><path d="M126.45,84.75q6.64-.51,12.65,8.74,1.07,1.65,4.88,8.7c.32.61.65,1.3,1,2.09a20.48,20.48,0,0,1,1.54,9.12,13.85,13.85,0,0,1-3.44,8.42,17.64,17.64,0,0,1-7.69,5.19,18.7,18.7,0,0,1-8.66,1.27,12.23,12.23,0,0,1-6.69-3.2,35.3,35.3,0,0,1-5-6.92,58,58,0,0,1-4.07-7.67,17.71,17.71,0,0,1-.84-2.42,49.63,49.63,0,0,1-1.35-6.57,14.49,14.49,0,0,1,.76-6.56q2-5.35,10.94-8.58A25.51,25.51,0,0,1,126.45,84.75Zm6,17.2a24.77,24.77,0,0,0-3.49-5.35q-2.7-2.75-5.64-1.59-3.93,1.58-4.49,4.25c-.3,1.49.13,3.59,1.29,6.32q2.3,5.24,4,8.73c1.64,3.33,3.65,5,6,4.91a6.67,6.67,0,0,0,2.39-.49,7.67,7.67,0,0,0,3.39-2.91c1.19-1.74,1.26-3.91.19-6.48-.14-.35-.43-.94-.85-1.76Z"/><path d="M161.74,70.1q6.66-.5,12.65,8.74c.71,1.11,2.34,4,4.88,8.71a21.81,21.81,0,0,1,1,2.08,20.51,20.51,0,0,1,1.55,9.12,13.8,13.8,0,0,1-3.45,8.42,17.41,17.41,0,0,1-7.69,5.19,18.48,18.48,0,0,1-8.65,1.27,12.23,12.23,0,0,1-6.69-3.2,36.09,36.09,0,0,1-5-6.92,59.64,59.64,0,0,1-4.06-7.66,18.69,18.69,0,0,1-.84-2.42A47.85,47.85,0,0,1,144,86.85a14.38,14.38,0,0,1,.75-6.56q2-5.36,10.94-8.58A25.38,25.38,0,0,1,161.74,70.1Zm6,17.2A24.77,24.77,0,0,0,164.23,82c-1.8-1.83-3.67-2.36-5.65-1.59-2.61,1-4.12,2.47-4.48,4.25-.31,1.49.13,3.59,1.3,6.32q2.28,5.25,4,8.73c1.63,3.34,3.65,5,6,4.91a6.42,6.42,0,0,0,2.39-.49,7.66,7.66,0,0,0,3.39-2.9c1.18-1.75,1.25-3.92.19-6.49-.15-.35-.43-.93-.85-1.76Z"/><path d="M197,55.45q6.66-.5,12.65,8.74,1.06,1.66,4.89,8.7c.31.61.64,1.3,1,2.09a20.64,20.64,0,0,1,1.56,9.12,13.8,13.8,0,0,1-3.45,8.42,17.5,17.5,0,0,1-7.7,5.19A18.61,18.61,0,0,1,197.29,99a12.13,12.13,0,0,1-6.68-3.2,35.2,35.2,0,0,1-5.05-6.92,58.13,58.13,0,0,1-4.05-7.66,18.94,18.94,0,0,1-.85-2.42,51.21,51.21,0,0,1-1.34-6.58,14.23,14.23,0,0,1,.76-6.56q2-5.36,10.92-8.58A25.8,25.8,0,0,1,197,55.45Zm6,17.2a25.16,25.16,0,0,0-3.49-5.35c-1.79-1.83-3.68-2.36-5.64-1.59-2.62,1.06-4.12,2.47-4.48,4.24q-.47,2.23,1.29,6.33c1.52,3.5,2.87,6.41,4,8.73,1.63,3.34,3.65,5,6,4.91a6.71,6.71,0,0,0,2.39-.49,7.63,7.63,0,0,0,3.38-2.9c1.19-1.75,1.25-3.92.19-6.49-.15-.35-.43-.93-.84-1.76Z"/><path d="M268.72,261c-10.76-8.94-22.36-17.81-25.56-20.06s-26.77-16.35-51.47-30.45c-48-27.41-52.08-27.41-53.82-27.41a3.9,3.9,0,0,0-1.15.16c-1.43.41-2.9.83-24.68,28.39-12.29,15.56-28.49,36.57-45.61,59.16s-33,43.91-44.9,60.25C.78,359.56.33,361.71.1,362.87c-.52,2.5.86,5.79,9.46,15.16,5.14,5.6,12.59,13,22.14,22.1,17.08,16.21,36.61,33.6,47.09,42.94,3.5,3.11,6.26,5.56,6.67,6,1.78,1.78,12.91,9.84,24.06,17.19,22.93,15.09,27.25,15.09,28.88,15.09a5.08,5.08,0,0,0,2-.38c1.19-.51,2.66-1.14,26.66-31.5,13.82-17.48,31.83-40.71,50.7-65.39,19.13-25,36.78-48.44,49.7-65.95,23-31.2,23-32.56,23-34.13C290.47,282,290.47,279.08,268.72,261Z"/><path class="cls-1" d="M89.37,445.38l6.3-8.5,16.7-22.36,11.18-14.92c4-5.28,8.19-10.84,12.53-16.6l13.41-17.76,13.86-18.32,51.35-67.31c3.52-4.57,6.82-8.72,9.76-12.37l4.16-5.09,3.58-4.28c2.19-2.57,3.92-4.57,5.13-5.92l1.85-2.06a.27.27,0,0,1,.38,0,.26.26,0,0,1,.05.34l-1.51,2.33c-1,1.51-2.47,3.71-4.38,6.49l-3.2,4.57-3.84,5.34c-2.76,3.79-5.91,8.05-9.41,12.64l-51.64,67.09-14.08,18.15-13.66,17.56L125.11,400.8l-11.5,14.67L96.37,437.41l-6.57,8.3a.28.28,0,0,1-.38,0A.27.27,0,0,1,89.37,445.38Z"/><polygon class="cls-1" points="151.06 365.39 57.08 289.38 85.67 251.24 183.25 323.33 229.38 362.6 200.19 400.78 151.06 365.39"/><path class="cls-1" d="M113.94,304a2,2,0,0,1-1-.3L100,295.51a1.93,1.93,0,0,1-.81-2.21c.79-2.56,19.6-62.88,32.54-81,3.5-4.9,9.28-7.49,16.69-7.49,18.18,0,43.87,15.64,49.08,29.89,5.92,16.19-9.69,30.38-59.65,54.23-6.18,2.95-17.68,8.45-22.4,14.33A1.9,1.9,0,0,1,113.94,304Z"/><path class="cls-1" d="M70.09,392.7c-.79,0-1.58,0-2.34-.1-11.07-.9-20.35-6.41-25.46-15.11-5.27-9-5.41-20-.38-31.07C52.17,323.85,99.56,288.5,101.57,287a2,2,0,0,1,1.16-.38,1.92,1.92,0,0,1,1.29.5L116.1,298a2,2,0,0,1,.41,2.36c-6.48,12,1.82,32.3,7.31,45.74,4.25,10.39,6,15.09,4.17,17.71-3.55,5-35.61,28.86-57.9,28.86Z"/><path d="M199.32,234c-5.43-14.86-32.07-31.17-50.89-31.17v0h0c-8.07,0-14.39,2.87-18.27,8.31-9.51,13.31-22.05,48.83-28.54,68.33a25.24,25.24,0,0,0-15.63,15,3.92,3.92,0,0,0,0,2.3c-15.53,12.73-38.88,33.54-45.83,48.81-5.29,11.64-5.12,23.31.48,32.85,5.44,9.25,15.27,15.11,27,16.06.8.07,1.64.1,2.49.1,23,0,55.37-23.93,59.48-29.67,2.57-3.59.39-8.93-4-19.57-3.76-9.21-8.87-21.72-9.48-32.23a3.85,3.85,0,0,0,1.48-1.38c1.58-2.55,6.4-10.45,8-14.22a145.19,145.19,0,0,1,13.06-6.88c25.59-12.21,41.16-21.34,50.51-29.57C199.38,252.12,202.7,243.26,199.32,234Zm-72.9,128.67c-3.59,5-35.18,28.05-56.33,28.05-.74,0-1.47,0-2.18-.09C46.83,389,33.49,369.59,43.67,347.22,50.33,332.57,73.6,312,88.86,299.47l.14,0a47.61,47.61,0,0,1,16,6.15c-8.44,8.72-21.09,27-8,49.66,3.66,6.35,11.46,8.62,17.54,8.62h0c4,0,7.34-.95,8.66-2.47a2.25,2.25,0,0,0,.59-1.82c-.34-2.39-1.8-5.73-3.65-9.95-4.08-9.33-9.87-22.61-9.53-38.68.13.2.27.4.39.6a3.81,3.81,0,0,0,1.31,1.39C113.21,333.16,129.4,358.54,126.42,362.71ZM137,287.19c-3.27,1.56-7.31,3.53-11.21,5.76a10.58,10.58,0,0,0-1.35-2.38c16.89-8.74,50.49-26.89,63.35-39.35,1.93-1.86,2.48-4,1.62-6.13-2.1-5.18-12.41-9.73-22.06-9.73a27.39,27.39,0,0,0-4.23.32c-5.8.9-15.83,11.2-29.81,30.61-5.12,7.11-9.86,14.2-13.36,19.58-4-3.5-9.56-7-14-7.19,6.6-19.67,18.48-52.86,27.32-65.25,3.38-4.73,8.82-6.69,15.12-6.69,17.8,0,42.5,15.6,47.26,28.63C201.17,250.36,185.6,264,137,287.19Z"/><path d="M182.36,322l-19,24.91L149.69,365l1,.82,1.06.76,13.87-17.88,19.09-24.79-1.15-1Z"/></g></g></svg>