<svg xmlns="http://www.w3.org/2000/svg" viewBox="0 0 177.55 174.17"><g id="Слой_2" data-name="Слой 2"><g id="objects"><path d="M137.58,139.38A81.7,81.7,0,0,1,127.27,117c-3.55-13.21-6.58-26.4-4.25-40.26a137.44,137.44,0,0,0,1.24-15.59c.5-9.57.5-19.09-1.69-28.54a40.37,40.37,0,0,0-4.07-10.9c-3.45-6.14-8.67-10.23-14.28-14.26C93-.6,80.4-.25,67.65.19a7.29,7.29,0,0,0-1.24.37c-7.64,1.68-14.32,5.19-20.67,9.75A33.93,33.93,0,0,0,32.3,29.45c-2.15,8.09-3.45,16.43-2.68,25,.81,8.94,1.16,17.92,2,26.86.9,9.82-.68,19.29-3,28.78-2.53,10.19-5.73,20-11.72,28.8C14.41,142.44,13,147,12,151.24c-1.32,5.47,1.92,10.83,7.18,12.86a46.2,46.2,0,0,0,7.92,2.26c9.76,1.85,19.53,3,28.68-1.91,11.09,13.49,32.58,12.42,42.4,0,12.34,5.89,24.52,3.59,36.56-.26a10.89,10.89,0,0,0,7.42-12.7A38.32,38.32,0,0,0,137.58,139.38ZM33.72,41.87c1.2-7.09,2.45-14.13,6.89-20.37S51.2,11.72,57.47,8.19c2.73-1.54,6-2.21,9-3.1a16.54,16.54,0,0,1,4.28-.48c4.16-.06,8.33,0,12.5,0,5.39,0,10.36,1.85,14.87,4.35,6.84,3.79,13.16,8.27,17.23,15.47,2.74,4.86,3.39,10.13,4.63,15.31a56.26,56.26,0,0,1,1,18.07H113c0-4.26-.08-8.3,0-12.32a43.07,43.07,0,0,0-3.06-16.56c-2.08-5.49-6-9.12-11-11.79a48.59,48.59,0,0,0-20.38-5.66,43.25,43.25,0,0,0-17.84,3.18c-1.89.74-3.75,1.58-5.55,2.5-5.08,2.58-8.95,6.27-11,11.76a43.07,43.07,0,0,0-3.06,16.56c.1,4,0,8.06,0,12.33H32.54C32.9,52.47,32.83,47.09,33.72,41.87ZM108.37,59l-3.75,2.67c-4-4.1-9.23-5.28-14.87-5.58a21.13,21.13,0,0,0-10.19,1.5,5.27,5.27,0,0,1-4.5.31c-9-3.45-17.55-2.5-25.76,3.55l-3.6-2.42c0-4.74.13-9.07,0-13.39-.2-5.33,1.09-10.31,2.87-15.26A16.34,16.34,0,0,1,56,21.68,46.44,46.44,0,0,1,76.08,15.1a22.22,22.22,0,0,1,8.11,1.09,93.32,93.32,0,0,1,12.93,5,16.2,16.2,0,0,1,8.49,9.45c1.7,4.82,3,9.66,2.79,14.84C108.24,49.79,108.37,54.12,108.37,59Zm23.19,102c-5.77,1.28-11.63,2.13-17.46,3.17-5.16-.09-9.82-1.66-14.41-3.52-3.36-1.35-3.3-1.29-5.67,1.58a18.5,18.5,0,0,1-12.21,6.84c-8.83,1.18-16.8,0-22.39-7.91-1.28-1.82-2.88-1.57-4.6-.73-10.34,5.11-21,3.39-31.44.86-6.62-1.6-8.63-5.56-6.7-12.07A29.38,29.38,0,0,1,20.26,141c6.25-9.18,9.57-19.43,11.77-30.15.53-2.55,1-5.12,1.75-7.62,2-7,1.87-14,1-21.12-.58-4.89-1-9.79-1.44-14.7-.35-4.17,1.58-5.87,5.77-5.26a12.4,12.4,0,0,1,7.69,3.58c2.11,2.22,3.33,2,5.53,0a19.17,19.17,0,0,1,22.07-3c1.65.85,2.94,1.2,4.81.26,8.24-4.14,15.86-3,22.75,3,2,1.74,3.26,1.93,5.23-.18,2.27-2.45,5.06-3.26,8.1-3.66,3.82-.51,5.72,1.32,5.41,5.24-.36,4.62-.68,9.26-1.34,13.84a57.61,57.61,0,0,0,1.6,24.94c1.35,4.58,2.41,9.24,3.41,13.91,1.64,7.66,5.41,14.29,9.39,20.9a31.76,31.76,0,0,1,3.88,9.58C138.78,155.77,137.57,159.72,131.56,161.06Z"/><path d="M160.82,47.47c-2.23-.09-3.66,2-3.69,5.47,0,4,1.41,5.45,5.5,5.49,3.71,0,4.8-.94,4.9-4.4C167.63,50.81,164.35,47.61,160.82,47.47Z"/><path d="M156.38,90.72c-.76-.18-2-.14-2.36.31-.53.66-1,2.23-.57,2.66a19.2,19.2,0,0,0,5,4.34c1.48.8,3.18-.85,3.08-2.51C161.42,94.09,158.46,91.19,156.38,90.72Z"/><path d="M4.91,115.42c-.45-.33-2,.19-2.51.8A27.51,27.51,0,0,0,0,120.81l2.29,3.12A11.83,11.83,0,0,0,5,121.77a7.08,7.08,0,0,0,1.24-3.61A3.71,3.71,0,0,0,4.91,115.42Z"/><path d="M174.89,96.61c-1.66-.18-2.82,1.37-2.81,3.54,0,2.39,1.27,4.27,2.87,4,2.19-.32,2.51-2.12,2.59-3.87S177.08,96.84,174.89,96.61Z"/><path d="M9.12,93.9c-1.71,0-3.16.56-3.29,2.54-.09,1.42,1.94,2.77,4.63,2.68.44-.57,1.74-1.52,1.82-2.56C12.42,94.72,10.88,93.9,9.12,93.9Z"/><path d="M109.31,100.93c-4.23,4.22-2.41,10.78-5.79,15.64-1.49-.27-3-.58-4.56-.83-3.61-.57-4.14-.12-4.73,3.59-.47,2.91-1,5.8-1.67,9.27L86.81,126c-4-1.83-5.52-1.42-7.94,2.16-.47.7-1,1.33-1.9,2.41-.94-1.3-1.55-2.1-2.11-2.93-1.85-2.71-3.17-3.24-6.18-2.23-1.22.41-2.32,1.2-3.53,1.67a32.31,32.31,0,0,1-3.33,1c-.45-.73-.69-1-.73-1.22-.46-2.71-.87-5.42-1.31-8.14-.47-3-1-3.4-4-3-1.83.21-3.64.58-5.88,1-1-4.24-1.91-8.16-2.94-12-.39-1.47-.71-3.73-2.72-3.23-1.44.36-2.67,2-3.71,3.32-.45.56-.18,1.69-.25,2.55-.58,6.51,1.13,12.64,3.13,18.72,3.2,9.76,9.89,15.92,19.73,18.4a56.74,56.74,0,0,0,27.53,0c6.17-1.5,11.58-4.44,15.39-9.86,5.64-8,7.62-17,7.78-26.63C113.91,104.51,112.66,102.41,109.31,100.93ZM84.25,141.48a45.86,45.86,0,0,1-19.8-1.13c-10.2-2.86-16-9.76-18.14-19.7h8.95c.48,2.16,1,4.64,1.61,7.11.91,3.84,2.69,5,6.61,4.13a20.22,20.22,0,0,0,3.63-1.38c1-.46,2-1,3-1.53,7.13,7.38,7.16,7.38,13.71,0a57.17,57.17,0,0,0,5.36,2.53c4.71,1.68,7.06.33,8.13-4.47.47-2.1.92-4.21,1.46-6.69a36.5,36.5,0,0,0,4.71.64,26.55,26.55,0,0,0,4.1-.5C105.23,132.73,98.17,139.24,84.25,141.48Z"/><path d="M83.41,99.15a15,15,0,0,0,9.19,3.74c3.08-.68,6.22-1.14,9.21-2.11,3.17-1,3.94-3,2.65-6.11a27.8,27.8,0,0,0-2.58-4.48c-1.81-2.78-3.75-5.47-5.55-8.25-2-3-3.35-3.23-5.4-.2C88,86,85.38,90.5,82.65,94.91A3,3,0,0,0,83.41,99.15ZM93.33,86l7.28,10.4c-4.84,2-9.18,2.62-14.4.66Z"/><path d="M52.25,100.78c2.85.94,5.86,1.4,8.79,2.07a15,15,0,0,0,9.29-3.41c1.5-1.25,2.21-2.7,1.09-4.53C68.69,90.5,66,86,63.13,81.75c-2-3-3.42-2.86-5.39.19-1.8,2.78-3.74,5.47-5.55,8.24a28.29,28.29,0,0,0-2.59,4.48C48.31,97.75,49.1,99.74,52.25,100.78ZM60.72,86c2.41,3.74,4.6,7.13,7.06,11-4.93,2.27-9.26,1.25-14.44-.37C55.89,92.93,58.09,89.78,60.72,86Z"/><path d="M69.34,111.48c-1.08,2.71,0,4.65,2.91,4.86a69,69,0,0,0,9.54,0c3-.2,4.29-2.28,2.89-4.81-2.15-3.88-4.74-7.51-7.62-12-2.61,4-4.73,7.19-6.85,10.42A8,8,0,0,0,69.34,111.48Z"/></g></g></svg>