<svg xmlns="http://www.w3.org/2000/svg" viewBox="0 0 234.11 176.65"><g id="Слой_2" data-name="Слой 2"><g id="objects"><path d="M229.67,166.59a34.52,34.52,0,0,0-4.26.85,15.09,15.09,0,0,1-10.56-.82c-1.95-.87-4.51-.77-6.73-.5a28.37,28.37,0,0,0-6.18,2,11.45,11.45,0,0,1-10.83-1c-5.38-3.56-10.51-3.65-15.64.89-3-4.86-8.26-4.21-13.1-5.57,0-3.89-.33-7.81.1-11.65s-.52-7.49-1.72-11c-1.4-4.2-3.48-4.77-7.22-2.28l-6.07,4c0-8-.09-15.13.1-22.21a5.67,5.67,0,0,1,2.08-3.46c5.06-4.37,8.81-9.24,7.44-16.48a6.76,6.76,0,0,1,0-1.74c.37-4-1-7.45-3.1-10.65a58.17,58.17,0,0,0-5.49-7.29c-3.11-3.49-4.1-7.73-5.33-12.62a31.9,31.9,0,0,0,4.13,1.36c5.15.88,10.35,1.81,15-1.84s4.5-9-.59-12.16c-2.45-1.53-5.13-2.71-7.59-4.23a53.34,53.34,0,0,1-4.65-3.56c.76-.55,1-.8,1.22-.86,2.47-.63,4.23-1.9,4.38-4.68.17-3-1.28-4.67-4.13-6.42a48.13,48.13,0,0,1-7.74-6.16,50.9,50.9,0,0,1-5.31-6.29A5.85,5.85,0,0,0,133,20c-3.24-.14-6.47-.64-10.61-1.09,2.43-1.83,4.12-2.9,5.56-4.25a6.59,6.59,0,0,0,1.77-7.19c-.88-2.81-3.26-2.9-5.68-2.9a46.51,46.51,0,0,1-7.38-.21c-6-.93-12.16-1.49-17.82-3.44C95.05-.41,92.12-.36,89,1.54c-3.7,2.28-7.28,4.74-10.9,7.16C71.51,13.12,64.87,17.51,58.3,22c-2.74,1.88-2.8,2.49-1.21,5.35,2,3.51,4,7,5.87,10.27-3,3.1-5.86,6-8.6,8.94C51,50.18,51,51.36,53.6,55.31s5.24,7.6,8.08,11.69c-1.16,1.39-2.51,3.06-3.91,4.69-3.89,4.54-3.92,6.93-.91,12.09s5.62,10.43,8.37,15.67c1,1.92,1.83,4,2.93,5.82,3.48,5.89,8.18,10,15.36,10.73,4.17.4,8.31,1.26,12.49,1.56,2.51.18,3.31,1.41,3.34,3.56.05,3.34,0,6.67,0,10,0,2.4-.43,4.26-3.35,4.63a3.93,3.93,0,0,0-2.35,1.73c-1.19,1.8-2,3.73-4.74,3.76-.57,0-1.42,1.71-1.62,2.73-.34,1.69-.18,3.47-.35,5.2C86.44,154.6,85.84,160,85.31,165c-3.62.49-6.89.45-9.78,1.49-1.9.69-3.18.85-4.72-.27a37.29,37.29,0,0,0-3.59-2.45A6.3,6.3,0,0,0,59,165.08c-.65.71-1.18,1.52-1.88,2.44-1.46-1.12-2.68-2.13-4-3a14.17,14.17,0,0,0-3.36-1.94c-3.45-1.14-6.11,1.11-5,4.52a15.84,15.84,0,0,0,7.19,9.45c.48.27,1.25,0,2.45,0l-4.32-8,.77-.75c2.49,2.35,4.92,4.77,7.51,7,.76.66,2.19,1.3,2.92,1s1.31-1.71,1.55-2.73c.19-.77-.44-1.71-.37-2.54s.27-2.23.89-2.62,1.91,0,2.73.35c1.82.87,3.49,2,5.3,3s3.88,1.24,5.56-.6c1.46-1.61,3.35-1.38,5.26-1.25,4.61.29,9.23.43,13.83.75,3.3.24,6.57.74,9.86,1,2.86.22,6,1,8.55.21,4.47-1.37,8.77-2.8,13.53-2.22a4.85,4.85,0,0,0,2.91-.7c3.31-2,6.89-1.91,10.54-1.85,5.37.08,10.74-.09,16.1.09a61,61,0,0,1,9.91,1.1,6.67,6.67,0,0,1,3.72,2.51c2.92,4.11,4.2,4.39,7.8,1.13s4.86-3.12,9.26-.92a23.83,23.83,0,0,0,8.95,2.8c2.73.16,5.65-1,8.31-2,3.27-1.25,6.16-1.62,9.6-.14,2.5,1.08,5.6.94,8.44,1a30.27,30.27,0,0,0,5.57-.91,7.31,7.31,0,0,0,0,2.44,16,16,0,0,0,1.75,2.55c.76-.55,1.84-1,2.2-1.69a10.75,10.75,0,0,0,1.1-4.15C234.23,167.46,232.64,166.18,229.67,166.59ZM61.24,25.52c2.94-2.29,5.44-4.47,8.17-6.3C76.15,14.72,83,10.46,89.77,6c2.47-1.65,4.45-1.83,7.49-.8,5,1.69,10.4,2.32,15.68,2.91,3.57.4,7.23-.05,10.85-.05,1.53,0,1.53.1,2.46,2.25A42.42,42.42,0,0,0,120,9.77a4.21,4.21,0,0,0-3.13,1.63c-.76,1.55.81,2.15,2.06,2.64.25.1.47.29,1.56,1-4.71.75-8.69,1.52-12.7,2a67.62,67.62,0,0,1-7.8.27c-3.8,0-5.79,2.11-6.74,5.56-.37,1.37-.88,2.7-1.41,4.32-2.39-.78-4.56-1.46-6.72-2.19-3.46-1.16-6.34-.66-9,2.14S70.41,32,67,34.82C65,31.51,63.19,28.67,61.24,25.52Zm37.85,88.12c-4-.71-8-1.75-12-2-6.47-.34-11.54-2.78-14.63-8.52C68,94.76,63.66,86.26,59,77.29l4.61-5.83c1.79.67,3.31,1.65,4.86,1.7s3.28-.81,5.25-1.36c.15,1.32.23,2.42.41,3.51.47,2.84,1,5.66,1.49,8.5.42,2.58,2.19,3.41,4.48,4a69.64,69.64,0,0,1,7.67,2.89c2,.81,3.93,1.68,5.09,3.78.34.6,1.71.63,2.6.92A10.32,10.32,0,0,0,96,92.7a11.29,11.29,0,0,0-1.25-2.86c4.33-.87,8.38-1.73,12.46-2.49,1.71-.32,3.46-.39,5.18-.65a11,11,0,0,1,9.33,2.55c2.79,2.48,5.53,5,8.3,7.53a6.36,6.36,0,0,0,1.67,1.35c.6.22,1.65.28,2-.07a2.69,2.69,0,0,0,.73-2.24,11.85,11.85,0,0,0-2.37-3.6c-6.31-6.56-13-12-23.17-9.63-5.35,1.26-10.83,1.93-16.17,3.22a8.69,8.69,0,0,1-5.87-.31c-2.11-.91-4.33-1.56-6.74-2.4-1.91-3.81-1.86-8.17-2.19-12.49a21.44,21.44,0,0,0-1.25-6.33c-1.46-3.63-4.2-4.48-7.76-2.73-1.17.57-2.26,1.29-3.93,2.26-2.83-4.17-5.62-8.3-8.61-12.72,1.75-1.86,3.2-3.66,4.9-5.17,6.08-5.37,12.29-10.6,18.36-16a4,4,0,0,1,4.41-.8,69.46,69.46,0,0,1,8.35,3.62c4.84,2.59,9.54,5.43,14.29,8.19.73.43,1.4,1,2.07,1.46-1.78,4.11-2.74,4.57-6.53,3.14-1.6-.61-3.15-1.32-5.1-2.14-.3,1.35-.53,2.38-.79,3.53a8.46,8.46,0,0,1-1.59.16,40.09,40.09,0,0,1-14.73-3.35c-.85-.4-2.07,0-3.12,0,.34,1.14.36,2.61,1.1,3.32,1.1,1,2.72,1.55,4.5,2.48-.81,1.08-1.71,2.13-2.44,3.27-1.4,2.21-1,3.19,1.16,4.87a8.45,8.45,0,0,1,2.36,2.91c1.34,2.73,2.36,5.63,3.74,8.33.42.8,1.63,1.19,2.48,1.77.38-1,1.33-2.21,1-2.93-1.36-3.33-3-6.55-4.67-9.76a27.08,27.08,0,0,0-2.2-3.16c1.54-2.59,3-5,6.49-3.9,2.43.78,5.52-.16,7,3.22a20,20,0,0,0,4.29,5.43,3.35,3.35,0,0,0,2.92.85c1.58-.72,1-2.16.24-3.32-.85-1.32-1.76-2.6-2.81-4.12A48.16,48.16,0,0,0,107.51,50,14.72,14.72,0,0,0,111.4,46c2.08-3.41,1.32-5.89-2.16-8-4.45-2.66-8.95-5.24-13.48-7.88,2.06-8.27,2.07-8.12,9.44-8.42,3.59-.15,7.2-1.57,10.71-1.29,3.32.25,6.51,2,9.79,3a6.45,6.45,0,0,0,3,.28c4.24-.79,6.84,1.61,9.11,4.56,3.24,4.21,7,7.74,12,9.7a2.73,2.73,0,0,1,1,.8,3.75,3.75,0,0,1,.4,1.05c-3.07.56-5.76-2.9-9.35-.67l2.51,3.92c-4.1,1.34-6.9-1.45-10-3a32.22,32.22,0,0,1-4.65-3.19c-4.74-3.5-9.93-3.58-15.34-2.07-1.49.42-3,1-2.47,2.88s2.13,1.58,3.63,1.23c4.88-1.13,9.33-.65,13.57,2.5,2.87,2.14,6.24,4.53,9.58,4.87,4.53.46,6.91,3.29,10,5.62a86.23,86.23,0,0,0,9.72,5.71c1.54.86,3.25,1.52,2.37,4.2L154.52,61c-.12,1.39-.22,2.46-.31,3.47a12.59,12.59,0,0,1-9-1.56,69.22,69.22,0,0,1-6.77-3.86c-1.35-1-2.21-2.61-3.36-3.88a48.42,48.42,0,0,0-4.78-4.93c-.52-.45-2.48-.25-2.61.1a3.8,3.8,0,0,0,.06,3.07,103.42,103.42,0,0,0,7,9.22c1,1.13,2.61,1.69,3.64,2.32,1,4.25,1.89,8.4,2.88,12.78-2.06.68-4.13,1.24-6.1,2-1.38.55-2.84,1.63-1.93,3.24.42.73,2.18.71,3.34,1a.7.7,0,0,0,.42-.09c6.17-3,10-.2,13.09,5,2.45,4.15,4.74,8.22,4.28,13.37a8.4,8.4,0,0,1-3,6.36,48.29,48.29,0,0,1-13,7.77c-1.87.76-5,1.33-4,4.15,1.13,3,3.62,1,5.56.32.53-.18,1.07-.33,2.21-.68v17.31c-2.48.46-5-.49-7.45-1.65-3-1.43-4.23-1-4.75,2.36-.59,3.83-2.91,6.17-5.94,8.09-1.09.7-2.21,1.36-3.3,2.06a5.24,5.24,0,0,1-6.57-.91c-.81-1-1.41-2.19-2.16-3.26-2.41-3.37-2.53-3.39-6.42-1.83-2.3-2-3.14-4-2.72-7.46.69-5.55.18-11.25.12-16.88C103,115.53,101.53,114.08,99.09,113.64Zm46.19,48.55a64.54,64.54,0,0,0-16.14,2.37c-6.16,1.53-12.69,2.28-19.06,3.36a6.91,6.91,0,0,1-2.58-.24c-4.83-1.09-9.66-1.82-14.63-1.08a13.75,13.75,0,0,1-3.05-.34c.72-6.51,1.4-12.76,2.09-19,2.06-.88,2.54-1.45,5.52-6.58,3.64,2.35,4.81,8.69,11.34,6.63,1.45,4.54,5.06,6.13,9.28,6.66,1.08.14,2.52.21,3.29-.37,4.68-3.49,10.64-5.65,12.7-12.46,3.87,1.24,8.07,0,11.35,3.15,1.68,1.63,3.7,1.49,5.59.21s3.53-2.49,5.86-4.15c1.73,7.4.21,14.36,1.06,21.88C153.3,162.2,149.29,162.22,145.28,162.19Z"/><path d="M181.51,120.43a3.72,3.72,0,0,0-.6,3c.13.47,1.64.69,2.55.79a3.52,3.52,0,0,0,1.61-.57c5.42-2.39,10.88-4.69,16.23-7.24a76.65,76.65,0,0,0,8.6-5A10,10,0,0,0,212,109c.07-2.28-1.28-3.12-3.06-2.32-2,.89-3.76,2.16-5.72,3.08-6.14,2.89-12.33,5.68-18.48,8.56A9.57,9.57,0,0,0,181.51,120.43Z"/><path d="M56.16,130.42a15.73,15.73,0,0,0,3.44-1.36c-1.61-1.75-2.56-2.94-3.67-4-5.42-5-10.9-9.86-16.32-14.82a48.81,48.81,0,0,0-3.69-3.65c-1-.76-3-1.77-3.58-1.34-1.77,1.31-.11,2.75.63,4.06a2.88,2.88,0,0,0,.26.35,82,82,0,0,0,21,19.78C54.85,129.89,55.56,130.48,56.16,130.42Z"/><path d="M164.06,124.41c-.51,1.59.59,2.94,2.56,2.87a5.35,5.35,0,0,0,1.59-.8c6.27-5.73,12.54-11.46,18.66-17.35.66-.63.33-2.29.46-3.47a15.66,15.66,0,0,0-3.52-.27c-.77.11-1.46.87-2.16,1.37a86.58,86.58,0,0,0-16.23,15.48A6.82,6.82,0,0,0,164.06,124.41Z"/><path d="M46,95.24c1.37,1.3,2.83,3.7,5,1.63s-.09-3.65-1.34-5.12c-3.65-4.26-7.36-8.47-11.05-12.69-1-1.2-2.06-2.44-4.14-1.5.09.61.11,1.15.24,1.66C36.42,86,41.11,90.67,46,95.24Z"/><path d="M8.76,151.76a5,5,0,0,0-3.65,1.66c-1.13,1.49-.79,3.26.93,4.41,4.72-2.24,5.92-2,7.47,2.64-2.48,0-4.46.08-6.43,0-4.63-.24-4.73-.39-4.71-5,0-.17-.35-.35-.53-.53-3.3,4.57-2.11,7.78,3.16,8.22a34.78,34.78,0,0,0,6.92-.05,4.84,4.84,0,0,0,3.74-7.41A8.18,8.18,0,0,0,8.76,151.76Z"/><path d="M177.93,79.91c.77.36,2.18.51,2.71,0A28.45,28.45,0,0,0,189,67.13c-4.91,2.4-8.31,6.25-11.25,10.53C177.36,78.17,177.56,79.75,177.93,79.91Z"/><path d="M37.75,128.09A38.61,38.61,0,0,0,30.33,126c-.91-.18-2,.45-3.32.8,2.33,4.34,6.18,4.81,9.71,5.59.88.2,2.05-.94,3.09-1.46C39.14,129.93,38.67,128.47,37.75,128.09Z"/></g></g></svg>