<svg xmlns="http://www.w3.org/2000/svg" viewBox="0 0 228.22 212.16"><g id="Слой_2" data-name="Слой 2"><g id="objects"><path d="M224.12,153.63c-5.51,0-11,.1-16.52.38-8.11.43-16.21.85-24.28-.63-5-.91-10-1.86-15-2.6-2.49-.37-3.89-1.46-4.31-4-.71-4.42-1.4-8.87-2.46-13.22-2.39-9.84-5-19.63-7.52-29.45a22,22,0,0,1-.51-3.43c-.38-4.48-.48-9-1.12-13.43-2.26-15.93-2.43-31.76,1.48-47.49,3.32-13.32,9.79-25,18.28-35.66a12.41,12.41,0,0,0,1.3-3C172.37.72,171.17-.15,170.14,0c-9,1.46-17.95,3.11-26.44,6.75C134,10.94,125.44,16.89,117,23.06a43.36,43.36,0,0,0-7.51,7.2c-11.78,14.05-19,30.61-23.83,48-3.86,13.77-5.88,28.05-8.74,42.1-2.08,10.2-4.19,20.39-6.15,29.88-5.41,1.49-10,2.78-14.59,4A101.16,101.16,0,0,1,44.81,157c-9.17,1.33-18.39,2.27-27.59,3.43S6.53,163.92,12,172.09a67.32,67.32,0,0,0,8.1,9.66C26.7,188.38,33.9,194.09,43,197.08s18,6.59,27,9.58c4.08,1.34,8.43,1.89,12.67,2.7,1.7.33,3.48.26,5.18.59a138.71,138.71,0,0,0,27.23,2.2c11.32,0,22.6,0,33.82-1.81,6.28-1,12.61-1.76,18.92-2.64,10.71-1.5,21.08-4,30-10.65,3.72-2.78,7.36-5.66,11.09-8.43a28.49,28.49,0,0,0,8.93-10.53c3.54-7.44,6.69-15.06,10.36-23.39C226.24,154.16,225.18,153.62,224.12,153.63ZM163.9,167.72c-5.91,4-15.28,6.64-32.21,8.95-.49-4.77-1-9.54-1.51-14.78,10.8-.42,20.82-2.72,30.46-8.26C161.87,159,162.9,163.38,163.9,167.72Zm-85.22-30.4c3.81-18.86,6.91-37.9,11.49-56.58,4.26-17.4,11.62-33.67,23.22-47.68a27.63,27.63,0,0,1,4.25-4.33c10.7-8.27,21.78-15.95,34.77-20.25,4.09-1.35,8.34-2.23,12.52-3.33l.57.78c-1.56,2.42-3.06,4.88-4.7,7.24-7.65,11-11.28,23.39-13.33,36.39-2,12.43-1.08,24.84.28,37.25.58,5.32.93,10.66,1.4,16a14.12,14.12,0,0,0,.32,2.15c2.46,9.81,5,19.6,7.36,29.45,1.15,4.92,1.83,9.94,2.77,15.17-6.68,3.59-13.46,6.77-21.09,7.36-6.78.51-13.62,1.25-20.38.84-9.21-.55-18.39-1.92-27.53-3.3-5-.75-9.83-2.23-15.13-3.47C76.6,146.23,77.78,141.8,78.68,137.32Zm31.11,30.4a14.93,14.93,0,0,0-3.77-.55v-5.45l20,.89c.45,4.58.89,9.2,1.42,14.6l-24.3-1,1.68-4.36a26.86,26.86,0,0,0,4.75-.3c.82-.18,1.45-1.16,2.16-1.78C111.08,169,110.57,168.05,109.79,167.72ZM74.46,155.2l27.4,5.92c-.83,4.32-1.68,8.76-2.52,13.08C93,174.69,76,170,71.11,166.31,72.25,162.54,73.32,159,74.46,155.2ZM221,160.75c-1.71,3.84-3.47,7.66-5.24,11.47a40.44,40.44,0,0,1-11.91,15.31c-4,3.11-8.18,6-12.3,9a7.55,7.55,0,0,1-2.28,1.23c-8.65,2.36-17.08,5.55-26.14,6.27-4.89.39-9.74,1.36-14.63,1.91-8.6,1-17.13,3-25.9,1.82a44.44,44.44,0,0,0-7.39-.12,104,104,0,0,1-25.91-2.29,49,49,0,0,0-7.78-.66c-6.53-.38-12.2-3.53-18.21-5.56C57,197,50.75,194.63,44.4,192.59c-7.68-2.47-13.85-7.23-19.53-12.66a131.79,131.79,0,0,1-9-10.05,45.39,45.39,0,0,1-3-4.62c2.92-.43,5.12-.79,7.33-1.07,9.18-1.17,18.43-2,27.53-3.59,5.23-.92,10.24-3.12,15.35-4.7,1.76-.54,3.55-1,5.32-1.42l1,.84c-1,4-2,8-3.09,12.56a30,30,0,0,0,11.92,6.74c17.13,4.94,34.61,7.39,52.4,6.06a98.11,98.11,0,0,0,34.42-8.49c4.29-2,4.51-2.82,3.3-7.42-.85-3.21-1.52-6.47-2.39-10.2,9.68.27,18.54,4.3,28,3.8,9.24-.5,18.49-.71,28.18-1.07C221.71,158.69,221.45,159.76,221,160.75Z"/><path d="M90.59,129.4a3,3,0,0,0-2.42-1.2c-.58,0-1.36.94-1.67,1.62a2.65,2.65,0,0,0-.21,1.5c0,1.62-.05,2.2,0,2.77.16,1.57.76,2.91,2.55,2.86s2.51-1.42,2.5-2.95A13.18,13.18,0,0,0,90.59,129.4Z"/><path d="M94.49,127.93h1.16c.6-1.09,1.73-2.23,1.65-3.27a4.57,4.57,0,0,0-2.1-3.15c-1.19-.64-2.79,1.24-2.47,3.09C92.94,125.79,93.88,126.83,94.49,127.93Z"/><path d="M146.46,24a1.85,1.85,0,0,0-2.12-2.43,4.72,4.72,0,0,0-2.77,2.68c-.24.66,1,1.87,2.05,3.57C145,26.13,146.12,25.21,146.46,24Z"/><path d="M197.51,173.2a2.69,2.69,0,0,0,2.4-3c0-1.6-.73-2.78-2.42-3-1.53-.2-2.88,1.29-2.88,3S196,173.44,197.51,173.2Z"/><path d="M187.69,120a8.72,8.72,0,0,0,5.8,5.45,2.58,2.58,0,0,0,3.46-2.67c-.15-2-5.4-6.27-7.37-5.94C187.81,117.09,187.06,118.28,187.69,120Z"/><path d="M11.93,156.24c1.11-.15,2.08-1.29,2.68-1.7.19-2.82-1.41-5.28-3-5.42a2.49,2.49,0,0,0-2.92,2.42C8.37,153.77,10.1,156.49,11.93,156.24Z"/><path d="M0,125.89a3.28,3.28,0,0,0,2.21,2.37c.87.11,1.91-1.1,3.55-2.18-1.58-1.2-2.54-2.49-3.43-2.45A3.26,3.26,0,0,0,0,125.89Z"/><path d="M184.85,45.43c1.1-.28,2-1.63,3.41-3-1.37-1-2.13-2-3-2.12-1.71-.23-2.56,1-2.59,2.63C182.62,44.46,183.36,45.8,184.85,45.43Z"/></g></g></svg>