<svg xmlns="http://www.w3.org/2000/svg" viewBox="0 0 153.84 202.64"><g id="Слой_2" data-name="Слой 2"><g id="objects"><path d="M141.71,25.26c-4.33-3.21-9.63-2.66-14.4-4,3.29-7.15,11.62-8,16.3-14-1.26-.31-2-.76-2.52-.57a30.58,30.58,0,0,0-5.91,2.66Q123.5,17,112,24.84c-2.35,1.6-4.67,2.71-7.64,2.56C98.2,27.1,94,23.67,90,19.42A9.68,9.68,0,0,1,87.19,10a33.27,33.27,0,0,0,.4-7.8c0-.75-1-1.47-1.62-2.21-.75.71-1.92,1.3-2.16,2.16-.47,1.64-.16,3.51-.65,5.15-.38,1.23-1.24,2.79-2.31,3.26A49.13,49.13,0,0,1,65.94,15c-5.66.57-10.41-.31-12.8-6.24-.11-.27-.21-.62-.43-.75-.57-.35-1.46-1-1.75-.81a3.07,3.07,0,0,0-1.32,2,3.91,3.91,0,0,0,.76,2.43,6.6,6.6,0,0,1,.8,5.82c-.83,3.23-1.36,6.61-2.7,9.62a48.79,48.79,0,0,1-5.66,9.14c-1.82,2.43-4.35,3.12-7.35,1.65a5.5,5.5,0,0,0-3.66-.35c-4.19,1.2-4.54,1.14-6.36-2.56-1.11-2.26-2-4.68-4.93-7,.54,3.45.93,5.91,1.34,8.48-3.85-1-7.32-2-10.87-2.69-.74-.14-1.73.95-2.6,1.48.62.69,1.11,1.79,1.87,2,4.3,1.31,8.62,2.55,13,3.54a37.52,37.52,0,0,0,9.42,1.34c5-.17,7.81,3.06,9.4,6.55a28.18,28.18,0,0,1,2,18.28,8.76,8.76,0,0,1-2.31,4.5c-3.51,3-7.29,5.65-11.07,8.29a31.15,31.15,0,0,1-4.57,2.21c-1.9-2.81-1.91-6.57-5.94-7.61-.07,1-.39,1.76-.13,2.26,3.07,6,4.36,12.94,9,18.17A5.69,5.69,0,0,1,30.34,97a3.8,3.8,0,0,1,0,2.45c-3.58,6.71-7.66,13.06-14.54,16.87a7.74,7.74,0,0,1-4.47.52c-1.69-.22-3.28-1.14-5-1.52-.68-.15-1.94.12-2.16.57a2.54,2.54,0,0,0,.46,2.27,12.34,12.34,0,0,0,2.53,1.59c.82.56,1.9,1,2.31,1.84,3.08,5.93,6.27,11.87,6.35,18.77.05,4.38-.53,8.59-6.2,9.29a2,2,0,0,0-1.18.51c-.37.38-.88,1-.77,1.38A2.6,2.6,0,0,0,9,153.06a3.44,3.44,0,0,0,2.11.05,16,16,0,0,1,16.33,4.28,48.34,48.34,0,0,1,7.87,9.7c2.7,4.69-.1,11.23-5.09,13.11-2.58,1-5.26,1.65-7.84,2.59-1.59.58-3.82,1.18-3,3.42.74,2.09,2.69.95,4.16.53,2.61-.73,5.21-1.53,8.9-2.62-2.45,5.37-4.49,9.68-6.39,14-.61,1.42-1.51,3.42.37,4.24,2.25,1,2.42-1.52,2.94-2.79,3.37-8.17,6.78-16.34,9.82-24.63,1.16-3.17,3-5,6.19-5.2,4.58-.27,9.18-.27,13.76-.09a9.2,9.2,0,0,1,9.06,6.84,16.68,16.68,0,0,0,2,4.33c.51.75,1.73,1,2.63,1.49.3-1,1-2.12.81-3-.52-1.93-1.73-3.68-2.28-5.62s-1.24-4.09-.75-5.86c1.26-4.61,3.08-9.17,6.93-12.33,6.13-5,12.56-9.47,21.21-6.61a3,3,0,0,0,1.71.16c.75-.23,2-.76,2-1.14a3,3,0,0,0-1.16-2.35A37.1,37.1,0,0,0,95,143.8a4.59,4.59,0,0,1-3.15-2.48c-4.21-6.66-5.62-13.83-5.06-21.59.17-2.41.94-4.08,3-5.3s4.61-2.3,6.06-4.13a27.53,27.53,0,0,1,11-8.77,7.06,7.06,0,0,0,2.16-1.94,28.77,28.77,0,0,1,2.7-3.19c4.15-3.4,8.45-6.62,12.59-10,1.19-1,3-1.82,2.38-4.71-6.44,1.79-10.65,6.91-16,9.89L104,82.83c1-3.77,1.82-7.72,3-11.57,1.48-4.87,5.13-8.33,8.38-12,3.12,0,6.24.09,9.34-.1,1.13-.07,2.89-.58,3.18-1.33.67-1.78-.94-2.55-2.43-2.81a57.59,57.59,0,0,0-6.91-.81c-2.88-.13-4.47-1.65-5.47-4.18a32.14,32.14,0,0,1-2-13.22A12.24,12.24,0,0,1,125,25c4.31.61,8.6,1.25,12.9,1.92C139.38,27.16,140.73,27.26,141.71,25.26Zm-55.42-5a31.08,31.08,0,0,0,15.18,9.93c-4.55,4.32-5.65,3.74-12.12.23C85.74,28.46,84.84,25,86.29,20.25ZM31.57,124.35l8.19-10.26c1.13,2.75,4.47,5.42.66,9.54C37.21,127.1,34.49,124.73,31.57,124.35Zm.69,15c-.95-3.55-1.9-7.11-2.84-10.6,4.8,0,6.51,1,7,4A6,6,0,0,1,32.26,139.36Zm24.47-17.69L60.44,126l-6.13,3.71-.69-.6Zm-8-11c-4,.24-6.56-1.49-8.39-5.56,2.87,0,5.84.21,8.77-.06s5.92-1,9.18-1.63C56.84,108.78,54.85,110.27,48.73,110.64Zm10.4,4.71,10.46,5.59-4.7,2.56C59.57,120,58.19,117.92,59.13,115.35Zm-3.52-14.5c-5.64,2.22-11.44,1.42-17-.52-1.17-.41-2.18-1.83-2.87-3-1.52-2.61-2.78-5.37-4.1-8,5,1.53,10,3.64,15.12,4.41s10.37.17,15.86.17C62.08,97.82,58.81,99.59,55.61,100.85ZM40.29,130.72l6.27,1.67.21.93-6.48,3Zm4.83-16,9.31-1.3c-.13,2.27-.53,4-2.9,3.65C49.37,116.67,46.18,119,45.12,114.67Zm9.41,31.78,2.62,5.5H46.78C47.26,147.21,47.26,147.21,54.53,146.45Zm0-10,.59-.88,6.74,1.84-4.25,5.14C56.51,140.23,55.54,138.33,54.58,136.43Zm20.39,6L61.82,152.59c-.8-1.86-1.75-4-2.74-6.32C64.83,137.38,66.88,136.94,75,142.43Zm-8-9.88c-1.35-3.56-1.14-4.38,2.28-6.19.76-.4,1.57-.73,2.64-1.21l3.4,12.34C72.36,135.61,68.47,136.59,66.92,132.55Zm6.67-13.66c-2.21-1.23-4-2.42-5.9-3.26-6.75-2.95-7.75-7-2.68-13.9,4,5.73,8.07,10.77,15.35,13.47Zm-13-53.19c5,1.15,9,7.08,7.79,12-.46,1.94-1.06,3.84-1.66,6-5.35-4.77-9.46-10.53-16.76-13C53.36,67.76,55.83,64.59,60.57,65.7ZM48.48,66c-.64-6.79-1.26-13.33-1.89-20a1.76,1.76,0,0,1,.8,0c2.24.77,4.48,1.59,6.71,2.39.5,3.83,1,7.66,1.46,11.51a2.14,2.14,0,0,1-.85,1.43C52.58,63,50.39,64.61,48.48,66ZM61.09,50.78c-.32,2.31,1.79,5.37-1.94,7.14-.32-3.28-.62-6.22-.92-9.33C60.22,48.26,61.31,49.16,61.09,50.78Zm-2.63-7.46L62.9,32.93c3.8,3,4.51,4.59,3.27,7.25C65,42.68,62,43.92,58.46,43.32Zm3.88,18.16,3.84-2.88L72,62.38l-1.36,6ZM76.63,61c.62-2.63,1.12-4.78,1.83-7.77l4.93,6.43ZM90.51,71.74H73.84q.94-3.48,1.82-6.64C85.17,61,87.77,62.22,90.51,71.74ZM76,35.17c-4.5,1.14-5,1-8.67-4.55l12.55-2.79C79.23,30.45,80.46,34,76,35.17Zm-5.81,5.94c1.45,1.84,2.82,3.57,4.2,5.3l-.42.81-7.22-1.63Zm3.18,36.5a6.28,6.28,0,0,1,3.78-2.48c5.17-1.35,10.37-.64,15.33,1,1.67.53,2.83,2.65,4.22,4-9.1-1.69-10.49-1.47-25.41,4.53C72,82.16,72.28,79.69,73.36,77.61Zm20.52-10c-1.09-1.62-2-3.22-3.15-4.64-1.86-2.31-.5-4.4.41-6.41,1-2.3,3.13-1.49,4.93-1.18a23.73,23.73,0,0,1,2.55.73Zm-.14-17.29c-.39-3.46-2.14-6.79.59-10.3l5.23,11.37Zm-10-19.1,8.48,4.83L89,38.58C87.39,36.06,82.67,36.12,83.71,31.24Zm4.9,12.9c.25,2,.44,3.52.69,5.6l-7.54-.87c-.09-.22-.19-.44-.29-.67ZM81.86,13.92c.38,5.73-4,11.33-9.11,12.23-7.06,1.23-10.79-.87-12.69-7.53C67.87,19.58,75,17.37,81.86,13.92ZM43.39,40.48c7.4-5.29,9.19-12.94,11.14-20.64,6,6.42,5.64,12.33,2.32,18.14C54.34,42.39,52.08,42.75,43.39,40.48Zm-2.45,36c4.11-3.61,8.08-2.9,11.86-.18a98.17,98.17,0,0,1,9.73,8.53c1,1,1.6,2.34,2.84,4.22-12.56,1.85-24.11,2.12-34.64-5.42C34.1,81.32,37.81,79.24,40.94,76.5Zm-8,25.19c3.72,5.36,3.71,12.21,0,15.66-4.75,4.44-8.43,6.82-14.29,1.92A39.78,39.78,0,0,0,32.91,101.69ZM18.79,146.61c2.38-8.58-.62-15.78-4.43-23.79,5.73,2,10.32,3.73,12.18,9a13.85,13.85,0,0,1,.94,2.88c.59,5.26.51,8.12-4.84,10.15C21.57,145.28,20.55,145.81,18.79,146.61Zm21.54,10c-.63,2.5-1.38,5-2.09,7.44A46.67,46.67,0,0,0,24,149.7c.39-.47.58-.94.89-1,2.37-.78,4.65-3.72,7-2.13,3.16,2.11,5.64,5.23,8.31,8C40.56,154.94,40.49,156,40.33,156.61ZM35.44,144c1.05-1.49,2.24-1.63,3.38-.22a47.52,47.52,0,0,1,3.64,5.24c.17.28-.48,1.06-.84,1.77Zm7,21.26c.79-3.51,1-7.46,5.41-9.31,4.63-1.92,11.1.29,13.19,4.81l2.43,5.32ZM67.52,165c-.65-1.27-1-2.08-1.44-2.79-3.31-5.09-.87-8,2.62-11.16,2.22-2,5-3.4,7.53-5.06a7.49,7.49,0,0,1,8.56-.11C77.14,150.64,75.72,149.25,67.52,165Zm21.27-23.23c-4.73,0-7.66-1.32-9.27-5.51a41.11,41.11,0,0,1-3.19-13.64l7.11-4C82.57,127.27,84.17,134.72,88.79,141.81ZM85.6,112c-1.76,1.23-3.59.82-5.35-.11-5.16-2.72-8.84-7-11.88-11.8a4.15,4.15,0,0,1,0-4.48c4.44,2.12,8.53,4.59,13,6s9,1.87,14.55,2.94C92.1,107.3,88.88,109.68,85.6,112Zm21.62-17.84c-4.47,5.74-10.44,8.34-18,6.21A129.54,129.54,0,0,1,75.62,96.1c-2.27-.91-4.06-3-6.61-4.93,6.52-5.83,13.06-8.57,20.65-7.73C97,84.26,103.88,86.36,107.22,94.14Zm-5.5-14.73C98,76.51,96.31,73.55,98,69.35c1.32-3.19,2.45-6.46,3.73-9.66.92-2.33,2.45-3.42,5.08-2.5a41.2,41.2,0,0,0,5,1C105.58,64.16,102.78,71.27,101.72,79.41Zm9.64-26-7.48-1.27c-.91-2.16-1.56-4.07-2.48-5.83-3.37-6.43-2.59-9.19,3.74-12.55.62-.33,1.28-.58,2.59-1.17C107.17,39.79,107.31,46.5,111.36,53.4Z"/><path d="M6.31,92.88c1.36-1.84-1.54-6.5-4.57-6.51A6.91,6.91,0,0,0,.09,88.45c-.55,1.66,1.53,5.12,3.36,5.46A3.46,3.46,0,0,0,6.31,92.88Z"/><path d="M150.67,47.38c-.65,1-1.82,1.92-1.81,2.88s1.16,2,1.81,2.93L153.84,50Z"/><path d="M13.59,96.51c.82-.05,1.58-1.14,3.13-2.36a28.68,28.68,0,0,0-4.39-2.58c-.3-.11-1.64,1.24-1.61,1.87C10.81,95.08,11.71,96.61,13.59,96.51Z"/><path d="M144,39.47c-2.72.48-5,2.27-4.58,3.75a2.38,2.38,0,0,0,1.82,1.32c1.75,0,3-2.06,3-4.75C144.3,39.68,144.12,39.57,144,39.47Z"/></g></g></svg>