<svg xmlns="http://www.w3.org/2000/svg" viewBox="0 0 112.64 112.64"><defs><style>.cls-1{fill:none;stroke:#212121;stroke-miterlimit:10;stroke-width:2px;}</style></defs><g id="Слой_2" data-name="Слой 2"><g id="OBJECTS"><path class="cls-1" d="M110.47,56.32c-18.8,9.76-22.75,18.6-15.86,38.29-19.69-6.89-28.53-2.94-38.29,15.86C46.56,91.67,37.72,87.72,18,94.61,24.92,74.92,21,66.08,2.17,56.32,21,46.56,24.92,37.72,18,18,37.72,24.92,46.56,21,56.32,2.17,66.08,21,74.92,24.92,94.61,18,87.72,37.72,91.67,46.56,110.47,56.32Z"/><path class="cls-1" d="M95.43,56.32C81.86,63.37,79,69.76,84,84c-14.22-5-20.61-2.12-27.66,11.45C49.27,81.86,42.88,79,28.66,84c5-14.22,2.12-20.61-11.45-27.66,13.57-7,16.43-13.44,11.45-27.66,14.22,5,20.61,2.12,27.66-11.45,7,13.57,13.44,16.43,27.66,11.45C79,42.88,81.86,49.27,95.43,56.32Z"/><path class="cls-1" d="M80.19,56.32c-8.29,4.3-10,8.2-7,16.88-8.68-3-12.58-1.3-16.88,7-4.3-8.29-8.2-10-16.88-7,3-8.68,1.3-12.58-7-16.88,8.29-4.3,10-8.2,7-16.88,8.68,3,12.58,1.3,16.88-7,4.3,8.29,8.2,10,16.88,7C70.16,48.12,71.9,52,80.19,56.32Z"/><path class="cls-1" d="M68.07,56.32c-4.08,2.12-4.94,4-3.44,8.31-4.27-1.5-6.19-.64-8.31,3.44-2.12-4.08-4-4.94-8.31-3.44,1.5-4.27.64-6.19-3.44-8.31,4.08-2.12,4.94-4,3.44-8.31,4.27,1.5,6.19.64,8.31-3.44,2.12,4.08,4,4.94,8.31,3.44C63.13,52.28,64,54.2,68.07,56.32Z"/><line class="cls-1" x1="56.32" y1="2.17" x2="56.32" y2="110.47"/><line class="cls-1" x1="18.03" y1="18.03" x2="94.61" y2="94.61"/><line class="cls-1" x1="2.17" y1="56.32" x2="110.47" y2="56.32"/><line class="cls-1" x1="18.03" y1="94.61" x2="94.61" y2="18.03"/></g></g></svg>