<svg xmlns="http://www.w3.org/2000/svg" viewBox="0 0 189.65 141.84"><g id="Слой_2" data-name="Слой 2"><g id="objects"><path d="M17,67.45a3.83,3.83,0,0,0-2.56,2.22c-.5,1.77,2.34,4.64,5,4.74.35-.47,1.29-1.2,1.48-2.1C21.35,70.37,18.81,67.16,17,67.45Z"/><path d="M162.52,49.57c-4.05-6.12-8.83-11.81-15.88-15.07-10.87-5-21.94-9-34.18-8.35a5,5,0,0,1-5.35-5.28q0-7.19,0-14.36c0-2.13-.36-4-2.36-5.26a9,9,0,0,0-10.46,1,36.79,36.79,0,0,1-3.79,2.89c-3.88,2.54-4.12,3.62-2.22,7.8,1.35,3,2.39,6.08,3.56,9.1-4.57,3-8.37,4.83-13,3.9a9.89,9.89,0,0,0-4.31.31C68.69,27.72,62.76,29.1,57,31,44.81,35,36.22,43.16,30.47,54.59c-5.4,10.73-7.38,22.18-7.85,34-.28,7,.13,13.89,2.45,20.59,3.08,8.86,7.31,17,13.67,24a18.4,18.4,0,0,0,10.37,6c6.5,1.17,13.1,1.86,19.67,2.64a3.68,3.68,0,0,0,2.82-.71c1.94-2.24,4.37-1.82,6.82-1.78,1.58,0,3.36.27,4.72-.34,2.31-1,4.21-.44,6.2.52a18.79,18.79,0,0,0,17.12,0,7.47,7.47,0,0,1,2-.8,9,9,0,0,1,2.92-.08c5.92,1.07,12.06.46,17.85,2.47a5.57,5.57,0,0,0,1.3,0c4.83.42,9.44-.88,14.15-1.63a20.68,20.68,0,0,0,12.74-6.76c7.78-8.75,13.21-18.9,14.87-30.43,1.08-7.5.61-15.31.08-22.93A61.3,61.3,0,0,0,162.52,49.57ZM91.39,9.62C95.29,8.49,97,3.05,102.77,5V22.11l-6.24-.54Zm-44,124.29c-4.76-1.71-7.6-5.84-10.14-9.83-4.6-7.25-8.42-14.94-9.61-23.58a66.37,66.37,0,0,1-.48-10.83c.28-11.69,2.16-23,7.59-33.6,5.88-11.42,13.76-18.14,26.13-21.66C52,46.35,46,59.22,43.25,73.27a84.06,84.06,0,0,0-1.12,24.62c.67,6.27,3.52,12.55,6.48,18.27,6.47,12.51,8.27,12.31,18,20.59A44.5,44.5,0,0,1,47.39,133.91Zm78.45-1.43c-3.06,1.94-6.41,1.5-9.64,2.07-.43.08-1.09-1.73-1.65-1.74-2,0-4.23-.2-5.81.69-7.23,4-14.26,4.19-21.45,0-3-1.72-3.2-1.56-6.76.81a1.75,1.75,0,0,1-1.17.28c-3.49-.7-7.06-.51-10.35-2.71a49.65,49.65,0,0,1-19-23.13c-6.83-16.7-4.33-32.94,1.85-49.05,1.66-4.33,3.8-8.47,5.82-12.65,2.69-5.6,6.92-10,11.48-14.08,2.75-2.46,6.36-2.44,9.77-3,.08.42.25.82.15.9-7.85,6.62-8.82,16.31-11.25,25.33-.69,2.54.16,4.57,3.3,5.74.34-1.66.6-3.29,1-4.87,1.45-5.3,2.22-11,4.64-15.79,4-7.91,10.44-13.49,19.47-15.27,4.24-.83,8.09.87,11.44,3.21,6.29,4.37,11.66,9.49,13.24,17.58,1,5,2.57,10,3.9,15,2.69-.93,3.77-2.88,3-5.45-1.76-6.26-3.6-12.52-5.71-18.67-.57-1.69-2.17-3-3.35-4.49-.78-1-1.67-1.84-2.82-3.1,5.73.05,9.9,1.8,13.63,5.6,8.33,8.47,12.4,19.14,16.37,29.88,3.59,9.71,4.29,19.93,3.33,30-.54,5.61-2.85,11.21-5.14,16.48C140.47,120.94,133.9,127.4,125.84,132.48Zm42.73-34.64a39.72,39.72,0,0,1-2.67,11.37,60.79,60.79,0,0,1-11.24,19.94,17.86,17.86,0,0,1-10.24,6c-4.81,1-9.56,2.21-15,1.51,2.27-2,4.18-3.87,6.3-5.47,6.72-5.09,10.59-12.24,13.84-19.67,8.12-18.54,5.33-36.85-2.23-54.74-3.25-7.69-6.19-15.69-12.22-22,11.81,3,20.24,10.11,25.76,20.86C167.71,68.93,169.21,83.23,168.57,97.84Z"/><path d="M149.78,23.49c2.44-.06,5.5-2.85,5.68-5.19.17-2.12-2.07-4.27-4.52-4.33a4.66,4.66,0,0,0-4.47,4.87C146.47,21.9,147.63,23.53,149.78,23.49Z"/><path d="M70.49,18c1-.19,1.87-1.24,2.45-1.65,0-2.6-2-4.71-3.64-4.29a3.52,3.52,0,0,0-2.15,2.15C66.76,15.85,68.89,18.25,70.49,18Z"/><path d="M1.85,7.5C1.43,8,.24,8.77.06,9.74A2.64,2.64,0,0,0,2.66,13c1.71.16,2.67-.91,2.89-2.53S4.38,7.52,1.85,7.5Z"/><path d="M76.74,9.5c.89-.25,1.58-1.22,2-1.58-.09-2.48-2.18-4.77-3.58-4.27A3.47,3.47,0,0,0,73.26,6C73,7.69,75.26,9.91,76.74,9.5Z"/><path d="M189.49,116.88A2.94,2.94,0,0,0,187,116c-2,.72-3.91,1.82-3.51,4.78a4.75,4.75,0,0,0,5.64-1.63C189.58,118.61,189.83,117.24,189.49,116.88Z"/><path d="M141.93,84.46c-.22-1.45-.66-3.5-1.68-4.08-1.86-1.06-3,1-4.19,2.21a4.51,4.51,0,0,0-.53.69A44.14,44.14,0,0,1,119,97.53c-1.14.56-2.18,1.31-3.46,2.1.74,2.21,1.4,4.26,2.1,6.29.57,1.67,1.4,3.43-1,4.4-1.87.77-3.7-.17-4.83-2.34-.61-1.16-1.24-2.3-1.75-3.5-.92-2.17-2.45-2.85-4.82-2.76-4.89.19-9.8.18-14.69,0-2.35-.09-3.86.59-4.82,2.75-.87,2-2,3.84-2.89,5.67-5.64-.55-6-1.21-3.87-6.1.59-1.31,1-2.68,1.72-4.39-1.76-1-3-2.06-4.53-2.51C69,95,64.73,89.53,60.67,83.8a15.05,15.05,0,0,0-2.29-2.62c-2.11-1.84-3.94-1.34-4.35,1.35-1,6.48-1.46,13,1.16,19.27A54.74,54.74,0,0,0,71.41,124c6.4,5.2,13.6,6,21.07,6.75a5.13,5.13,0,0,0,1.82-.52,5.07,5.07,0,0,0,.34-1.08c0-1.16-.13-2.32-.16-3.48-.1-3.34.63-4.39,3.17-4.56,3.11-.21,4.44.91,4.82,4.2.19,1.69.24,3.4.37,5.34,8.1-.47,15.36-1.39,21.71-6.85C136.69,113.31,144.46,101.22,141.93,84.46Z"/><path d="M113.2,85.58c2,3.8,4.58,4.38,8.29,2.09,6.74-4.14,11.33-10.19,14.72-17.2a42.52,42.52,0,0,0,1.8-5.74,10.77,10.77,0,0,0-1.92-2.93c-1.42-1.14-3-.67-4.41.37-5.92,4.42-12.9,6.42-19.76,8.67-2.93,1-3.72,1.79-2.81,4.73A61.31,61.31,0,0,0,113.2,85.58Z"/><path d="M59,68.77c1.78,3.13,3.67,6.2,5.37,9.37,2.35,4.4,6.43,6.94,10.29,9.7.89.65,2.12.84,3.85,1.49,1.13-.9,2.88-1.66,3.59-3a63.89,63.89,0,0,0,4.45-10.31c1.14-3.5.38-4.2-3-5.32-6.44-2.13-13-4-18.63-8.05-1.73-1.26-3.51-2.21-5.55-.75s-1.18,3.38-.94,5.2A4.86,4.86,0,0,0,59,68.77Z"/></g></g></svg>