<svg xmlns="http://www.w3.org/2000/svg" viewBox="0 0 130.79 113.31"><defs><style>.cls-1{isolation:isolate;}.cls-2{fill:#212121;}.cls-3,.cls-6{fill:#f5f5f5;mix-blend-mode:overlay;}.cls-3{opacity:0.6;}.cls-4{fill:#f57c00;}.cls-5{fill:#fb8c00;}.cls-6{opacity:0.3;}</style></defs><g class="cls-1"><g id="Слой_2" data-name="Слой 2"><g id="OBJECTS"><polygon class="cls-2" points="71.59 20.32 59.62 20.32 64.41 0 66.8 0 71.59 20.32"/><polygon class="cls-3" points="65.6 20.32 71.59 20.32 66.8 0 65.6 0 65.6 20.32"/><ellipse class="cls-4" cx="97.08" cy="65.39" rx="33.71" ry="42.8"/><ellipse class="cls-4" cx="33.71" cy="65.39" rx="33.71" ry="42.8"/><ellipse class="cls-5" cx="65.39" cy="65.39" rx="37.74" ry="47.92"/><polygon class="cls-2" points="69.67 55.87 105.1 55.87 90.94 41.37 69.67 55.87"/><polygon class="cls-2" points="57.09 55.87 21.65 55.87 35.81 41.37 57.09 55.87"/><polygon class="cls-2" points="77.41 77.89 74.11 87.54 70.94 77.89 59.4 77.89 56.1 87.54 52.93 77.89 39.48 77.89 65.6 104.02 91.73 77.89 77.41 77.89"/><path class="cls-6" d="M97.08,22.59a27.26,27.26,0,0,0-11.3,2.47,32.1,32.1,0,0,0-20.39-7.6v95.85a32.1,32.1,0,0,0,20.39-7.6,27.27,27.27,0,0,0,11.3,2.48c18.62,0,33.71-19.17,33.71-42.8S115.7,22.59,97.08,22.59Z"/></g></g></g></svg>