<svg xmlns="http://www.w3.org/2000/svg" viewBox="0 0 512 400.85"><defs><style>.cls-1{fill:#fff;}</style></defs><g id="Слой_2" data-name="Слой 2"><g id="_01" data-name="01"><path d="M511.84,150.33c-6.62-20-23.5-35.19-48.85-43.81a140.41,140.41,0,0,0-36.53-7c-2.44-.58-37.34-8.69-61.24-8.69-12.48,0-19.92,2.13-22.76,6.51-6.23,9.6-16.13,33.22-22.69,48.85-2.67,6.38-5.21,12.43-6,14-39.4,8.79-68.92,33.82-86.78,53.32-5,5.5-9.45,10.87-13.23,15.83-9.61,6.2-18.4,12.27-20.36,14.93a5.92,5.92,0,0,0-.8,6.39,5.55,5.55,0,0,0,1.23,1.63c-9.47,5.19-20.68,11.84-25.88,16.82-.4.38-.91.88-1.45,1.46C114.66,298.54,16,353,2.3,368.36,1,369.8-.6,371.92.22,373.75s3.37,1.83,4.2,1.83c14,0,70.12-23.08,91.05-31.9-5.82,5.2-14.85,13.35-23.69,21.75-30.36,28.8-29.08,32.2-28.47,33.83A2.57,2.57,0,0,0,46,400.85h0c15.2-.14,47.65-25.78,66.14-41.51-4.3,5.77-7.63,11.4-6.52,13.89a2.84,2.84,0,0,0,2.86,1.63,14,14,0,0,0,5-1.36c29.71-12.57,50.93-35.44,64.65-55,19.38-6.7,42.72-16,67.76-27.2,2.11.06,4.26.1,6.47.1h0a225.12,225.12,0,0,0,23.93-1.28c-2.15,8.51-4.19,18.31-3.36,21.08a6,6,0,0,0,4.24,3.85c1.59,9.82,9.74,20,15.91,26.52-6.52-3.37-14.08,1.68-18.22,6.9-1.3,1.63,1,4,2.3,2.31,3.82-4.89,8.64-7.7,14.61-7.57-.87.93-5.06,4.83-2,6.35,7.12,3.49,14.68,8.44,16,16.8.1.63,1,.54,1.2,0,1.52-5.21-2.05-10.14-5.83-13.37a27,27,0,0,0-5.63-4.13,19.21,19.21,0,0,1-3.34-2.37c-.91-.8,5.2,1.15,10.63,5.36a22.77,22.77,0,0,1,8,11.7c.18.64.92.55.92-.38,0-5.43-2.37-9.81-6.39-13.48-3-2.69-6.14-5.27-10.09-5.31,10.45-2.28,20.39,2,22.09,8.49.17.62.75.35.7-.32-.47-6.85-7.53-11.42-13.94-12.07a29.42,29.42,0,0,0-7.51.33c-5.09-7.74-11.5-16.59-12.3-26a7.44,7.44,0,0,0,4.06-3.08c1.46-2.56,6.43-15.76,9.83-25q9.21-1.89,18.33-4.53c-2.14,8.48-4.15,18.18-3.32,20.94.72,2.38,3.06,3.94,6.21,4.23,1.82,10,10.94,20.09,17.7,26.4-6.71-2.95-13.94,2.55-17.75,8-1.2,1.71,1.25,3.89,2.44,2.16,3.51-5.11,8.15-8.22,14.11-8.46-.81,1-4.75,5.14-1.56,6.46,7.32,3.05,15.17,7.51,17,15.77.14.63,1.07.48,1.2-.08,1.19-5.29-2.68-10-6.65-13a26.6,26.6,0,0,0-5.87-3.78,20.16,20.16,0,0,1-3.49-2.15c-.95-.74,5.27.82,10.95,4.69a22.79,22.79,0,0,1,8.67,11.17c.22.63.95.49.89-.43-.33-5.42-3-9.65-7.21-13.06-3.12-2.5-6.46-4.87-10.4-4.68,10.29-2.92,20.47.71,22.58,7.11.2.61.76.31.68-.36-.9-6.81-8.23-10.94-14.67-11.18a29.88,29.88,0,0,0-6.6.59c-4.58-3.68-7.91-8.8-10.78-13.85a59.2,59.2,0,0,1-5.53-12.26,7.12,7.12,0,0,0,3.47-2.85c1.74-3,8.4-21,11.54-29.61,1.51-.61,3-1.22,4.51-1.85,23.78-10.11,54.35-29,65-61.47,5.93-18.13,3.07-32.33,2.47-34.77-2-8.09-6.72-13.57,4.21-18.69a203.16,203.16,0,0,1,43.46-7.62l3-.18q5.83-.31,11.75-.32c21.3,0,35.53,3.17,35.67,3.2a1.1,1.1,0,0,0,.31,0h0A1.38,1.38,0,0,0,512,151,1.46,1.46,0,0,0,511.84,150.33Z"/><path class="cls-1" d="M387.16,111.24a9.69,9.69,0,1,0,9.69-9.68A9.68,9.68,0,0,0,387.16,111.24Z"/><path d="M390.75,111.24c0,3,1.92,5.46,4.3,5.47s4.31-2.45,4.31-5.47-1.93-5.46-4.31-5.46S390.75,108.22,390.75,111.24Z"/><path class="cls-1" d="M408.38,156c-.56-8.4-.57-34.75,18.71-52.89,7.74.44,64,5,80.1,45a196.11,196.11,0,0,0-32.57-2.55A209.16,209.16,0,0,0,408.38,156Z"/><path d="M440.15,119.45l-.56.6c-2.42,2.6-6.45-1.15-4-3.75l.56-.6c2.42-2.6,6.45,1.15,4,3.75Z"/><path d="M432.79,100.38c-7.2,4.89-11.91,11.89-15.44,19.74a.83.83,0,0,0,1.45.79c4-7.35,7.68-14.81,14.2-20.28.15-.12-.05-.36-.21-.25Z"/><path d="M434.6,101a52.55,52.55,0,0,0-10.07,16.29c-.25.65.82,1,1.12.43,2.79-5.68,5.37-11.37,9.27-16.41.17-.22-.13-.52-.32-.31Z"/><path d="M440.05,101.86c-2.8,3-4.29,6.47-5.49,10.31a.55.55,0,0,0,1,.39c1.55-3.48,2.62-7.3,4.82-10.44.15-.21-.19-.44-.35-.26Z"/><path d="M443.85,104.45a20.33,20.33,0,0,0-3.33,6.68c-.14.6.76,1,1,.39,1-2.25,1.61-4.6,2.89-6.76.22-.37-.34-.65-.58-.31Z"/><path d="M445.63,105.33c-1,1.59-1.76,3.3-2.6,5-.4.77.84,1.4,1.16.63a56.23,56.23,0,0,1,2.22-5.17.45.45,0,0,0-.78-.43Z"/><path d="M410.75,151.12c13.6-8.46,33-11.44,49.57-12.47,15.85-1,30.39,3.82,44.79,8.72a.77.77,0,0,0,.69-1.37c-12.55-7.45-30.26-10.82-45.48-9.89-17.11,1-36.71,5.07-50,14.5-.33.24.12.73.47.51Z"/><path class="cls-1" d="M383.76,182.38l0-.86a24.29,24.29,0,0,0-.2-3.41,20.36,20.36,0,0,0-.64-3.38c-.16-.56-.29-1.12-.47-1.67l-.66-1.61a20,20,0,0,0-1.64-3.06,20.81,20.81,0,0,0-4.76-5A31.43,31.43,0,0,0,363,158a62.57,62.57,0,0,0-13.33-1.41,103.69,103.69,0,0,0-13.31.75,119.82,119.82,0,0,0-13.14,2.25.88.88,0,0,0,.38,1.71h0a115.61,115.61,0,0,1,26-2.83,60.77,60.77,0,0,1,12.93,1.43A29.62,29.62,0,0,1,374.15,165a17.47,17.47,0,0,1,5.75,7.31l.59,1.45c.15.5.27,1,.41,1.53a30.8,30.8,0,0,1,.18,12.69c-1.47,8.45-5.83,16.26-11.34,22.93a112.46,112.46,0,0,1-19.11,17.8c-1.67,1.27-3.36,2.49-5.06,3.69l-1.87,1c-.76.4-1.66.79-2.62,1.25-.48.24-1,.41-1.5.62a15.56,15.56,0,0,1-1.57.57,13.86,13.86,0,0,1-1.58.44,7.91,7.91,0,0,1-1.54.24,5.71,5.71,0,0,1-1.38,0,2.74,2.74,0,0,1-1-.4,1.86,1.86,0,0,1-.74-1.28c.92-.56,1.83-1.15,2.71-1.77a94.48,94.48,0,0,0,11.16-9.4c1.42-1.38,2.58-2.57,3.37-3.41l1.25-1.32a.76.76,0,0,0-1.1-1.06h0l-1.26,1.28c-.8.81-2,2-3.4,3.3a92.39,92.39,0,0,1-11.11,9,36.86,36.86,0,0,1-6.56,3.63,16.27,16.27,0,0,1-1.59.57l-.76.22-.84.16a12,12,0,0,1-2.89.15,5.52,5.52,0,0,1-2.14-.56,2.78,2.78,0,0,1-1.09-1,3.44,3.44,0,0,1-.19-.39,55,55,0,0,0,4.75-2.82l1.29-.9.32-.22.2-.14L324,230l.59-.47,2.34-1.86,4.41-3.51,3.81-3.44c1.17-1.07,2.25-2,3.14-2.95l2.36-2.35c.65-.64,1.14-1.18,1.48-1.54l.53-.55a.93.93,0,0,0,0-1.29.92.92,0,0,0-1.31,0l0,0-.52.52c-.35.34-.84.85-1.51,1.46l-2.39,2.23c-.91.89-2,1.8-3.18,2.8L330,222.35l-4.47,3.45-2.37,1.82-.6.46-.15.12-.11.08-.31.21-1.25.83c-.83.55-1.71,1.07-2.58,1.6s-1.76,1-2.68,1.47c-1.82,1-3.69,1.81-5.55,2.58s-3.75,1.44-5.58,2-3.63,1-5.33,1.38a30.16,30.16,0,0,1-4.77.6c-.32,0-.63,0-.94,0s-.73-.11-1.08-.17a6.77,6.77,0,0,1-.66-.25l-.3-.16a1.62,1.62,0,0,1-.19-.18,1.13,1.13,0,0,1-.3-.88,3.91,3.91,0,0,1,.31-1.16,8.14,8.14,0,0,1,.84-1.49c3.22-1.75,6.52-3.72,9.76-5.77,3.66-2.32,7.25-4.73,10.57-7.07,1.67-1.15,3.24-2.37,4.71-3.47l4.17-3.14,3.53-2.65,2.68-2.12,2.34-1.85a.88.88,0,0,0-1.08-1.38l0,0L326.22,209l-2.68,2.07L320,213.73l-4.2,3.11c-1.51,1.11-3,2.27-4.7,3.4-3.31,2.28-6.9,4.65-10.54,6.92s-7.35,4.43-10.91,6.26c-1.78.91-3.52,1.74-5.19,2.43a23.91,23.91,0,0,1-4.74,1.49,8.55,8.55,0,0,1-1,.12l-.43,0-.55-.06-.85-.2c-.29-.08-.53-.2-.79-.28h0a.39.39,0,0,0-.11-.06c-.81-.47-.86-.8-.77-1.36A4.4,4.4,0,0,1,276,234c1.29-.63,2.55-1.31,3.78-2s2.5-1.45,3.79-2.24l3.49-2.34c2.29-1.56,4.5-3,6.58-4.49l5.75-4.32c1.78-1.33,3.38-2.58,4.77-3.74l3.61-2.94c1-.81,1.76-1.5,2.29-1.94l.81-.69a.6.6,0,0,0,.08-.79.59.59,0,0,0-.81-.11h0s-1.17.89-3.25,2.41l-3.74,2.74c-1.43,1.08-3.09,2.22-4.91,3.46l-5.8,4.07c-2.11,1.38-4.39,2.79-6.72,4.27l-3.54,2.26c-1.15.68-2.42,1.44-3.66,2.1a54.72,54.72,0,0,1-7.78,3.6,19,19,0,0,1-4,1,7.93,7.93,0,0,1-1.82,0,2.7,2.7,0,0,1-1.26-.48c0-.06-.05,0-.15-.13l-.1-.14h0a6.38,6.38,0,0,1,.95-1.39,30.23,30.23,0,0,1,2.83-2.83c2-1.81,4.07-3.47,6.05-5s3.87-3,5.64-4.3c4.27-3.15,7.71-5.63,9.76-7.11.7-.47,1.39-.94,2.08-1.39,1.42-.92,2.78-1.87,4.08-2.82s2.59-1.81,3.75-2.72l3.32-2.49c2-1.59,3.71-2.9,4.86-3.86l1.83-1.49a.65.65,0,0,0,.09-.9.63.63,0,0,0-.9-.11h0s-.67.52-1.83,1.45-2.87,2.2-4.91,3.73l-3.34,2.42c-1.17.88-2.47,1.72-3.77,2.63s-2.68,1.83-4.1,2.71-2.83,1.86-4.29,2.67l-4.36,2.48-4.46,2.12-.54.25-.22.11-.27.1-1.06.39a19.87,19.87,0,0,1-2.07.67,17.17,17.17,0,0,1-3.82.67,7.89,7.89,0,0,1-3-.41,5.16,5.16,0,0,1-1.15-.63l-.12-.1a2.6,2.6,0,0,1-.48-.45,3.64,3.64,0,0,1-.55-.85c.55-.27,1.11-.54,1.68-.84l4.63-2.65c1.57-.91,3.14-1.93,4.71-2.91s3.12-2,4.64-3,3-2,4.44-3c2.87-1.95,5.5-3.82,7.75-5.43,4.5-3.23,7.45-5.46,7.45-5.46a.67.67,0,1,0-.79-1.07s-3,2.17-7.51,5.32c-2.28,1.56-4.93,3.38-7.82,5.27-1.43,1-2.94,1.92-4.46,2.89s-3.07,2-4.65,2.9-3.12,1.9-4.7,2.79l-4.67,2.56-2.11,1a.74.74,0,0,0-.21,0,1.15,1.15,0,0,0-.61.36c-.5.22-1,.43-1.48.61-.71.3-1.43.47-2.11.7s-1.35.32-2,.47a11.43,11.43,0,0,1-3.41.11,5.48,5.48,0,0,1-2.28-.76,6.15,6.15,0,0,1-.62-.48c4.23-2.15,9.34-5.06,14.39-8.07,11.31-6.74,22.26-14,22.26-14a.66.66,0,1,0-.71-1.11s-11.08,7-22.47,13.53c-5.45,3.11-11,6.09-15.31,8.15a1.09,1.09,0,0,0-.35.07,1.38,1.38,0,0,0-.36.26,39.44,39.44,0,0,1-5.2,2.08,7.23,7.23,0,0,1-1,.21,1.07,1.07,0,0,1,0-.25,7.13,7.13,0,0,1,.26-1.18,13.23,13.23,0,0,1,1-2.35c.35-.78.88-1.49,1.31-2.24s1-1.42,1.56-2.12l1.71-2,1.85-1.92c.6-.65,1.28-1.23,1.93-1.84s1.29-1.23,2-1.78l2.06-1.71c.67-.58,1.39-1.13,2.1-1.66,1.44-1.07,2.84-2.19,4.33-3.18s2.92-2.08,4.44-3l4.54-2.91h0a.88.88,0,1,0-.94-1.48L264.08,191c-1.54,1-3,2-4.49,3.06s-2.93,2.13-4.39,3.22c-.72.54-1.45,1.09-2.14,1.69l-2.1,1.74c-.71.56-1.35,1.22-2,1.82s-1.36,1.22-2,1.89l-1.91,2-1.79,2.1c-.56.73-1.1,1.49-1.64,2.24a24.24,24.24,0,0,0-1.41,2.42,14.75,14.75,0,0,0-1.09,2.65,9.56,9.56,0,0,0-.32,1.45,4.91,4.91,0,0,0-.06.68l-.12.13a1.24,1.24,0,0,0-.12.32q-6.92,4.2-13.78,8.49c-4.8,3-9.59,6-14.32,9.18-2.37,1.56-4.72,3.14-7,4.79-1.17.81-2.32,1.67-3.46,2.53a26.49,26.49,0,0,0-3.29,2.91,3.34,3.34,0,0,0-.73,1.24,1.8,1.8,0,0,0-.09.44,1.24,1.24,0,0,0,0,.5,1.7,1.7,0,0,0,.47.9,4.33,4.33,0,0,0,2.49,1,24.17,24.17,0,0,0,4.42,0c1-.08,2-.19,3-.31-7.57,3.87-15,7.92-22.34,12.34-2.21,1.35-4.41,2.74-6.56,4.21-1.06.76-2.15,1.46-3.19,2.29l-1.58,1.21-1.45,1.28a19.08,19.08,0,0,0-2.79,2.95,5.45,5.45,0,0,0-1,2.06,2.76,2.76,0,0,0,0,.77,1.93,1.93,0,0,0,.32.82,2.38,2.38,0,0,0,1.22.86,6.58,6.58,0,0,0,2.22.27c.42,0,.82,0,1.23-.08l-2.05,1.42c-1,.66-1.91,1.5-2.87,2.24a15.73,15.73,0,0,0-1.36,1.23c-.43.42-.89.83-1.31,1.28l-1.22,1.39A16.31,16.31,0,0,0,162.3,288l-.54.77-.46.82-.45.82c-.13.29-.25.59-.37.88s-.25.58-.34.89l-.26.92a10.37,10.37,0,0,0-.3,1.92l0,1c0,.33.06.65.09,1s.11.56.18.83h0a1.15,1.15,0,0,0-.61.6q-5.34,2.37-10.55,5c-3.95,2-7.85,4.14-11.62,6.53a65.69,65.69,0,0,0-5.51,3.85,25.18,25.18,0,0,0-4.92,4.87,9.4,9.4,0,0,0-.93,1.65,4.23,4.23,0,0,0-.34,1,4.34,4.34,0,0,0-.17,1.05v.52c0,.11,0-.09,0,.26l.07.33a3,3,0,0,0,.58,1.21,4.31,4.31,0,0,0,1.89,1.29,11.72,11.72,0,0,0,3.64.59,32.81,32.81,0,0,0,3.45-.1,96.36,96.36,0,0,0,13.2-2.32c4.33-1,8.6-2.2,12.85-3.46,8.49-2.51,16.87-5.34,25.19-8.32,16.62-6,33-12.66,49.21-19.66s32.24-14.42,48.14-22.1q11.92-5.76,23.64-12c7.8-4.15,15.52-8.48,23.08-13.09a239.47,239.47,0,0,0,22-14.95c3.53-2.69,6.91-5.59,10.2-8.58a100.57,100.57,0,0,0,9.19-9.72c5.64-6.9,10.17-15,11.7-24a29,29,0,0,0,.43-3.37l.11-1.65,0-.41,0-.25ZM277.12,239.61l.15,0,.07,0,.16,0,.55,0c.23,0,.48,0,.73,0a11.17,11.17,0,0,0,1.34-.16,26.47,26.47,0,0,0,5.18-1.68c1.26-.53,2.53-1.14,3.82-1.78a4.72,4.72,0,0,0-.29,1,3.14,3.14,0,0,0,.62,2.44,4.66,4.66,0,0,0,.48.51l.53.36c-5,3-18.83,11-36.17,19.35-25.16,12.13-38.28,12.64-40.65,10.11a2.68,2.68,0,0,1-.79-2.08c.13-2,2.14-4.11,3.2-5.06.27,0,.52,0,.82,0,7.91,0,24.44-4.24,58.58-23.59a7.58,7.58,0,0,0,.8.28l.58.13ZM177,285.23a.32.32,0,0,1-.15-.33c.1-2.53,8.15-8.93,13.86-12.69,1.7-.86,3.25-1.71,4.42-2.46a15.22,15.22,0,0,0,4.67.6A57.69,57.69,0,0,0,210.64,269a5.13,5.13,0,0,0,1.29,2.41c1.24,1.32,3.51,2,6.64,2a46.42,46.42,0,0,0,11.1-1.71C196.27,285.82,180.4,287.9,177,285.23Zm55.37-53.88a3,3,0,0,0,.6,1.66,3.48,3.48,0,0,0,.57.58c-3.61,3-11,9.83-10.51,13.86a1.7,1.7,0,0,0,.06.31c-4.62,1-9.56,1.22-10.42.08C213.09,245.73,222.66,238.1,232.34,231.35Zm-17.15,19.57c-2.49,2.06-5.55,5.08-5.76,7.56a2.93,2.93,0,0,0,.87,2.41,6.15,6.15,0,0,0,2.84,1.42,10.77,10.77,0,0,0-2.46,4.3c-6.87,1.48-14.69,2-15.85.4-.22-1.83,8.74-9.2,19.63-16.16Zm57.69-15.5a3.35,3.35,0,0,0,.34,1.9,2.53,2.53,0,0,0,.18.27c-52.38,29.54-61.11,22-61.46,21.62a.61.61,0,0,1-.18-.54c.16-1.93,4.37-5.7,7.46-7.9a45.06,45.06,0,0,0,5.46-1,3.84,3.84,0,0,0,.35.18,16.71,16.71,0,0,0,6.71,1.24c8.92,0,21.8-5,38.47-14.82h0l1.41-.47C272,235.77,272.46,235.59,272.88,235.42Zm-4.11-13.63a20.11,20.11,0,0,0,4.3-.83l.63-.2a106.36,106.36,0,0,0-8.4,6.54,32.53,32.53,0,0,0-3.12,3.1,8.41,8.41,0,0,0-1.42,2.17,3.27,3.27,0,0,0-.23.9,2.26,2.26,0,0,0,.23,1.32c0,.08-.05,0,.11.2l0,0,0,0,.08.11.15.23a4.74,4.74,0,0,0,3.1,1.71C241.65,249.75,231,250,226,247.83c-.58-.25-.62-.53-.64-.68-.33-2.49,6-8.82,10.84-12.71h.09c4.81,0,13.34-4.94,24.75-11.93l2.81-1.71a6.72,6.72,0,0,0,1.08.51A10.18,10.18,0,0,0,268.77,221.79Zm-16.91-1.73a13.73,13.73,0,0,0,4.1-.19c.7-.18,1.45-.32,2.19-.56s1.52-.47,2.26-.8c.28-.11.57-.25.85-.37a6,6,0,0,0,.66,1.06l-2.14,1.31c-7.45,4.57-19.29,11.81-23.61,11.64a1.35,1.35,0,0,0-.49-.06,1.38,1.38,0,0,1-.87-.5.81.81,0,0,1-.12-.7,5,5,0,0,1,.89-1.86.08.08,0,0,0,0,0c2.23-3.22,8-7.77,12.18-10.62a7.18,7.18,0,0,0,.88.65A7.75,7.75,0,0,0,251.86,220.06Zm-11.37-2.21h0Zm-37.43,30.71a23.07,23.07,0,0,1-4.07,0,3.2,3.2,0,0,1-1.45-.44s0,0,0-.11a1.76,1.76,0,0,1,.36-.57,23.39,23.39,0,0,1,3.06-2.7c1.12-.85,2.24-1.69,3.4-2.49,2.29-1.63,4.64-3.2,7-4.76,4.71-3.12,9.49-6.15,14.28-9.15q6.84-4.29,13.75-8.47a2.36,2.36,0,0,0,.74.17,6.17,6.17,0,0,0,1.76-.28,42.62,42.62,0,0,0-8.07,7.73c-.93.63-6.61,4.51-12.07,8.69-9,6.87-11.22,9.79-11.47,11.41A71,71,0,0,1,203.06,248.56Zm-33.72,28.58a.82.82,0,0,1-.35-.2s0-.09,0-.27a4,4,0,0,1,.73-1.35,17.2,17.2,0,0,1,2.53-2.67l1.45-1.28,1.5-1.15c1-.78,2.07-1.48,3.1-2.23,2.12-1.44,4.29-2.81,6.48-4.16,8.52-5.15,17.35-9.85,26.26-14.32a3.21,3.21,0,0,0,.53.43c-5.52,3.62-18.19,12.32-19,16.52a2.26,2.26,0,0,0,.35,1.83l0,0c-5.42,3.19-16.55,7.78-16.67,7.83a1.05,1.05,0,0,0-.48.4c-1,.24-2,.45-3,.59A9.18,9.18,0,0,1,169.34,277.14Zm-8,19.6-.08-.79,0-.8a8.72,8.72,0,0,1,.26-1.61l.21-.8c.09-.26.21-.52.31-.77s.2-.52.32-.78l.41-.73.41-.74.49-.7a12.26,12.26,0,0,1,1-1.37l1.13-1.3c.39-.42.83-.8,1.25-1.21s.82-.82,1.29-1.17c.92-.71,1.77-1.51,2.76-2.15s1.89-1.38,2.91-2l2.39-1.44.19,0a1.19,1.19,0,0,0,.45-.08c.16-.07,1.45-.6,3.31-1.4-3.15,2.71-5.89,5.69-6,7.86a2.64,2.64,0,0,0,1.05,2.28l.13.09A12.29,12.29,0,0,0,173.5,290a5.25,5.25,0,0,0-.68,3.13s0,0,0,0c-2.1.65-6.91,2.21-11.36,4C161.44,297,161.41,296.88,161.39,296.74ZM328.7,243.2c-7.55,4.48-15.28,8.68-23.09,12.72s-15.73,7.9-23.66,11.72S266,275.17,258,278.86,242,286.2,234,289.74c-16.14,7.05-32.43,13.74-49,19.81-8.25,3-16.56,5.93-25,8.5-4.2,1.29-8.42,2.49-12.67,3.54a93.47,93.47,0,0,1-12.8,2.38,16.79,16.79,0,0,1-6-.28,1.94,1.94,0,0,1-.83-.5.43.43,0,0,1-.13-.26l0-.05v-.48c0-.34.08-.4.1-.58a2,2,0,0,1,.2-.55,7.62,7.62,0,0,1,.67-1.25,24,24,0,0,1,4.4-4.45c1.67-1.35,3.45-2.6,5.27-3.8A177.13,177.13,0,0,1,160,300a1.06,1.06,0,0,0,.31,0,1.25,1.25,0,0,0,.46-.09c5-2.13,11.13-4.08,13.15-4.71a6.29,6.29,0,0,0,1.16,1,10.07,10.07,0,0,0,1.69.81l.45.16.13,0h.08l.11,0,.21,0a5,5,0,0,0,1,.13c.35,0,.75,0,1.08,0l1-.06c.67,0,1.32-.15,2-.23a123,123,0,0,0,17.57-4.69c6.29-2.07,12.92-4.47,19.5-7,13.18-5,26.18-10.44,35.87-14.63s16.1-7.14,16.1-7.14a.46.46,0,1,0-.38-.83s-6.42,2.86-16.16,6.93-22.79,9.32-36,14.15c-6.61,2.41-13.24,4.73-19.52,6.7a122.53,122.53,0,0,1-17.3,4.4c-.63.06-1.25.16-1.84.18l-.88,0c-.29,0-.5,0-.74,0s-.23,0-.37,0l-.43-.1-.21,0-.11,0h0l-.33-.13a7.38,7.38,0,0,1-1.29-.63,3.45,3.45,0,0,1-.86-.76h0a1.18,1.18,0,0,0-.23-.43,1.19,1.19,0,0,1-.09-.36,3,3,0,0,1,.46-1.75,10.49,10.49,0,0,1,2-2.48c.19-.19.35-.32.48-.44a16.06,16.06,0,0,0,3.56.35c9.78,0,28.71-5.8,53.38-16.54,35.73-15.55,51.39-26.41,51.88-26.76,3.67-2.1,6-3.54,6.73-4l.61,0a26.94,26.94,0,0,0,5.27-.49,53.08,53.08,0,0,0,5.6-1.44c1.91-.58,3.85-1.29,5.78-2.08,1.48-.61,3-1.29,4.42-2a5.67,5.67,0,0,0,.32.57,5,5,0,0,0,2,1.74,7.87,7.87,0,0,0,3,.76,14.23,14.23,0,0,0,3.45-.24l.84-.18.94-.28a17.76,17.76,0,0,0,1.81-.68,31.35,31.35,0,0,0,3.11-1.58,4.75,4.75,0,0,0,.14.46,2.84,2.84,0,0,0,.85,1.19,4,4,0,0,0,1.5.75,7.69,7.69,0,0,0,1.73.17,9.62,9.62,0,0,0,1.77-.15,6.41,6.41,0,0,0,1-.18C334.73,239.52,331.73,241.39,328.7,243.2Z"/><path class="cls-1" d="M344.36,196.52a.49.49,0,0,0-.58.39,10.25,10.25,0,0,0-.23,2.8h0a3.43,3.43,0,0,1-3.41-.72,3.51,3.51,0,0,1-.59-3.49.51.51,0,0,0-.34-.62.49.49,0,0,0-.62.34,4.46,4.46,0,0,0,.84,4.47,3.61,3.61,0,0,0,1.45.91.25.25,0,0,0-.3.17l-.1.31a.3.3,0,0,0-.29-.07h0l-.54.15a3.46,3.46,0,0,1-.62.16c-.24,0-.51.11-.81.14a9.6,9.6,0,0,1-2,.07,7.53,7.53,0,0,1-1.13-.17l-.55-.15-.53-.21a3.74,3.74,0,0,1-.94-.59,1.71,1.71,0,0,1-.38-.38,2,2,0,0,1-.29-.42l-.23-.45-.12-.47a4.77,4.77,0,0,1-.1-.9c0-.29.05-.55.08-.78a4.34,4.34,0,0,1,.13-.63c.1-.36.15-.56.15-.56a.32.32,0,0,0-.21-.39.33.33,0,0,0-.42.2l-.19.54a4,4,0,0,0-.21.64c-.05.28-.13.59-.17.93a5.44,5.44,0,0,0,.06,1.12c0,.2.08.4.13.61s.17.4.27.6a1.38,1.38,0,0,0,.2.33c-2.58.74-4.44.74-5.64,0a4,4,0,0,1-1.66-3,.49.49,0,0,0-.56-.42.5.5,0,0,0-.42.56,4.94,4.94,0,0,0,2.11,3.72,5.23,5.23,0,0,0,2.87.74,13.8,13.8,0,0,0,4-.72.05.05,0,0,1,0,0,5.36,5.36,0,0,0,1.06.69l.64.25.65.17c.27,0,.53.07.79.1a4.6,4.6,0,0,0,.6,5.19,6.2,6.2,0,0,0,4.72,2.26,5.24,5.24,0,0,0,1.71-.28.49.49,0,0,0,.32-.63.51.51,0,0,0-.64-.31,5.07,5.07,0,0,1-5.34-1.67,3.61,3.61,0,0,1-.4-4.29.43.43,0,0,0,.06-.22,9.7,9.7,0,0,0,1.71-.17,5.61,5.61,0,0,0,.86-.23,4,4,0,0,0,.65-.23l.49-.2a4.2,4.2,0,0,0-.08.84,4.4,4.4,0,0,0,.06.86,5.76,5.76,0,0,0,.2,1,6.64,6.64,0,0,0,.43.95,5.94,5.94,0,0,0,.61.9,4.1,4.1,0,0,0,.83.73,3.85,3.85,0,0,0,1,.49,3,3,0,0,0,1,.18,3.74,3.74,0,0,0,.9-.07,4,4,0,0,0,.71-.22,2.32,2.32,0,0,0,.5-.25l.42-.25a.27.27,0,0,0,.11-.31.26.26,0,0,0-.33-.16h-.05l-.41.14a2.28,2.28,0,0,1-.46.14,5.18,5.18,0,0,1-.61.1,2.44,2.44,0,0,1-.71,0,3.38,3.38,0,0,1-.75-.17,3.31,3.31,0,0,1-.73-.41,5.87,5.87,0,0,1-.65-.58,4.54,4.54,0,0,1-.52-.72,5.19,5.19,0,0,1-.38-.79,5.5,5.5,0,0,1-.25-.79,3.4,3.4,0,0,1-.11-.74,4.21,4.21,0,0,1,0-1.12c0-.29.06-.46.06-.46a.27.27,0,0,0-.17-.27,4.34,4.34,0,0,0,1.46.25,5.61,5.61,0,0,0,1.37-.18,3.46,3.46,0,0,0,.71,1.42,4,4,0,0,0,3.27,1.26h.23a.52.52,0,0,0,.3-.13,2.45,2.45,0,0,0,.42.43,4,4,0,0,0,1.09.63,5.63,5.63,0,0,0,1.17.31,7.63,7.63,0,0,0,1.15.07,8.87,8.87,0,0,0,2-.24,10.14,10.14,0,0,0,1.33-.4l.49-.18a.34.34,0,0,0-.2-.65h0s-.71.19-1.78.36a12.3,12.3,0,0,1-1.81.13,5.7,5.7,0,0,1-1-.08l-.49-.09-.48-.15a3.2,3.2,0,0,1-.83-.47,1.23,1.23,0,0,1-.33-.31,1.88,1.88,0,0,1-.27-.36,3.11,3.11,0,0,1-.34-.8c-.07-.27-.09-.55-.13-.8V200a4.51,4.51,0,0,1,.06-.58c0-.32.06-.51.06-.51a.33.33,0,0,0-.27-.37.34.34,0,0,0-.4.26l-.11.5a8.33,8.33,0,0,0-.18,1.42,9.48,9.48,0,0,0,.11,1,7.13,7.13,0,0,0,.23.7,3.11,3.11,0,0,1-2.5-.89c-.7-.82-.84-2.29-.43-4.35A.5.5,0,0,0,344.36,196.52Z"/><path class="cls-1" d="M297.14,185.57a18.32,18.32,0,0,0,5.11-1,1.3,1.3,0,0,1,.1.15,3.12,3.12,0,0,0,2.42,1.08,4.21,4.21,0,0,0,1.62-.34.46.46,0,0,0,.27-.26,2.67,2.67,0,0,0,.45.61,3.22,3.22,0,0,0,2.33.89,5,5,0,0,0,1.24-.19,2.77,2.77,0,0,0,.91,1.94,3.69,3.69,0,0,0,2.56,1,4,4,0,0,0,1.79-.42.49.49,0,0,0,.22-.67.5.5,0,0,0-.66-.22,2.92,2.92,0,0,1-3.23-.39,1.87,1.87,0,0,1-.4-2.24.49.49,0,0,0-.26-.65.5.5,0,0,0-.66.26c0,.1-.07.21-.11.32a2.84,2.84,0,0,1-3-.31,2.46,2.46,0,0,1-.27-2.76.5.5,0,1,0-.93-.37,4,4,0,0,0-.23,2.56.45.45,0,0,0-.36,0,2.47,2.47,0,0,1-2.91-.47,2.53,2.53,0,0,1-.13-.22s0-.06,0-.08a.49.49,0,0,0-.13-.18,2.48,2.48,0,0,1,.24-2.35.5.5,0,1,0-.85-.52,3.63,3.63,0,0,0-.43,3c-1.82.61-5.42,1.32-6.15.53-.23-.26,0-.78.16-1.17a.49.49,0,1,0-.88-.45c-.51,1-.51,1.75,0,2.29A3,3,0,0,0,297.14,185.57Z"/><path class="cls-1" d="M365.34,195.65a4,4,0,0,0,1.87.49,3.74,3.74,0,0,0,1.13-.17.5.5,0,0,0,.32-.63A.49.49,0,0,0,368,195a3,3,0,0,1-3.41-1.38,1.87,1.87,0,0,1,.6-2.48.49.49,0,0,0,.08-.7.5.5,0,0,0-.7-.07,2.86,2.86,0,0,0-.86,3.72,3.67,3.67,0,0,0,1,1.19.34.34,0,0,0-.08.09l-.11.35a5.79,5.79,0,0,0-.2,1,4.57,4.57,0,0,0,0,.67,4.89,4.89,0,0,0,0,.76,6.32,6.32,0,0,0,.15.83,3.76,3.76,0,0,0,.3.83,2.93,2.93,0,0,0,.56.76,2.07,2.07,0,0,0,.82.5,2.45,2.45,0,0,0,.87.11,4.43,4.43,0,0,0,.72-.13,4.3,4.3,0,0,0,.95-.44l.33-.19a.34.34,0,0,0,.14-.41.33.33,0,0,0-.43-.18l0,0-.31.12-.37.15-.47.12a4.46,4.46,0,0,1-.54.06,1.58,1.58,0,0,1-.53-.12,1.14,1.14,0,0,1-.47-.3,2.18,2.18,0,0,1-.35-.51,4.54,4.54,0,0,1-.23-.65,3.8,3.8,0,0,1-.14-.67,8.29,8.29,0,0,1-.07-1.27c0-.39,0-.66.05-.9S365.33,195.71,365.34,195.65Z"/><path class="cls-1" d="M351.15,181.25l.15-.54a.31.31,0,0,0-.19-.37.31.31,0,0,0-.38.18s-.07.2-.2.53a4.6,4.6,0,0,0-.21.63c0,.27-.12.59-.14.93a4.37,4.37,0,0,0,.14,1.1c.07.19.12.4.21.59l.35.55a3.57,3.57,0,0,0,1,.89,2.89,2.89,0,0,0,.55.29l-.08.11c-.11.17-.26.35-.4.6s-.27.59-.42.94a6.22,6.22,0,0,0-.21,1.21l0,.69a6.85,6.85,0,0,0,.22.69,2.08,2.08,0,0,0,.36.65l.21.32.27.26a4.8,4.8,0,0,0,1.22.88,7.1,7.1,0,0,0,1.38.49,8.46,8.46,0,0,0,1.38.23,7.81,7.81,0,0,0,1.29,0,6.24,6.24,0,0,0,1.15-.2,4.32,4.32,0,0,0,.94-.31,3.07,3.07,0,0,0,.68-.34l.57-.35a.31.31,0,0,0-.3-.54l-.05,0-.54.26a3,3,0,0,1-.63.23,4.37,4.37,0,0,1-.85.22,5.39,5.39,0,0,1-1,.12,9.07,9.07,0,0,1-1.16,0,7.33,7.33,0,0,1-1.21-.22,6.86,6.86,0,0,1-1.17-.44,4.72,4.72,0,0,1-1-.69l-.22-.2-.16-.23a1.64,1.64,0,0,1-.27-.48,4.91,4.91,0,0,1-.17-.5c0-.17,0-.34,0-.51a6,6,0,0,1,.11-1c.11-.28.2-.54.28-.79a6.67,6.67,0,0,1,.34-.62l.13-.24,0,0a6.64,6.64,0,0,0,1.31.22,5.94,5.94,0,0,0,1.27,0,8.28,8.28,0,0,0,.92-.2,3.63,3.63,0,0,0-.14.46,2,2,0,0,0,.09.91,2.91,2.91,0,0,0,1.5,1.51,7.06,7.06,0,0,0,2.19.61,7.93,7.93,0,0,0,4.14-.55,3.65,3.65,0,0,0,1.18-.82,2.41,2.41,0,0,0,.35-.44.3.3,0,0,0-.06-.43.31.31,0,0,0-.43.06,2.85,2.85,0,0,1-.33.29,3.89,3.89,0,0,1-1,.55,8.76,8.76,0,0,1-3.7.37c-1.33-.13-2.74-.67-3-1.44a1.39,1.39,0,0,1,0-1c0-.12.11-.25.13-.32l0,0c.13-.06.27-.12.39-.19a4,4,0,0,0,.77-.47,2.4,2.4,0,0,0,.52-.45l.41-.44a.29.29,0,0,0-.39-.44l-.05,0-.42.32a2.14,2.14,0,0,1-.51.32,3.26,3.26,0,0,1-.7.35,3.56,3.56,0,0,1-.87.29,6.23,6.23,0,0,1-1,.2,8.06,8.06,0,0,1-1.1,0,5.84,5.84,0,0,1-1.1-.16,3.92,3.92,0,0,1-1-.43,3,3,0,0,1-.79-.65l-.28-.39a3.83,3.83,0,0,1-.17-.43,2.89,2.89,0,0,1-.16-.85c0-.27,0-.52,0-.74A3.37,3.37,0,0,1,351.15,181.25Z"/><path class="cls-1" d="M320.16,172.47a3.07,3.07,0,0,0,.6.07h0c0,.11-.08.22-.11.37s0,.36-.07.57a2.3,2.3,0,0,0,.41,1.43,1.93,1.93,0,0,0,.65.59,2.49,2.49,0,0,0,.81.3,4.64,4.64,0,0,0,2.83-.44,5.13,5.13,0,0,0,.6-.34,7.33,7.33,0,0,0,0,.86,5.19,5.19,0,0,0,.1.83,2.9,2.9,0,0,0,.34.91,3.18,3.18,0,0,0,.69.83,4.59,4.59,0,0,0,.95.51l.49.17a1.51,1.51,0,0,0,.3.08l.24,0a3.73,3.73,0,0,0,1,0,3.81,3.81,0,0,0,.9-.31,6.48,6.48,0,0,0,.71-.39l1.3-.83h0l0,0a3.54,3.54,0,0,0,1.6.37,3.86,3.86,0,0,0,2.13-.64.47.47,0,0,0,.1-.1l.47.14a6.23,6.23,0,0,0,1.28.16,8.29,8.29,0,0,0,1.23,0,9.26,9.26,0,0,0,1.14-.21,5.74,5.74,0,0,0,1-.32,3.64,3.64,0,0,0,.79-.39,3.74,3.74,0,0,0,.57-.38l.47-.39a.4.4,0,0,0-.49-.63l-.06,0-.41.3a2.56,2.56,0,0,1-.51.29,3.73,3.73,0,0,1-.69.31,4.33,4.33,0,0,1-.88.26,7.59,7.59,0,0,1-1,.17,10.07,10.07,0,0,1-1.1,0,8.42,8.42,0,0,1-1.11-.14,4.53,4.53,0,0,1-1-.34,4,4,0,0,1-.46-.24l-.4-.3a2.2,2.2,0,0,1-.55-.72,2.31,2.31,0,0,1-.23-.78,2.68,2.68,0,0,1,0-.69,1.87,1.87,0,0,1,.11-.59l.07-.31a4.11,4.11,0,0,0,1.89-1.59l.1.08a6.05,6.05,0,0,0,1.92.82,4.81,4.81,0,0,0,1.82.14,2.62,2.62,0,0,0,1.28-.46,2.24,2.24,0,0,0,.39-.37.28.28,0,0,0,0-.4.29.29,0,0,0-.4,0,1.71,1.71,0,0,1-.32.19,2.42,2.42,0,0,1-1,.19,6.1,6.1,0,0,1-1.52-.23,7,7,0,0,1-1.62-.7,4.22,4.22,0,0,1-.69-.56,4.58,4.58,0,0,1-.54-.64,3.5,3.5,0,0,1-.33-.71,3.48,3.48,0,0,1-.15-1.28,1.47,1.47,0,0,1,.06-.48l.08-.45a.25.25,0,0,0,0-.12,1.56,1.56,0,0,0,.2-.16c.29-.25.56-.48.79-.72A11.66,11.66,0,0,0,338,163.9l.37-.47a.33.33,0,0,0-.5-.42h0s-.58.62-1.52,1.44a14.4,14.4,0,0,1-1.68,1.26,5.68,5.68,0,0,1-1,.49l-.48.17-.64,0a3,3,0,0,1-.5-.08,1.3,1.3,0,0,1-.52-.14c-.15-.08-.32-.14-.46-.23l-.38-.34c-.15-.1-.21-.27-.32-.4a1.43,1.43,0,0,1-.25-.43,4.69,4.69,0,0,1-.35-.89,10.34,10.34,0,0,1-.33-1.45c-.06-.37-.09-.58-.09-.58a.34.34,0,0,0-.35-.28.33.33,0,0,0-.31.36s0,.21,0,.58a8.77,8.77,0,0,0,.24,1.59,4.91,4.91,0,0,0,.34,1.05,2.7,2.7,0,0,0,.3.55,2.46,2.46,0,0,0,.39.54l.52.48c.18.11.38.21.58.31a.29.29,0,0,0-.15.19,3.35,3.35,0,0,1-.28.41,4.65,4.65,0,0,1-1.23.84,10.56,10.56,0,0,1-2.11.74,8.3,8.3,0,0,1-1.23.2,2.37,2.37,0,0,1-1.17-.12,4.35,4.35,0,0,1-1.16-.47,5.73,5.73,0,0,1-1-.72,3.82,3.82,0,0,1-.71-.87,2.91,2.91,0,0,1-.26-.45c-.06-.16-.11-.31-.17-.45a3,3,0,0,1-.18-.8,1.73,1.73,0,0,1,0-.68c0-.4.06-.63.06-.63a.33.33,0,0,0-.66-.08l-.11.62a2.15,2.15,0,0,0-.05.76,3.51,3.51,0,0,0,.16,1,3.72,3.72,0,0,0,.47,1.12,4.84,4.84,0,0,0,.81,1.08,5.84,5.84,0,0,0,1.13.89,7.34,7.34,0,0,0,1,.46c-1.19.91-2.74,1.64-3.89,1.36a2.09,2.09,0,0,1-1.46-1.42.51.51,0,0,0-.65-.27.49.49,0,0,0-.27.65A3.07,3.07,0,0,0,320.16,172.47Zm4.81,2.14a4.65,4.65,0,0,1-2.32.24,2.16,2.16,0,0,1-.52-.2.93.93,0,0,1-.37-.31,1.81,1.81,0,0,1-.23-.41,4,4,0,0,1-.09-.45,2.62,2.62,0,0,0,0-.41c0-.14,0-.27,0-.37s0-.13,0-.19a7.59,7.59,0,0,0,3.36-1.55,4.36,4.36,0,0,0,1.1,3.23A5.14,5.14,0,0,1,325,174.61Zm6.21,3.14a4.27,4.27,0,0,1-.65.29,3.92,3.92,0,0,1-.71.22,2.73,2.73,0,0,1-.76,0l-.23,0-.15,0-.4-.12a3.94,3.94,0,0,1-.71-.36c-.16-.19-.38-.32-.48-.55a2.26,2.26,0,0,1-.29-.65,5.64,5.64,0,0,1-.13-.67c0-.42-.07-.78-.07-1.06a4.5,4.5,0,0,0,2.69.91,4.88,4.88,0,0,0,1.54-.26h0a3.14,3.14,0,0,0,1.36,1.84A10.94,10.94,0,0,0,331.18,177.75Zm2.71-3.54a3,3,0,0,0,.3,1.08,3.46,3.46,0,0,0,.74,1l.52.4.2.11a2.84,2.84,0,0,1-2.27,0c-1.63-.75-2-1.9-1.36-3.86a.09.09,0,0,0,0,0,4.94,4.94,0,0,0,.87.08,5.24,5.24,0,0,0,1.11-.12,1.42,1.42,0,0,0-.08.42A3.74,3.74,0,0,0,333.89,174.21Zm-2.68-6.08a2.09,2.09,0,0,0,.34-.69.34.34,0,0,0,0-.2l.28,0a2.84,2.84,0,0,0,.76.11l.64,0c.24-.06.49-.14.73-.22a7.1,7.1,0,0,0,1.2-.62l0,0a1.83,1.83,0,0,0-.09.4,2.93,2.93,0,0,0-.08.75,3.1,3.1,0,0,0,.12.88,4,4,0,0,0,.35.94,4.24,4.24,0,0,0,.61.8,3.77,3.77,0,0,1-4,1.62,2.68,2.68,0,0,1-2.35-2.57l.05,0A4.29,4.29,0,0,0,331.21,168.13Zm-5.07,2.3a7.61,7.61,0,0,0,1.39-.24,11.65,11.65,0,0,0,1.3-.43,3.56,3.56,0,0,0,2.25,2.84,5.91,5.91,0,0,0-.36,1.86.38.38,0,0,0-.21,0,3.56,3.56,0,0,1-3.51-.65,3.33,3.33,0,0,1-1.12-3.19.48.48,0,0,0,0-.21Z"/><path class="cls-1" d="M352.25,176.53a2.18,2.18,0,0,0,.61.5,2.59,2.59,0,0,0,.78.28,4.28,4.28,0,0,0,1.71,0,7,7,0,0,0,1.56-.52,6.82,6.82,0,0,0,1.21-.77,3.29,3.29,0,0,0,.42-.41,3.82,3.82,0,0,0,.29-.36l.21-.34a.32.32,0,0,0-.06-.41.31.31,0,0,0-.44,0l-.05.05-.2.24a4,4,0,0,1-.67.54,5.91,5.91,0,0,1-1.1.57,6,6,0,0,1-1.35.41,4.13,4.13,0,0,1-1.35,0,2.21,2.21,0,0,1-.55-.15,1.32,1.32,0,0,1-.4-.26,1.35,1.35,0,0,1-.26-.3.76.76,0,0,1-.16-.31c-.08-.22-.13-.34-.13-.34a.33.33,0,0,0-.35-.21.32.32,0,0,0-.26.37s0,.13.05.36a1.13,1.13,0,0,0,.14.44A1.42,1.42,0,0,0,352.25,176.53Z"/><path class="cls-1" d="M121.83,330.4c-2.38.41-4.75.92-7.09,1.5-.1,0,0,.16,0,.15,2-.34,4.13-.52,6.19-.8-12.26,12-24.46,24.1-37.24,35.53-2.4.81-4.78,1.77-7.39,1.35-.09,0-.14.13,0,.15a12.77,12.77,0,0,0,6.27-.46L80.15,370c-2.68.84-5.21,2.08-8,2.73-.29.06-.23.57.08.53a28.59,28.59,0,0,0,5.5-1.22c-5.91,5.11-12,10.07-18.21,14.79-.16.12,0,.39.16.27,7.3-5.16,14.35-10.61,21.22-16.28,0,0,0,0,.06-.05,1.57-1.29,3.11-2.6,4.65-3.91h0a.28.28,0,0,0,.19-.16q5.43-4.62,10.74-9.38c-.34,2-.47,4-.85,6,0,.19.26.28.3.08.53-2.23.84-4.51,1.27-6.76l.49-.45q-.22,2.87-.21,5.76a.16.16,0,0,0,.31,0c.18-2.17.52-4.31.68-6.47q6.51-5.88,12.87-11.92a80.88,80.88,0,0,0-.51,9.84.12.12,0,0,0,.24,0c.14-3.61.74-7.14,1.2-10.71,4.71-4.47,9.39-9,14.06-13.51a8.33,8.33,0,0,1-2.17-1.15Z"/><path class="cls-1" d="M148.21,329c-2,.69-3.89,1.44-5.9,2a.2.2,0,0,0,.1.38c1.62-.35,3.29-.74,4.92-1.23l-.31.39a30.66,30.66,0,0,1-6,1.68c-.13,0-.1.24,0,.23a28.2,28.2,0,0,0,5.31-1.05,329.6,329.6,0,0,1-24.55,28.53.27.27,0,0,0,.39.38c5.69-5.26,11.05-10.82,16.19-16.56-.56,2.14-1.13,4.28-1.64,6.44a.16.16,0,0,0,.3.08c.87-2.64,2-5.22,2.6-7.93,1.21-1.38,2.42-2.77,3.61-4.16a35.79,35.79,0,0,0-.6,5.44c0,.31.44.29.47,0a48.5,48.5,0,0,1,1.53-7.08q3.65-4.32,7.19-8.74c-.48,3.27-.9,6.55-1.45,9.8,0,.1.12.14.15.05a68,68,0,0,0,2.2-11l.23-.29c-1.16.31-2.28.59-3.38.86Z"/><path class="cls-1" d="M61,349.15c-.14.21.19.39.34.2a96.5,96.5,0,0,0,7.1-10.41l0-.08c4.24-2.28,8.46-4.58,12.68-6.85q6.58-3.56,13.2-7c-2.13,2.61-3,6.1-5.22,8.74-.06.07,0,.14.08.07,2.28-3.28,4.47-6.65,7-9.76l2.38-1.21c-2.47,3.13-4,6.86-5.49,10.55-.07.17.2.27.28.12,2.3-3.87,4.5-7.78,7-11.5a.35.35,0,0,0,0-.13q20.17-10.26,40.79-19.68c.64-.3.18-1.4-.48-1.14-8.55,3.46-16.93,7.24-25.22,11.22-3.15-.51-6.37-.64-9.51-1.37,0,0-.06.06,0,.08a56.72,56.72,0,0,0,8.16,2c-1.53.74-3.05,1.48-4.57,2.24l0,0c-3-1-6.57-.89-9.72-1.1-.17,0-.21.28,0,.3,2.79.41,5.66,1.18,8.48,1.47-8.46,4.22-16.84,8.64-25.17,13.17l-3,1.66a90.93,90.93,0,0,0-9.69-1.1c-.11,0-.1.15,0,.16,2.88.32,5.77,1.13,8.66,1.5l-1.82,1c-3.11-.11-6.2-.34-9.31-.55-.09,0-.11.14,0,.15,2.58.4,5.19,1,7.81,1.23-15.82,8.76-31.84,17.55-48.15,25.41-.75.36-9.84,4.38-14.55,6.22-.14.06-.08.28.06.23q6.48-2.34,12.84-5a47.2,47.2,0,0,0-3.39,4.85c-.14.21.19.39.34.2,1.46-2,3.28-3.77,4.73-5.77C37.25,355,46.68,350.37,56,345.5c-2.35,2.75-3.84,6.06-6.08,8.93a0,0,0,1,0,.06.05c2.76-3,4.56-6.72,7.33-9.67l.39-.2c-2.13,3.54-4.24,7.08-6.55,10.53,0,0,0,.08.07,0a104.33,104.33,0,0,0,7.33-11q4.34-2.28,8.64-4.6C65,342.68,63.21,346,61,349.15Z"/><path d="M334.48,16.88l-.05,0s0-.05-.06-.06a10.68,10.68,0,0,0-9.78-1c2.8-4.79,3.73-12.28-2.26-14.51C316.6-.91,309,1.85,307.09,7.75,303.67,1,293.94-2.94,287.91,2.67,283.43,6.84,285.6,16,289.6,20.38c-6.34,0-12.24,6.72-11.07,13.1,1.06,5.82,7.77,7.17,13,6-3.23,3.87-3.91,10.55.6,13.64,6.45,4.43,14.95-.12,19.32-5.32a29.59,29.59,0,0,0,3.28-5c.54-1,1-2,1.46-3s2.36-.72,3.15-.83A27.06,27.06,0,0,0,330.5,35.1C336.4,31.32,340.83,22.23,334.48,16.88Z"/><path class="cls-1" d="M329.1,118s39.46-5.2,51.27-31.57C338.26,45.69,315,29.81,310.8,31.21,307.8,32.21,315.79,77.49,329.1,118Z"/><path d="M381.82,85l0,0C371,74.68,360,64.54,348.65,54.83,343,50,337.17,45.24,331.16,40.73c-3-2.24-6.06-4.44-9.26-6.47-1.6-1-3.23-2-5-2.9a28.48,28.48,0,0,0-2.73-1.22,11.53,11.53,0,0,0-1.56-.47,5.82,5.82,0,0,0-.92-.13h-.53a4.07,4.07,0,0,0-.66.1l-.16,0-.08,0-.34.15a1.94,1.94,0,0,0-.35.26,2.08,2.08,0,0,0-.47.59A3.84,3.84,0,0,0,309,31a5.15,5.15,0,0,0-.25,1,11.65,11.65,0,0,0-.12,1.61c0,1,0,2,.1,2.93.13,1.91.35,3.78.6,5.65.5,3.73,1.13,7.43,1.8,11.11,1.37,7.36,3,14.66,4.69,21.93,3.47,14.54,7.49,28.93,12.21,43.12a1.18,1.18,0,0,0,1.27.79c2.67-.35,5.24-.87,7.81-1.45s5.12-1.3,7.65-2.08a89.33,89.33,0,0,0,14.7-6c1.17-.64,2.35-1.26,3.48-2s2.26-1.43,3.38-2.17,2.19-1.55,3.23-2.41,2.06-1.75,3.07-2.64,1.95-1.89,2.84-2.92,1.75-2.08,2.59-3.15a40.52,40.52,0,0,0,2.27-3.42c.75-1.15,1.31-2.41,2-3.63h0A2,2,0,0,0,381.82,85ZM364.3,102.69c-1,.73-2.07,1.47-3.15,2.15s-2.1,1.29-3.16,1.91a14.63,14.63,0,0,0-4.87-6c-9.18-5.4-15.78,5.6-14.08,13.76-.86.25-1.71.5-2.58.72-2.16.56-4.36,1-6.54,1.41-.63-2-1.22-4-1.83-6a16.56,16.56,0,0,0,4.66-4s0,0,0-.06l.06-.06c4.86-7.13-2-18.06-10.5-16.23-1.35-5.21-2.66-10.44-3.86-15.69q-1.71-7.51-3.19-15.1c3-1.07,5.79-3.4,6.07-6.75.35-4.21-2-8-5.05-10.66l-.07,0-.05,0a9.85,9.85,0,0,0-4-1.87c-.14-1.27-.27-2.54-.35-3.8-.05-.9-.08-1.8-.06-2.65a9.2,9.2,0,0,1,.07-1l.13,0a8.36,8.36,0,0,1,1.12.35,23.41,23.41,0,0,1,2.35,1.09c1.58.83,3.13,1.79,4.67,2.78,2.28,1.49,4.51,3.07,6.72,4.71a10.49,10.49,0,0,0,.65,4.35.43.43,0,0,0,0,.07s0,0,0,.07c2,4.36,6.44,5.34,10.7,4.53q4.06,3.36,8,6.82t7.85,7a13.38,13.38,0,0,0-4.51,8.3s0,0,0,.07,0,0,0,.09c-.67,11.11,13.35,11.61,19.49,5.41q3.86,3.69,7.69,7.4l-.53.1a12.54,12.54,0,0,0-6.1,3,8.16,8.16,0,0,0-1.67,10.34c-.4.37-.8.73-1.22,1.07C366.32,101.17,365.3,101.92,364.3,102.69Z"/><path d="M334.18,60.24s0,0-.06,0l-.09,0c-5.61-.38-10.87,5.61-11.56,10.92-.79,6.07,3.13,10.45,9.17,10.32,5.27-.1,10.4-3.28,11.3-8.67A10.72,10.72,0,0,0,334.18,60.24Z"/></g></g></svg>