<svg xmlns="http://www.w3.org/2000/svg" viewBox="0 0 206.38 183.35"><g id="Слой_2" data-name="Слой 2"><g id="objects"><path d="M201.41,178.25A83.3,83.3,0,0,0,192,176.9c-2.56-.21-5.15,0-7,0l-4.22-6.46c1.27-1.84,2.95-4.19,4.53-6.61,1.18-1.82,2.65-3.79,1.29-6s-3.65-1.53-5.59-1.27c-3.88.51-7.72,1.33-11,1.92a60.28,60.28,0,0,0,.62-6.93c0-1.8-1-3.6-1-5.39.22-19.14.54-38.28.84-57.41,0-2.32,0-4.65.21-7,1.66-19.69,1.48-39.4.71-59.12a19,19,0,0,0-6-13.13c-3.56-3.48-8-4.4-12.88-3.21-2.49.62-4.93,1.41-7.55,2.16A8.16,8.16,0,0,1,144.41,7c-.58-5.91-.72-6.28-6.38-6.38-7.38-.14-14.77.25-22.15.17C99.65.57,83.42.17,67.19,0A62.26,62.26,0,0,0,56.83.94C52,1.72,47.19,3,42.34,3.75c-9.23,1.52-14.69,8.08-15.48,17.91-.87,10.64-.24,21.41-.12,32.13a89.77,89.77,0,0,0,.88,9.07c1,8.77,1.7,17.59,3.15,26.29,2.57,15.42,5.94,30.72,6.93,46.37.37,5.76.67,11.53,1,17-2.34-.3-4.63-1.25-6.45-.69a9.88,9.88,0,0,0-7.29,8.37c-.15,1-.28,2.06-.51,3.71-1.35-1.52-2.2-2.49-3-3.45-1.28-1.45-2.64-2.9-4.81-2.16s-2.13,2.84-2.11,4.73c0,1.23.11,2.47.17,3.89-4-1.84-7.6-3.63-11.34-5.15a3.59,3.59,0,0,0-3,.47c-.43.32-.31,2,.11,2.71q4.46,7.73,9.2,15.28c.56.88,1.78,1.34,3.16,2.33,1.33-5.8-3-8.91-4.24-14,2.68,1.59,4.66,2.93,6.78,4,2.84,1.42,4.55.37,4.57-2.75a44.74,44.74,0,0,0-.54-5.19,42.57,42.57,0,0,0,4.36,3.77c2.7,1.74,4.71.73,5.14-2.48.24-1.72.24-3.48.39-5.21a5.27,5.27,0,0,1,4.2-4.95c1.16-.22,2.84,1.41,4.05,2.47,2.61,2.28,4.91,4.92,7.64,7,2.28,1.77,3.6,1.09,4.36-1.65a20.11,20.11,0,0,1,.94-3.32c1.62-3.32,3.62-3.52,5.83-.64.71.91,1.19,2,1.84,2.95,1.93,2.86,2.92,3.09,6.13,1.86a13.89,13.89,0,0,1,4.16-1c5.8-.29,11.59-.46,17.39-.62,8.23-.22,16.51.91,24.71-.71a8.73,8.73,0,0,1,2.59.11c5,.51,10,1.06,15.08,1.55,4.61.45,9.26.71,13.48,2.93,3.79,2,4.45,1.7,6.92-2a39,39,0,0,1,5.53-7.18,12.34,12.34,0,0,1,12.1-2.93c-.37.87-.56,1.4-.81,1.9-1.51,3-3.16,5.87-4.49,8.91-.38.87.16,2.14.28,3.22,1.18-.17,2.5-.07,3.49-.6,1.25-.66,2.16-1.93,3.33-2.77a23.36,23.36,0,0,1,14.13-4.92c-2.48,3.41-4.58,6.14-6.49,9a19.09,19.09,0,0,0-2.58,5c-.87,2.85.85,4.34,3.81,3.55A19.45,19.45,0,0,0,179,177c1.09,4.33,4.32,4.82,7.84,5,4.47.25,8.94.56,13.37,1.1,1.69.21,3.35.75,4-1.27C204.87,179.64,203.19,178.6,201.41,178.25Zm-49.62-71.76c-.82,15.35-1.14,30.72-1.74,46.08a6.52,6.52,0,0,1-.9,3.19c-1.49,2.3-3.2,4.46-5,6.94-8-3-16.46-3.09-25-3.61-5.05-.3-9.94-1-15.05,0-3.32.65-6.9,0-10.37,0-5.78,0-11.56.1-17.34.15-1.85,0-3.7,0-5.65,0-1-4.34.84-8.37-1.55-12.55-4.56,3.68-2.43,8.51-3.62,12.64l-3.51,1.58a9.21,9.21,0,0,1-1.44-1.59c-4.51-8.08-11.14-7.36-14.59.78-.05.12-.21.19-.51.42-2-.44-2.45-1.88-2.4-3.79.61-22.32-2.89-44.14-7.3-65.93-2.09-10.33-2.36-21-3.85-31.46-1.65-11.58-.49-23.18-.86-34.76-.14-4.6,1.7-8.47,4.15-12.12,1.93-2.9,5.14-3.58,8.25-4.35C60.16,4,77,3.77,94,4.84c8.37.52,16.81-.11,25.22-.16,6.66,0,13.32,0,20.55,0,.06,1.9.13,3.85.18,5.79.09,3.57,1.5,4.44,4.59,2.91C147.3,12,150,10.76,152.79,9.5a2.44,2.44,0,0,1,3.71,1.72,25.8,25.8,0,0,1,1,6.4,330.7,330.7,0,0,1-2.42,44.24C153.32,76.66,152.58,91.6,151.79,106.49ZM167.53,72c-.29,15.94-1.08,31.87-1.66,47.81-.36,9.69-.74,19.38-1.13,29.45l-9.19,1.56c0-6.34,0-12.39,0-18.45.07-8.55,0-17.12.39-25.67.43-9.69,1.35-19.36,1.94-29,1.14-18.78,5.61-37.29,4.56-56.25-.18-3.16-.45-6.31-.74-10.33a16,16,0,0,1,5.88,12.62C167.67,39.81,167.82,55.92,167.53,72Z"/><path d="M199,96.44c-1.77.3-2.52,1.49-1.89,3.16a8.72,8.72,0,0,0,5.8,5.45,2.58,2.58,0,0,0,3.46-2.67C206.22,100.41,201,96.11,199,96.44Z"/><path d="M21.35,135.89c1.11-.15,2.08-1.3,2.68-1.7.19-2.82-1.41-5.28-3-5.42a2.49,2.49,0,0,0-2.91,2.42C17.79,133.41,19.52,136.13,21.35,135.89Z"/><path d="M11.63,107.91c.87.11,1.91-1.1,3.55-2.18-1.58-1.2-2.54-2.49-3.43-2.45a3.29,3.29,0,0,0-2.33,2.25A3.29,3.29,0,0,0,11.63,107.91Z"/><path d="M194.27,25.08c1.11-.28,1.95-1.63,3.41-2.95-1.37-1-2.13-2-3-2.12-1.71-.23-2.56,1-2.59,2.63C192,24.11,192.78,25.45,194.27,25.08Z"/><path d="M79.1,85.2C76.44,78,73.92,70.65,67.17,66c-.17-.12-.16-.51-.25-.85A8.92,8.92,0,0,1,67.51,64c1.82-2.44,3.72-4.83,5.45-7.33a28.8,28.8,0,0,0,3.56-5.93c1.85-4.88-.83-9.08-6-9.89-6.78-1.07-12.78,2-19,3.75-1,.28-2,2.24-2,3.47C49.31,52,49,56,49.64,59.8a230.75,230.75,0,0,1,3.21,35.48c0,.87-.16,2,.3,2.54.82,1,2.09,2.36,3.1,2.31s2.17-1.52,2.82-2.63c.45-.77.22-2,.18-3-.26-5.8-.59-11.59-.81-17.38a5.32,5.32,0,0,1,.56-3.2,48.62,48.62,0,0,1,4.53-4.55,13.23,13.23,0,0,1,6.21,7.87c3.09,9.2,6,18.45,9,27.68,1.12,3.44,2.55,4.69,4.58,4.08s2.48-2.32,1.37-6C82.91,97.07,81.26,91,79.1,85.2ZM58.18,67,57,66.69C56,61,55,55.37,53.89,49.18c5.15-1.12,9.59-3.75,14.82-3.24,3.16.3,4.09,1.73,2.3,4.22C66.9,55.88,62.48,61.39,58.18,67Z"/><path d="M130.28,39.26c-3.75-2.38-7.79-2.8-12.08-2.68-6.83.18-7.88,1.13-7.87,7.78q0,13.26,0,26.53h-.4c-.19,9.12-.43,18.25-.52,27.38,0,4,1.08,5.66,3.27,5.55,2-.1,2.86-1.63,3-5.4.27-6.52.52-13,.91-19.55a5.23,5.23,0,0,1,1.27-3.4A62.8,62.8,0,0,0,134.73,53.2C137.17,47.91,135.16,42.35,130.28,39.26Zm-.6,12.5C126.82,58,122.34,63.08,117,68V42c3.11-.24,6.51-.79,9.75,1.06C130.49,45.14,131.46,47.86,129.68,51.76Z"/><path d="M97.29,90c-.85-14.14-1.67-28.29-2.55-42.43A41.91,41.91,0,0,0,94,42.85c-.27-1.51-.81-2.93-2.66-2.85-2,.09-2.58,1.64-2.7,3.33a33.09,33.09,0,0,0,0,4.34c.85,15.3,1.68,30.61,2.61,45.92.2,3.45.68,6.91,1.21,10.33.27,1.72,1.39,3,3.34,2.63,1.67-.28,2.36-1.52,2.38-3.15,0-.44,0-.87,0-1.3h-.15Q97.66,96.06,97.29,90Z"/><path d="M142.33,116.42c-.59-.23-2.08.79-2.55,1.6a13,13,0,0,0-1,3.53c0,1.15-.18,1.82,0,2.27.47.94,1,2.33,1.79,2.48a3.14,3.14,0,0,0,2.57-1.56,15.78,15.78,0,0,0,1.38-5.73C144.56,118.11,143.3,116.78,142.33,116.42Z"/><path d="M46.36,15.58a3.92,3.92,0,0,0-2.43-2.36c-1.68-.42-4.5,2.34-4.15,4,.23,1.12,1.36,2,1.84,2.71C44.31,19.82,46.82,17.32,46.36,15.58Z"/><path d="M52.58,111.48c-.22-.67-1-1.62-1.57-1.64a14.89,14.89,0,0,0-5,.55,3.11,3.11,0,0,0-1.78,2.33c0,.67,1.34,1.33,2,2,2.11-.59,3.78-.94,5.36-1.56A2,2,0,0,0,52.58,111.48Z"/><path d="M140.19,138.89c-1.52.11-2.34,1.53-2.13,3.66.18,1.77.91,3.15,2.89,3.12,1.72,0,2.56-1.15,2.53-2.86C143.45,140.75,141.78,138.77,140.19,138.89Z"/><path d="M49.88,119.39a3.06,3.06,0,0,0-2.35,1.72c-.38,1.57,1,2.4,2.33,2.24,1.07-.13,2-1,3.06-1.53,0-.37,0-.73,0-1.09C51.9,120.24,50.88,119.36,49.88,119.39Z"/></g></g></svg>