<svg xmlns="http://www.w3.org/2000/svg" viewBox="0 0 155.84 342.05"><defs><style>.cls-1{fill:#3c3c3b;}.cls-2{fill:#f5f5f5;}</style></defs><g id="Слой_2" data-name="Слой 2"><g id="Objects"><path class="cls-1" d="M87.2,29.72c6,6.24,31.44,32.18,10.31,35-16,2.12-16.64-26.78-10.64-36A1.28,1.28,0,0,0,87.2,29.72Z"/><path class="cls-1" d="M61.31,34.21C67,39,69.06,47.65,69,54.78c-.06,6.15-5.84,16.38-13.24,11.71-4.57-2.88-3.39-11.84-2.6-16.14C54.21,44.52,56.61,38.09,61.31,34.21Z"/><path class="cls-2" d="M155.68,72.06c.71,1.29-1.12,2.86-2.12,1.63-1.91-2.35-3.5-4.93-5.83-6.88a20.91,20.91,0,0,0-4.48,6.4c-.41,1-2,.28-1.7-.72a24.06,24.06,0,0,1,4.92-8.28,1,1,0,0,1-.75-.95c-.36-7.3-.79-14.61-1.63-21.87-.82-7-2.61-14.17-2.89-21.23a1.25,1.25,0,0,1,2.45-.33c2.15,6.76,2.7,14.5,3.4,21.56a155,155,0,0,1,.74,21.87,1,1,0,0,1-.08.36,1.14,1.14,0,0,1,.61.17A26,26,0,0,1,155.68,72.06Z"/><path class="cls-2" d="M150.23.36a1.19,1.19,0,0,1,1.86,1.43c-.91,1.77-2.11,3.34-2.52,5.33a16.14,16.14,0,0,0-.13,5.28c.13,1.08-1.64,1.29-1.88.26C146.57,8.42,147.06,3.61,150.23.36Z"/><path class="cls-2" d="M149.4,70.48c4.34,8.58-2.59,21.21-8.55,27.29A42.89,42.89,0,0,1,114,110.85c-1.17.1-1.44-1.88-.28-2a41.9,41.9,0,0,0,25-13.15c3.34-3.74,6.31-8.14,7.6-13.05,1-4,.43-7.91,1.13-11.87A1.07,1.07,0,0,1,149.4,70.48Z"/><path class="cls-2" d="M145,12.81c.61,1-.89,1.82-1.55.91-1.78-2.45-4.51-6.1-3.64-9.34a1,1,0,0,1,1.93,0c.5,1.52.43,3.11,1.14,4.61A40.71,40.71,0,0,0,145,12.81Z"/><path class="cls-2" d="M137.73,12.49c1,.61.13,2-.91,1.55a10.08,10.08,0,0,1-3.19-2.26c-.76-.8-2-2.08-1.39-3.25a.81.81,0,0,1,.73-.42c1.15.13,1.52,1.33,2.2,2.13A10.79,10.79,0,0,0,137.73,12.49Z"/><path class="cls-2" d="M83.37,97c9.27-1.42,23.81.54,22.41,12.78a1.27,1.27,0,0,1-2.48.33c-1.49-4.56-2.56-8.43-7.74-9.94a24.79,24.79,0,0,0-11.68-.29,121.24,121.24,0,0,1,1.54,16.35c8.71,1.13,24.64,9,19.21,20a1.14,1.14,0,0,1-2.1-.57c.14-4.15-.3-7.51-3.65-10.41a24.74,24.74,0,0,0-9.82-5.21,36.37,36.37,0,0,0-3.59-.77,181.9,181.9,0,0,1-1,19.9c7.7,4.54,15.09,14.79,11.74,23.53-.46,1.19-2.49,1.14-2.39-.32.49-6.74-1.31-13-6.4-17.79A25.46,25.46,0,0,0,84.17,142c-.63,5.69-1.46,11.36-2.38,17,7.21,6.26,12.61,17.32,9.3,25.3-.5,1.22-2.58,1.22-2.5-.34.42-8-1.47-15.37-7.28-21.29l-.12-.12c-1.39,8.24-2.93,16.41-4.32,24.45-.38,2.2-3.65,1.25-3.32-.91,1.36-8.83,2.94-17.64,4.34-26.46a11.52,11.52,0,0,0-8-2.64c-1.72.15-4.66.64-5.51,2.53-1.27,2.81,2.42,4.7,4.19,5.85a.57.57,0,0,1-.43,1c-3.23-.8-8.77-4-6.07-8.23,2.48-3.85,7.9-4.73,12.09-3.55a16.85,16.85,0,0,1,4.19,1.88c.84-5.44,1.59-10.89,2.16-16.37a10.59,10.59,0,0,0-2.74-.56,12.52,12.52,0,0,0-5,.32c-3.85,1.31-2.42,4.54.17,6.33a.78.78,0,0,1-.79,1.35c-2.65-1.2-7.19-4.53-4-7.81s8.52-3.58,12.61-2.27q.86-9.27.88-18.47a14.23,14.23,0,0,0-4.16.7,16.43,16.43,0,0,0-4.73,2.19c-3.43,2.58-.53,4.76,1.91,6.29a.69.69,0,0,1-.53,1.25c-3.75-1-8.84-4.62-4.61-8.58a18.5,18.5,0,0,1,12.1-4.75q-.09-7.74-.74-15.49c-5.42,1.48-13.9,4.77-11.1,10.54.26.54-.17,1.35-.84,1.1-3.38-1.24-3-5.18-1.18-7.55,3-3.81,8.32-6,12.85-7.12q-.24-2.51-.54-5c-.15-1.29,1.93-1.52,2.23-.3C82.72,93.85,83.06,95.44,83.37,97Z"/><path class="cls-2" d="M79.81,229.34c6.65,5.6,5.09,19.67,4.16,27.31-1.09,8.85-3.77,22-11.43,27.74-1.24.92-2.92-.87-2.1-2.09,5.51-8.19,9-16.18,10.34-26.08a68.08,68.08,0,0,0-1.65-26.49A.41.41,0,0,1,79.81,229.34Z"/><path class="cls-2" d="M80.38,338.57c1.33-.07,2,2,.7,2.59-3.83,1.68-8.7.46-12.76.39a1.62,1.62,0,0,1-1.54-1.17c-4.49-14.71-6.61-33-1.21-47.81a1.73,1.73,0,0,1-.3-.52,9,9,0,0,1-.79-4.06c.14-1.14.32-2.27.5-3.41.14-.94,1.45-.59,1.53.21.18,1.71-.3,3.7.55,5.24a26.55,26.55,0,0,0,7.1-4.57,1.49,1.49,0,0,1,2.11,2.11A16.77,16.77,0,0,1,67,293a100.15,100.15,0,0,0,2.5,45.42C73.16,338.54,76.73,338.78,80.38,338.57Z"/><path class="cls-2" d="M116,55.11c-.2-12.73-7.94-25.83-18-33.3-13.34-9.89-29.39-8.44-42.86.53-18,12-21.93,36.82-7.15,52.88,4.68,5.07,12.25,8.29,17.76,4.59-.54,3.46.62,6.85,4.43,8.27,3.43,1.28,5.69-.81,6.93-3.55a5,5,0,0,0,4.75,2.75c2.47-.14,3.74-2.22,4.37-4.5,1.63,2.21,3.93,3.68,7,2.51,4-1.55,4.19-6.5,3.35-10.13C108.52,75.51,116.22,66.87,116,55.11ZM86.87,28.65a1.28,1.28,0,0,0,.33,1.07c6,6.24,31.44,32.18,10.31,35C81.54,66.81,80.87,37.91,86.87,28.65ZM53.15,50.35c1.06-5.83,3.46-12.26,8.16-16.14C67,39,69.06,47.65,69,54.78c-.06,6.15-5.84,16.38-13.24,11.71C51.18,63.61,52.36,54.65,53.15,50.35Z"/><path class="cls-2" d="M90,190.6c-3.42-2.52-7.32-2.56-11.18-1.3-2.4.79-4.71,1.84-7.14,2.57-4.57,1.38-4.56-2.18-4-5.89a1.26,1.26,0,0,0-.15-.83c0-7.19-5-15.23-13.12-12.42-7.09,2.47-9.12,14-9.21,20.4-.06,4.55-.5,9.08-.54,13.63,0,3.38-.21,7.68,1.63,10.69,5,8.19,15.34-1.94,21.35-5.35.18,5.61,2,12.11,8.86,10.93s12.64-9,15.53-14.75S95.89,194.93,90,190.6ZM77.93,203.53c.66-3,4.75-4.86,7.54-5.13a12.8,12.8,0,0,1-4.76,9.07C78.47,209,77.6,205,77.93,203.53Zm-21-21.31a2.47,2.47,0,0,0,.43-.06.85.85,0,0,1,.47,0,36.37,36.37,0,0,1-.1,5.21,8.08,8.08,0,0,1-2.19,4.22C53.13,188.42,53.51,184.72,56.89,182.22Z"/><path class="cls-2" d="M55.18,105.61a.78.78,0,0,1,.41,1.5C38.87,112.51,20,101.38,16,84.34c-.43-1.85,2.4-2.64,2.85-.79C22.7,99.25,39.68,108.44,55.18,105.61Z"/><path class="cls-2" d="M50.15,317c.4,5.95,1.09,14.07-2.24,19.37-.66,1.05-2.57.71-2.47-.67.25-3.55,1.37-6.94,1.49-10.53q.15-4.92-.18-9.83c-.47-7-1.43-14.06-.75-21a.8.8,0,0,1,.17-.42l-.27,0a16,16,0,0,1-9.24-3.29c-.82-.66.22-1.82,1.07-1.38a16.27,16.27,0,0,0,7.19,2,22.85,22.85,0,0,0,.47-4.7,1.38,1.38,0,0,1,2.75,0,13.7,13.7,0,0,1-1.09,6.7,1.15,1.15,0,0,1-.27.32.78.78,0,0,1,.75.73C48.46,301.8,49.64,309.37,50.15,317Z"/><path class="cls-2" d="M44.21,227.41a1,1,0,0,1,1.67,1,100.91,100.91,0,0,0-7.74,28.14c-1.12,9.69-1.21,19.2,6.89,25.69,1,.8-.09,2.27-1.17,2-9.91-2.36-9.93-17.77-9.07-25.43C36,248.26,38.52,236.53,44.21,227.41Z"/><path class="cls-2" d="M43.62,338.87c1.22.3,1,2.38-.3,2.22a47.16,47.16,0,0,0-7.79-.33,47.39,47.39,0,0,1-5.14.46,1.27,1.27,0,0,1-.89-2.15c1.36-1.59,4.14-1.26,6-1.2A38,38,0,0,1,43.62,338.87Z"/><path class="cls-2" d="M23.51,79.62c1,1.24-.55,2.88-1.76,1.76-1.64-1.51-4.92-5.17-7.51-3.29A4.68,4.68,0,0,0,12.59,81c-.13.68-.06,1.43-.24,2.09-.12.41-.37.54-.45,1s-.79.4-1,0c-.38-1-.78-1.18-.7-2.38A8.59,8.59,0,0,1,10.74,79a6.81,6.81,0,0,1,2-2.88.7.7,0,0,1-.34-.34C6.3,63,3.91,45.68,7.5,31.86c.38-1.48,2.91-1.22,2.73.37A104.31,104.31,0,0,0,14,75.09a.85.85,0,0,1,0,.35C17.6,74.21,21.34,76.85,23.51,79.62Z"/><path class="cls-2" d="M16.67,14.2c.73-.76,2.29,0,1.86,1.08C18,16.73,17,18,16.36,19.42c-.56,1.25-1,2.55-1.56,3.79-.46,1-1.87.25-1.67-.71C13.69,19.86,14.75,16.18,16.67,14.2Z"/><path class="cls-2" d="M10.61,22.5a.94.94,0,0,1-1.82.5,21.59,21.59,0,0,1-1-10,1.07,1.07,0,0,1,2,0C10.35,16.15,9.82,19.34,10.61,22.5Z"/><path class="cls-2" d="M6,24.31c.23.61-.61,1-1,.59C2.46,22.6-.54,18.26.08,14.71c.18-1,1.75-.94,2,0a24.7,24.7,0,0,0,1.68,5.36A38.88,38.88,0,0,1,6,24.31Z"/></g></g></svg>