<svg xmlns="http://www.w3.org/2000/svg" viewBox="0 0 118.49 76.7"><defs><style>.cls-1{fill:#f5f5f5;}.cls-2{fill:#3c3c3b;}</style></defs><g id="Слой_2" data-name="Слой 2"><g id="Objects"><path class="cls-1" d="M116.67,37.57c-1.61-3.63-4.43-8.09-8.67-8.89-5.62-1.05-8.09,6.07-9.2,10.2v0a1.27,1.27,0,0,0-.45-.05,18.94,18.94,0,0,1-6.13-.81A28,28,0,0,0,90.3,24.71C84.77,10.52,70.33-.59,54.82,0,43.62.45,34.16,6.81,28.2,15.71c-1-.1-2-.15-3-.33A2.43,2.43,0,0,1,24,14.91c1.81-2.06,3.06-4.62,2.18-7.39-1-3-4-4.83-6.88-5.75a12.57,12.57,0,0,0-9.21.34c-3.12,1.54-3.72,5-2.8,8.11a15.45,15.45,0,0,0,1.34,3.1c-2.87-.59-5.95-.52-7.68,1.93C-.93,17.87.36,21.56,1.8,24c1.68,2.88,4.45,5.56,7.89,6,4,.47,6.39-3.2,7.42-6.6A12.6,12.6,0,0,0,21.18,25a18.58,18.58,0,0,0,2.23.54c-.06.18-.13.36-.18.55C19.67,37.52,21,52.9,31,60.8c5.59,4.42,12.31,4.66,18.69,2.57-1.63,4.64-2.34,11.37,3.19,13,3.54,1.07,5.57-.93,6.59-3.68a6.14,6.14,0,0,0,5.54,3c2.68-.11,4-2,4.56-4.23,2.11,2.1,5.17,2.6,8.49,0,5.44-4.23,2.3-10.46-1.93-14a25.16,25.16,0,0,0,12.64-9.67.45.45,0,0,0,.11,0c1.1.1,2.21.18,3.3.37.16,0,.33.08.5.13-6.78,5-3.42,19.63,6.52,17.87,7.67-1.36,11.23-8.65,8.77-14.78,3.26,1.08,6.77,1.34,9-1.4C119.69,46.6,118.25,41.15,116.67,37.57Z"/><path class="cls-2" d="M75.61,22.71C71.09,17.15,63.55,11.34,56.11,11a1.47,1.47,0,0,0-.91,2.61l-.26.28c-4.14,4.46,1.48,14.58,4,18.47,4.12,6.32,11.57,9.87,18.48,5.46C83.3,34.12,78.7,26.52,75.61,22.71Z"/><path class="cls-2" d="M66.12,51.35c-.25-3-2.82-6.74-5.89-7.85-1.15-.69-2.51-1.19-3.59-1.72a1.08,1.08,0,0,0-1.58.92.9.9,0,0,0-.56.4c-2.76,4.24-3.86,8.51-.12,12.51a1.22,1.22,0,0,0,1.74,0,15.8,15.8,0,0,0,2.09-3.21c1.62,1.4,3.65,2.85,5.71,2.51C65.64,54.63,66.25,52.9,66.12,51.35Z"/><path class="cls-2" d="M42.67,20.42a1.44,1.44,0,0,0-2.39,0c-11,3.49-13.07,26.39.38,27.66C53.25,49.25,45.84,25.48,42.67,20.42Z"/></g></g></svg>